<svg width="48" height="48" viewBox="0 0 48 48" fill="none" xmlns="http://www.w3.org/2000/svg">
<rect width="48" height="48" fill="white"/>
<g clip-path="url(#clip0_179_39)">
<path d="M19.5565 32.9583C19.5828 32.1753 19.6114 31.3922 19.6391 30.6092C19.6469 30.3918 19.9024 28.9576 19.7303 28.8375C19.2937 28.5341 18.7965 28.3184 18.2765 28.2069C18.5084 29.5184 18.522 30.8822 18.5983 32.214C18.6443 33.016 18.7292 33.8172 18.7113 34.6215C18.7047 34.9189 18.7549 35.441 18.5932 35.7029C18.448 35.9379 18.0765 36.0081 17.8245 35.9998C17.5972 35.9924 17.3627 35.9504 17.1471 36.0227C16.9315 36.095 16.7507 36.3415 16.8491 36.5464C16.9281 36.7111 17.1343 36.7617 17.3144 36.7933C17.6938 36.8598 18.0732 36.9265 18.4527 36.9931C18.7547 37.046 19.1078 37.0846 19.3285 36.8719C19.6004 36.6095 19.4832 36.1833 19.4714 35.8526C19.4574 35.4577 19.4901 35.0631 19.5024 34.6687C19.5201 34.0985 19.5372 33.5283 19.5564 32.9582L19.5565 32.9583Z" fill="#840001"/>
<path d="M24.2232 32.196C24.5391 32.9346 24.82 33.6899 25.1942 34.4022C25.3326 34.6655 25.5201 35.1554 25.7816 35.318C26.0162 35.464 26.3802 35.3614 26.6022 35.2421C26.8024 35.1344 26.9937 34.9925 27.219 34.9614C27.4443 34.9303 27.7159 35.0705 27.7191 35.2978C27.7216 35.4805 27.5595 35.6174 27.4123 35.7258C27.1022 35.9543 26.792 36.1826 26.4819 36.4111C26.2351 36.5929 25.9361 36.7846 25.6437 36.6921C25.2834 36.5781 25.1986 36.1443 25.0617 35.8429C24.8984 35.4831 24.6934 35.1443 24.5068 34.7965C24.2371 34.2938 23.9678 33.7909 23.6967 33.2888C22.6952 31.4342 21.824 29.7408 20.569 28.0402C21.0234 27.6256 21.6303 27.3819 22.2454 27.3669C22.1531 27.3691 22.9389 29.4829 23.0499 29.6758C23.5114 30.4768 23.8566 31.3392 24.223 32.1961L24.2232 32.196Z" fill="#840001"/>
<path d="M5.71614 16.5453C5.6905 15.4322 6.39036 14.3628 7.34317 13.8158C7.66425 13.6326 8.01787 13.5048 8.38003 13.4645C8.04666 13.609 7.73682 13.7807 7.4532 13.9866C6.5924 14.6067 5.98372 15.5166 5.71614 16.5453Z" fill="#FC8B88"/>
<path d="M5.20813 15.6952C5.34567 14.5775 6.24815 13.5346 7.33639 13.2405C6.39996 13.8959 5.7227 14.675 5.20813 15.6952Z" fill="#FC8B88"/>
<path d="M4.99999 14.5832C5.01615 13.9037 5.63243 13.2289 6.30912 13.1539C6.05476 13.373 5.81843 13.5737 5.59802 13.8169C5.37468 14.0574 5.19547 14.3104 4.99988 14.5832H4.99999Z" fill="#FC8B88"/>
<path d="M12.6693 19.2174C12.2307 19.0698 11.7643 19.0055 11.302 19.0286C11.3538 18.3889 10.918 17.742 10.3053 17.5493C9.69267 17.3565 8.96472 17.6373 8.64048 18.1913C8.27715 18.136 7.90726 18.0165 7.61147 17.7985C8.10438 17.2396 8.29998 16.4326 8.11761 15.7103C8.58758 15.8105 9.14791 15.4231 9.20866 14.9468C9.26941 14.4703 8.7504 13.9989 8.2974 14.1593C8.02408 14.2561 7.85073 14.5187 7.69739 14.7648L6.9349 15.9881C6.58667 16.5468 6.22404 17.1718 6.33255 17.8211C6.40781 18.272 6.70782 18.6607 7.07127 18.9384C7.43472 19.2161 7.86068 19.3979 8.28172 19.5767C9.91262 20.2695 11.5434 20.9623 13.1743 21.6551C13.2133 20.8347 12.9581 19.9864 12.6695 19.2173L12.6693 19.2174Z" fill="#840001"/>
<g opacity="0.44">
<path d="M10.4359 17.9341C10.9045 18.1778 11.1433 18.7435 11.0104 19.2503C10.9759 19.3821 11.1851 19.4163 11.2194 19.2853C11.3766 18.6858 11.072 18.0264 10.5253 17.742C10.404 17.679 10.3153 17.8714 10.4359 17.9341Z" fill="white"/>
</g>
<g opacity="0.44">
<path d="M8.90008 14.6444C8.96821 14.8508 8.90886 15.0954 8.73761 15.2352C8.57432 15.3685 8.3442 15.3882 8.15574 15.3004C8.03202 15.2428 7.94282 15.4349 8.06643 15.4925C8.33155 15.616 8.66012 15.5815 8.88381 15.388C9.11651 15.1866 9.1933 14.8575 9.09814 14.5693C9.05541 14.4398 8.85736 14.515 8.90008 14.6445V14.6444Z" fill="white"/>
</g>
<g opacity="0.44">
<path d="M7.69478 14.987C7.36106 15.5319 7.00218 16.0687 6.69679 16.63C6.44302 17.0962 6.29202 17.6842 6.61356 18.1579C6.69023 18.2709 6.86265 18.1479 6.7861 18.035C6.4738 17.5746 6.71797 17.0068 6.96741 16.581C7.26438 16.074 7.58019 15.5773 7.8871 15.0761C7.95827 14.96 7.76525 14.8719 7.6949 14.9869L7.69478 14.987Z" fill="white"/>
</g>
<path d="M40.1858 14.7381C39.6269 15.1707 39.2512 15.6657 38.9409 16.1959C38.9409 16.1961 38.9407 16.1961 38.9406 16.1962C38.9132 16.243 38.8864 16.2901 38.8599 16.3374C38.8596 16.3385 38.859 16.3393 38.8584 16.3402C38.8473 16.3598 38.8366 16.3793 38.8259 16.3991C38.8234 16.4037 38.8207 16.4084 38.8181 16.4131C38.8047 16.4373 38.7916 16.4618 38.7785 16.4862C38.7775 16.4881 38.7766 16.4898 38.7754 16.4917C38.7634 16.5145 38.7513 16.5371 38.7394 16.5598C38.7264 16.5845 38.7135 16.609 38.7006 16.6337C38.6877 16.6584 38.675 16.6832 38.6625 16.7081C38.6496 16.7329 38.6369 16.7578 38.6245 16.7826C38.5887 16.8535 38.5533 16.9248 38.518 16.9965C38.4286 17.1781 38.3401 17.3621 38.2481 17.5474C38.2363 17.5714 38.2243 17.5953 38.2123 17.6194C38.1973 17.6493 38.1824 17.6793 38.1671 17.7092C38.134 17.7746 38.1004 17.8402 38.066 17.9057C38.0545 17.9277 38.043 17.9495 38.0313 17.9715C38.0181 17.9968 38.0045 18.022 37.9909 18.0473C37.9807 18.0658 37.9708 18.0844 37.9605 18.1031C37.9487 18.1248 37.9364 18.1468 37.9243 18.1688C37.8858 18.2378 37.8464 18.3071 37.8054 18.3762C37.7967 18.3909 37.7882 18.4057 37.7793 18.4204C37.7743 18.4288 37.7691 18.4374 37.764 18.4457C37.7546 18.4616 37.7448 18.4775 37.7351 18.4933C37.7324 18.498 37.7296 18.5027 37.7264 18.5074C37.7149 18.5263 37.7032 18.545 37.6914 18.564C37.6778 18.586 37.6638 18.6077 37.6498 18.6297C37.6234 18.671 37.5963 18.7124 37.569 18.7531C37.5572 18.7709 37.5454 18.7883 37.5334 18.8059C37.5288 18.8126 37.5241 18.8196 37.5196 18.8262C37.4945 18.8627 37.469 18.899 37.4434 18.935C37.3861 19.0153 37.3271 19.0944 37.2665 19.1722C37.2529 19.1898 37.2389 19.2076 37.2249 19.2251C37.1693 19.2952 37.1124 19.3642 37.0543 19.4321C37.0424 19.4461 37.0303 19.46 37.0185 19.4738C37.0163 19.4761 37.0145 19.4783 37.0127 19.4805C37.0009 19.4937 36.9892 19.5072 36.9775 19.5204C36.9257 19.5789 36.8731 19.6363 36.8195 19.6929C36.766 19.7498 36.7114 19.8056 36.6561 19.86C36.4486 20.0653 36.2293 20.2565 35.9994 20.4315C35.9583 20.4629 35.9169 20.4937 35.8751 20.524C35.8704 20.5273 35.8656 20.5307 35.8609 20.5341C35.8233 20.5613 35.7855 20.5879 35.7474 20.6143C35.7426 20.6175 35.7378 20.6208 35.733 20.6241C35.694 20.6509 35.6548 20.6771 35.6152 20.7029C35.6121 20.705 35.6089 20.7071 35.6056 20.7091C35.1283 21.0203 34.6132 21.265 34.0725 21.4274C33.1136 21.7154 32.098 21.7657 31.1554 22.1089C31.1521 22.1101 31.1491 22.1111 31.1458 22.1124C31.1386 22.1151 31.1314 22.1177 31.1244 22.1206C31.1096 22.1259 31.0949 22.1314 31.0801 22.1371C31.0615 22.1442 31.0428 22.1514 31.0242 22.1588C31.0034 22.167 30.9828 22.1753 30.9621 22.1836C30.9286 22.1975 30.8953 22.2116 30.8622 22.226C30.8487 22.2317 30.8354 22.2376 30.8221 22.2435C30.8125 22.2479 30.8029 22.2521 30.7935 22.2564C30.7935 22.2564 30.7937 22.2564 30.7935 22.2566C30.6909 22.3025 30.5902 22.3517 30.4906 22.4037C30.4841 22.407 30.4776 22.4102 30.4711 22.4136V22.4139C30.4449 22.4275 30.4186 22.4416 30.3925 22.4556C30.3675 22.4693 30.3423 22.4831 30.3175 22.4969V22.4972C30.3145 22.4988 30.3114 22.5004 30.3083 22.5023C30.2529 22.5333 30.1979 22.5652 30.1433 22.5979C30.0437 22.6573 29.9451 22.7195 29.8475 22.7834C29.828 22.7963 29.8085 22.809 29.7891 22.8221C29.7521 22.8468 29.7152 22.8718 29.6784 22.8971C29.6767 22.8983 29.675 22.8996 29.6733 22.9007C29.6539 22.9137 29.6347 22.9272 29.6155 22.9406C29.3968 23.0934 29.1828 23.2551 28.9714 23.4209C28.9232 23.4586 28.8748 23.4967 28.827 23.535C28.7824 23.5704 28.7379 23.6059 28.6936 23.6417C28.6829 23.6502 28.6722 23.659 28.6614 23.6675C28.6247 23.6971 28.5881 23.7266 28.5513 23.7565C28.4778 23.816 28.4045 23.8755 28.3314 23.9349C28.2586 23.994 28.1857 24.0531 28.1129 24.1119C28.0758 24.1421 28.0386 24.1721 28.0016 24.2018C27.9285 24.2604 27.8551 24.3189 27.7817 24.3765C27.6995 24.4411 27.617 24.5051 27.5342 24.568C27.5053 24.5902 27.4764 24.612 27.4475 24.6338C27.3067 24.7393 27.1598 24.8332 27.0087 24.9193C26.9937 24.9278 26.9786 24.9364 26.9632 24.9449C26.8723 24.9958 26.7797 25.0441 26.6863 25.0903C26.6553 25.1058 26.624 25.1211 26.5927 25.1362C26.5614 25.1513 26.53 25.1661 26.4984 25.181C26.4827 25.1884 26.4671 25.1956 26.4511 25.203C26.4195 25.2176 26.3879 25.2321 26.3563 25.2466C26.3404 25.2538 26.3245 25.2609 26.3088 25.2683C26.277 25.2825 26.2452 25.2968 26.2134 25.3111C26.0226 25.3962 25.8309 25.4798 25.6418 25.5677C25.6259 25.5751 25.6102 25.5823 25.5945 25.5899C25.5474 25.6122 25.5003 25.6348 25.4536 25.6578C25.438 25.6653 25.4224 25.6731 25.4069 25.6808C25.3759 25.6963 25.345 25.7122 25.3142 25.7281C25.16 25.8081 25.009 25.8939 24.8633 25.9894C24.8342 26.0086 24.8053 26.0282 24.7766 26.048C24.6905 26.1077 24.6065 26.1712 24.5249 26.2395C23.748 26.8886 23.0724 27.6728 22.3288 28.3746C22.243 28.4557 22.1563 28.5356 22.0687 28.6142C21.9808 28.6925 21.8917 28.7697 21.8011 28.845C20.6606 29.7946 19.4123 30.5987 18.0926 31.2343C17.9761 31.2905 17.8591 31.3453 17.7417 31.3986C17.6631 31.4343 17.5846 31.4693 17.5059 31.5037C17.3876 31.5554 17.2688 31.6057 17.1496 31.6546C17.1098 31.6708 17.0701 31.687 17.0302 31.703C16.9504 31.7352 16.8705 31.7665 16.7904 31.7973C16.0292 32.0902 15.2492 32.3279 14.4569 32.5065C14.388 32.522 14.3179 32.5368 14.2472 32.5505C14.2119 32.5572 14.1764 32.5637 14.1407 32.5698C14.0872 32.5788 14.0336 32.5871 13.9797 32.594C13.9437 32.5987 13.9078 32.6028 13.872 32.6064C13.4483 32.648 13.0261 32.6053 12.6892 32.3459C12.6774 32.3368 12.6658 32.3276 12.6546 32.318C12.6461 32.3113 12.6377 32.3042 12.6295 32.2966C12.6244 32.2922 12.6192 32.2878 12.6142 32.2831C12.6129 32.2821 12.6115 32.2809 12.6102 32.2795C12.602 32.2721 12.5937 32.2644 12.5857 32.2567C12.5771 32.2485 12.5686 32.2402 12.5604 32.2316C12.556 32.2272 12.5517 32.2226 12.5472 32.2178C12.5379 32.2082 12.5286 32.1983 12.5196 32.1884C12.5109 32.1788 12.5025 32.1691 12.4943 32.159C12.4926 32.157 12.491 32.1551 12.4895 32.1531C12.4805 32.1425 12.4718 32.1315 12.4633 32.1205C12.4485 32.1013 12.4344 32.0818 12.4208 32.0619C12.4168 32.0559 12.4127 32.0501 12.4087 32.044C12.403 32.0355 12.3974 32.0267 12.3919 32.0177C12.3867 32.0095 12.3817 32.0014 12.3768 31.993C12.3759 31.9914 12.3749 31.9897 12.3739 31.9881C12.3694 31.9806 12.3651 31.973 12.3609 31.9655C12.3555 31.9559 12.3501 31.9462 12.3449 31.9364C12.3423 31.9317 12.3398 31.927 12.3375 31.9221C12.333 31.9142 12.329 31.9062 12.3252 31.8981C12.3212 31.8898 12.3171 31.8814 12.3131 31.8731C12.3055 31.8568 12.2981 31.8405 12.2911 31.8239C12.2909 31.8235 12.2908 31.823 12.2905 31.8227C12.2875 31.8155 12.2846 31.8082 12.2815 31.8009C12.2794 31.7957 12.2773 31.7905 12.2754 31.7852C12.2685 31.7685 12.2622 31.7517 12.2565 31.7345C12.2528 31.7245 12.2493 31.7144 12.2462 31.7043C12.2428 31.6941 12.2395 31.6839 12.2364 31.6738C12.2299 31.6534 12.2238 31.6326 12.2184 31.6119C12.2069 31.5704 12.1971 31.528 12.1889 31.485C12.0719 30.8894 12.216 30.1714 12.4257 29.5779C12.6087 29.0605 12.7412 28.4999 12.7977 27.9353C12.8435 27.4786 12.8393 27.0191 12.7713 26.5778C12.3342 23.7455 11.8964 20.8578 12.2958 18.0191C12.3605 17.5585 12.4514 17.0982 12.5679 16.6444C13.1696 14.3003 14.4626 12.1283 16.4591 10.9994C18.8231 9.66331 21.6954 9.99471 24.3118 10.5989C25.3808 10.8457 26.457 11.1331 27.5366 11.3582C27.7494 11.4027 27.9622 11.4445 28.1752 11.483C28.302 11.5063 28.4289 11.5281 28.5556 11.5487C28.5622 11.5498 28.5686 11.5509 28.5752 11.5517C29.4844 11.6985 30.3952 11.7781 31.3058 11.7285C31.5047 11.7177 31.7037 11.7007 31.9025 11.6769C31.9079 11.6763 31.9131 11.6757 31.9185 11.6749C32.024 11.6622 32.1294 11.6476 32.2348 11.6309C33.4891 11.4323 34.6863 10.9552 35.9007 10.568C37.1154 10.1808 38.3865 9.87961 39.6444 10.0474C40.3451 10.1408 41.0337 10.3972 41.6195 10.82C41.7257 10.8967 41.8936 11.0086 42.0757 11.139C42.4502 11.4069 42.885 11.7531 42.9705 12.0321C43.2974 13.1046 40.8221 14.2456 40.1859 14.738L40.1858 14.7381Z" fill="#BC4644"/>
<path d="M40.1859 14.7381C38.8196 15.7956 38.548 17.2266 37.65 18.63C36.8016 19.9561 35.5306 20.99 34.0727 21.4278C33.1138 21.7158 32.0984 21.766 31.1556 22.1093C29.7468 22.6222 28.6437 23.7383 27.4477 24.6343C26.5466 25.3094 25.3956 25.5129 24.5249 26.24C23.5688 27.0389 22.7661 28.0421 21.8012 28.8454C19.6542 30.6327 17.1258 31.9053 14.4571 32.5071C13.8605 32.6416 13.1834 32.7269 12.6895 32.3466C11.9277 31.7604 12.0948 30.5143 12.4257 29.5783C12.6086 29.0609 12.7413 28.5003 12.7976 27.9356C15.3038 27.3427 17.7989 26.6116 19.9429 25.1358C20.6931 24.6194 21.3928 24.016 22.1833 23.5728C23.3576 22.9146 24.6846 22.6356 25.909 22.0906C27.1335 21.5456 28.3295 20.6204 28.6843 19.2603C30.3873 17.7226 33.3645 19.098 35.3315 17.9714C37.2039 16.8992 37.808 13.9039 39.8801 13.3949C40.3101 13.2891 40.7615 13.3103 41.1899 13.197C41.6182 13.0838 42.0511 12.7802 42.1302 12.3187C42.1941 11.945 42.012 11.5623 42.0674 11.1871C42.0698 11.1709 42.0727 11.1547 42.076 11.139C42.4504 11.4069 42.8854 11.7533 42.9706 12.0323C43.2976 13.1047 40.8224 14.2458 40.1862 14.7381H40.1859Z" fill="#AE1F1D"/>
<path d="M30.1292 22.3104C28.6898 22.7164 27.5155 23.747 26.263 24.5509C25.3192 25.1566 24.1577 25.2733 23.241 25.9335C22.2342 26.6586 21.3668 27.5992 20.3512 28.328C18.091 29.9498 15.4844 31.0295 12.7824 31.4295C12.5893 31.4581 12.3883 31.481 12.1888 31.4853C12.2562 31.829 12.4105 32.132 12.6892 32.3465C13.1832 32.7267 13.8603 32.6414 14.4568 32.5069C17.1255 31.9052 19.6541 30.6326 21.801 28.8453C22.7657 28.0421 23.5686 27.0386 24.5247 26.2399C25.3953 25.5125 26.5463 25.309 27.4475 24.634C28.6407 23.7403 29.7415 22.6273 31.1458 22.1127C30.8031 22.1577 30.4629 22.2161 30.1291 22.3102L30.1292 22.3104Z" fill="#710402"/>
<path d="M36.8383 19.3272C36.3127 20.0355 35.6597 20.6416 34.925 21.0946C36.0231 20.5633 36.9717 19.6901 37.65 18.63C38.1806 17.8007 38.4927 16.9617 38.941 16.196C38.0398 17.0963 37.6476 18.2367 36.8383 19.3272Z" fill="#710402"/>
<path opacity="0.11" d="M38.6735 11.1419C37.6341 11.3295 36.5946 11.5171 35.5552 11.7046C35.3286 11.7455 35.0495 11.8419 35.0251 12.085C35.0067 12.2672 35.1623 12.4266 35.3296 12.4702C35.497 12.5139 35.6721 12.473 35.8415 12.4392C36.7782 12.2529 37.7537 12.291 38.6749 12.5502C39.0312 12.6505 39.3826 12.784 39.7496 12.8199C40.1166 12.8558 40.5136 12.7799 40.7827 12.512C42.135 11.1656 39.2794 11.0326 38.6734 11.1419H38.6735Z" fill="white"/>
<path d="M28.3081 15.5641C27.9398 16.7328 26.7931 17.4639 25.6781 17.974C24.4966 18.5145 23.3954 19.0819 22.3225 19.8023C21.2155 20.5459 20.4112 21.6803 19.4499 22.5919C18.2828 23.6988 16.6642 24.6077 15.1189 24.1606C13.4477 23.677 12.5701 21.7935 12.4456 20.0595C12.364 18.9223 12.5125 17.7836 12.5955 16.645C13.2356 14.3009 14.6115 12.1289 16.7359 11C19.2512 9.66333 22.3076 9.99473 25.0916 10.5989C26.2291 10.8458 27.3741 11.1332 28.5229 11.3582C28.9845 12.6755 28.7375 14.2015 28.3081 15.5641Z" fill="#C45F5A"/>
<path opacity="0.11" d="M16.7278 12.191C15.1906 13.4125 13.9159 15.8009 13.4553 17.7516C13.1314 19.1235 13.1512 23.0468 15.2749 22.9009C15.8751 22.8596 16.3533 22.3048 16.5441 21.6982C16.735 21.0917 16.7018 20.4356 16.6892 19.7963C16.6504 17.8234 16.8974 15.6797 18.1807 14.2542C18.6799 13.6996 20.0502 12.864 19.46 11.9635C18.8461 11.0266 17.3658 11.6839 16.7276 12.1911L16.7278 12.191Z" fill="white"/>
<path d="M16.8372 18.051C16.8784 19.3026 17.1149 20.3659 17.4782 21.1348C17.7102 21.626 17.9941 21.9968 18.3119 22.2198C18.4796 22.3376 18.6567 22.414 18.8407 22.4453C19.288 22.5212 19.6704 22.312 19.8184 22.2309C20.1479 22.0506 20.4227 21.7732 20.6389 21.4201C20.7023 21.3168 20.7606 21.2071 20.8137 21.0914C21.2045 20.2419 21.3209 19.0724 21.1272 17.7959C21.0179 17.8516 20.8844 17.915 20.7288 17.9789C20.2871 18.1604 19.6666 18.3466 18.9107 18.3777C18.2433 18.4051 17.6758 18.3031 17.2516 18.185C17.0925 18.1406 16.9537 18.094 16.8372 18.0511V18.051Z" fill="#840001"/>
<path d="M17.2516 18.185C17.2763 18.3603 17.3257 18.5327 17.3947 18.6958C17.416 18.7463 17.4568 18.786 17.5078 18.8054C18.4828 19.1757 19.6052 19.1379 20.5547 18.707C20.6245 18.6753 20.6719 18.6086 20.6788 18.5323L20.7288 17.9788C20.2871 18.1603 19.6666 18.3465 18.9107 18.3777C18.2433 18.405 17.6758 18.303 17.2516 18.1849V18.185Z" fill="white"/>
<path d="M17.5564 21.1146C17.7775 21.5827 18.0481 21.9363 18.351 22.1488C18.5108 22.261 18.6796 22.3339 18.8551 22.3637C19.2814 22.4361 19.6459 22.2367 19.7871 22.1593C20.1011 21.9875 20.363 21.723 20.5691 21.3865C20.6295 21.2881 20.6851 21.1834 20.7358 21.0731C20.7327 21.0715 20.7296 21.07 20.7265 21.0685C20.7203 21.0655 20.714 21.0625 20.7078 21.0595C20.0813 20.7584 19.3681 20.6452 18.6785 20.7261C18.3692 20.7624 17.8463 20.861 17.5565 21.1145L17.5564 21.1146Z" fill="#F8A198"/>
<path d="M18.2675 21.7104C18.2715 21.8597 18.3063 22.0055 18.351 22.1487C18.5109 22.2609 18.6797 22.3337 18.8551 22.3636C19.2814 22.436 19.6459 22.2365 19.7871 22.1592C20.1011 21.9874 20.363 21.7229 20.5691 21.3863C20.5411 21.3666 20.5133 21.3466 20.485 21.3297C20.3401 21.2444 20.1873 21.1728 20.029 21.1159C19.7196 21.0042 19.3895 20.9485 19.0603 20.9564C18.8662 20.9611 18.662 20.9914 18.5099 21.1119C18.335 21.2506 18.2617 21.4873 18.2677 21.7102L18.2675 21.7104Z" fill="#FFAFAB"/>
<path d="M20.3418 21.4125C20.259 21.6773 20.0774 21.9037 19.8345 22.0388C19.7272 22.0985 19.6309 21.934 19.7383 21.8744C19.9381 21.7632 20.0897 21.5804 20.1579 21.362C20.1944 21.2454 20.3786 21.2951 20.3418 21.4127V21.4125Z" fill="white"/>
<path d="M19.5158 22.1915C19.3931 22.1915 19.3929 22.001 19.5158 22.001C19.6387 22.001 19.6387 22.1915 19.5158 22.1915Z" fill="white"/>
<path d="M22.0082 16.6573C22.1234 16.2538 21.8854 15.8206 21.5441 15.6001C21.3048 15.4404 20.9856 15.3827 20.7055 15.4488C20.3671 15.5237 20.0599 15.7592 19.941 16.0861C19.919 16.1485 19.9042 16.2127 19.9015 16.2781C19.9937 16.1966 20.0865 16.1259 20.1898 16.0671C20.6449 15.8054 21.1663 15.8 21.5823 16.1354C21.7583 16.271 21.9038 16.4552 22.0082 16.6575V16.6573Z" fill="black"/>
<path d="M15.7986 16.6573C15.6834 16.2538 15.9214 15.8206 16.2627 15.6001C16.502 15.4404 16.8212 15.3827 17.1013 15.4488C17.4397 15.5237 17.7469 15.7592 17.8658 16.0861C17.8878 16.1485 17.9027 16.2127 17.9053 16.2781C17.8131 16.1966 17.7203 16.1259 17.617 16.0671C17.1619 15.8054 16.6405 15.8 16.2245 16.1354C16.0485 16.271 15.903 16.4552 15.7986 16.6575V16.6573Z" fill="black"/>
<path d="M22.5188 18.8741C23.035 18.8741 23.4536 18.5668 23.4536 18.1878C23.4536 17.8087 23.035 17.5015 22.5188 17.5015C22.0025 17.5015 21.584 17.8087 21.584 18.1878C21.584 18.5668 22.0025 18.8741 22.5188 18.8741Z" fill="#FC8B88"/>
<path d="M15.5143 18.8741C16.0306 18.8741 16.4491 18.5668 16.4491 18.1878C16.4491 17.8087 16.0306 17.5015 15.5143 17.5015C14.998 17.5015 14.5795 17.8087 14.5795 18.1878C14.5795 18.5668 14.998 18.8741 15.5143 18.8741Z" fill="#FC8B88"/>
<path d="M22.0021 14.9741C21.9615 14.8877 21.9125 14.8055 21.8562 14.7284C21.8493 14.7191 21.8422 14.7098 21.8353 14.7005C21.8562 14.7289 21.8314 14.696 21.827 14.6904C21.8108 14.6705 21.7942 14.6511 21.7771 14.632C21.746 14.5974 21.7133 14.5642 21.6792 14.5325C21.6622 14.5166 21.6448 14.5011 21.627 14.486C21.6181 14.4784 21.6092 14.4711 21.6002 14.4637C21.5966 14.4608 21.593 14.4578 21.5893 14.4549C21.5867 14.4528 21.5631 14.4344 21.5788 14.4465C21.5943 14.4583 21.5756 14.4442 21.5735 14.4426C21.5698 14.4398 21.5661 14.437 21.5623 14.4343C21.5529 14.4274 21.5435 14.4206 21.534 14.4139C21.513 14.3991 21.4917 14.3848 21.4701 14.3712C21.4307 14.3462 21.3904 14.323 21.3489 14.3017C21.3282 14.291 21.3074 14.2807 21.2862 14.271C21.2756 14.2661 21.265 14.2615 21.2543 14.2568C21.2323 14.2469 21.2737 14.2646 21.2588 14.2586C21.2513 14.2556 21.2437 14.2524 21.2362 14.2494C21.1366 14.2098 21.033 14.1812 20.9273 14.1639C20.8689 14.1543 20.8311 14.0788 20.8485 14.0251C20.869 13.962 20.9247 13.9361 20.9873 13.9464C21.3928 14.0131 21.7667 14.2462 22.0171 14.5699C22.0871 14.6606 22.1482 14.7567 22.197 14.8604C22.222 14.9136 22.2136 14.9845 22.1565 15.0147C22.1064 15.0411 22.0289 15.0312 22.0021 14.9742V14.9741Z" fill="black"/>
<path d="M15.6795 14.9741C15.7202 14.8877 15.769 14.8055 15.8253 14.7284C15.8322 14.7191 15.8394 14.7098 15.8463 14.7005C15.8253 14.7289 15.8501 14.696 15.8546 14.6904C15.8707 14.6705 15.8873 14.6511 15.9044 14.632C15.9356 14.5974 15.9682 14.5642 16.0023 14.5325C16.0194 14.5166 16.0367 14.5011 16.0545 14.486C16.0634 14.4784 16.0723 14.4711 16.0813 14.4637C16.0849 14.4608 16.0886 14.4578 16.0922 14.4549C16.0949 14.4528 16.1184 14.4344 16.1027 14.4465C16.0873 14.4583 16.1059 14.4442 16.108 14.4426C16.1117 14.4398 16.1155 14.437 16.1192 14.4343C16.1286 14.4274 16.1381 14.4206 16.1476 14.4139C16.1685 14.3991 16.1898 14.3848 16.2115 14.3712C16.2508 14.3462 16.2912 14.323 16.3326 14.3017C16.3533 14.291 16.3742 14.2807 16.3954 14.271C16.4059 14.2661 16.4165 14.2615 16.4272 14.2568C16.4492 14.2469 16.4079 14.2646 16.4227 14.2586C16.4302 14.2556 16.4378 14.2524 16.4453 14.2494C16.545 14.2098 16.6485 14.1812 16.7542 14.1639C16.8127 14.1543 16.8505 14.0788 16.833 14.0251C16.8125 13.962 16.7568 13.9361 16.6942 13.9464C16.2887 14.0131 15.9149 14.2462 15.6645 14.5699C15.5945 14.6606 15.5334 14.7567 15.4846 14.8604C15.4595 14.9136 15.4679 14.9845 15.5251 15.0147C15.5752 15.0411 15.6527 15.0312 15.6795 14.9742V14.9741Z" fill="black"/>
<path d="M25.031 11.5555C24.9196 12.017 25.376 12.3782 25.6996 12.7078C26.1757 13.1932 26.4453 13.8718 26.5683 14.5609C26.8356 16.0576 26.5768 17.6047 26.6372 19.117C26.7005 20.7045 26.9369 22.2842 27.3426 23.8134C27.4109 24.0707 27.5587 24.3835 27.8086 24.3552C27.9614 24.3379 28.0746 24.1832 28.1048 24.023C28.135 23.8628 28.1006 23.6978 28.0665 23.5384C27.7604 22.1108 27.4267 20.6473 27.3856 19.177C27.3346 17.3539 27.3344 15.175 28.5509 13.7314C28.8876 13.3317 29.527 12.88 29.6636 12.3361C29.7977 11.8017 29.224 11.4786 28.8265 11.3465C28.0886 11.1011 27.3108 10.9925 26.5384 11.0252C26.069 11.0451 25.1912 10.8918 25.0311 11.5555H25.031Z" fill="#F09117"/>
<path d="M27.7066 24.0547C27.3008 22.5254 27.0645 20.9456 27.0011 19.3582C26.9407 17.8458 27.1996 16.2989 26.9322 14.8021C26.8092 14.113 26.5397 13.4344 26.0635 12.9491C25.7401 12.6194 25.2836 12.2582 25.3949 11.7967C25.555 11.133 26.4327 11.2863 26.9022 11.2664C27.6746 11.2338 28.4524 11.3424 29.1903 11.5877C29.2704 11.6143 29.3576 11.6488 29.4448 11.6911C29.2684 11.5267 29.0254 11.4127 28.8264 11.3465C28.0885 11.1011 27.3107 10.9925 26.5382 11.0252C26.0689 11.0451 25.1911 10.8918 25.031 11.5555C24.9196 12.017 25.376 12.3782 25.6996 12.7078C26.1757 13.1932 26.4453 13.8718 26.5683 14.5609C26.8356 16.0576 26.5768 17.6047 26.6372 19.117C26.7005 20.7045 26.9369 22.2842 27.3426 23.8134C27.4109 24.0707 27.5587 24.3835 27.8086 24.3552C27.8131 24.3547 27.8174 24.3537 27.8217 24.353C27.7708 24.2603 27.7328 24.1534 27.7067 24.0547H27.7066Z" fill="#F6BD74"/>
<path d="M28.6823 12.19C29.0976 11.9551 28.5747 11.5771 28.3364 11.4817C28.1234 11.3963 27.8945 11.3683 27.6684 11.3411C27.3274 11.2999 26.9863 11.2587 26.6453 11.2175C26.4074 11.1888 26.163 11.1604 25.9312 11.2247C25.6994 11.2888 25.4796 11.467 25.429 11.716C25.3367 12.1706 25.8433 12.2709 26.0946 12.4821C26.2225 12.5896 26.2925 12.755 26.392 12.8923C26.4915 13.0296 26.6538 13.1476 26.8091 13.0949C26.9724 13.0397 27.0344 12.8364 27.1189 12.678C27.2845 12.3677 27.6212 12.1702 27.9563 12.1869C28.0792 12.193 28.1997 12.2255 28.3219 12.2405C28.4441 12.2556 28.5737 12.2516 28.6823 12.1902V12.19Z" fill="#F6BD74"/>
<path d="M31.9683 15.241C31.8691 14.132 31.0537 13.1478 30.0456 12.7109C29.706 12.5648 29.3403 12.4774 28.976 12.4778C29.3234 12.5841 29.6506 12.7201 29.9555 12.8929C30.8803 13.4127 31.5871 14.2488 31.9684 15.241H31.9683Z" fill="#FC8B88"/>
<path d="M32.3778 14.3393C32.1159 13.244 31.1023 12.3087 29.9878 12.1382C30.9918 12.6847 31.7521 13.3831 32.3778 14.3393Z" fill="#FC8B88"/>
<path d="M32.46 13.211C32.3678 12.5376 31.6797 11.936 30.9989 11.9373C31.2762 12.1265 31.5335 12.2995 31.7798 12.5165C32.0286 12.7305 32.2351 12.9619 32.46 13.211Z" fill="#FC8B88"/>
<path d="M25.3582 18.6745C25.7775 18.4787 26.2339 18.3625 26.6958 18.3338C26.5726 17.7039 26.9333 17.0123 27.5204 16.7523C28.1076 16.4922 28.8624 16.6897 29.2468 17.2039C29.6016 17.1083 29.9559 16.9482 30.2254 16.6984C29.6729 16.1981 29.3882 15.4182 29.4884 14.68C29.0326 14.8322 28.4325 14.5099 28.3187 14.0434C28.205 13.5768 28.6679 13.0501 29.136 13.1589C29.4184 13.2245 29.6201 13.4661 29.8001 13.6934C30.0984 14.0702 30.3967 14.447 30.6949 14.8236C31.1035 15.3399 31.5339 15.9203 31.4989 16.5776C31.4747 17.0342 31.2201 17.454 30.8901 17.7706C30.5602 18.0872 30.1572 18.3154 29.7588 18.5403C28.2158 19.4113 26.673 20.2822 25.13 21.1532C24.9993 20.3422 25.1578 19.4708 25.3585 18.6742L25.3582 18.6745Z" fill="#840001"/>
<g opacity="0.44">
<path d="M27.4338 17.1492C26.9956 17.4437 26.8216 18.0326 27.0104 18.5214C27.0595 18.6485 26.8555 18.7059 26.8067 18.5796C26.5832 18.0013 26.812 17.3121 27.3234 16.9683C27.4369 16.892 27.5465 17.0733 27.4337 17.1492H27.4338Z" fill="white"/>
</g>
<g opacity="0.44">
<path d="M28.5912 13.7084C28.5466 13.9211 28.633 14.1574 28.8189 14.2772C28.9961 14.3914 29.2269 14.3852 29.4044 14.2769C29.521 14.2057 29.631 14.3867 29.5147 14.4577C29.265 14.6101 28.9347 14.6127 28.6907 14.4453C28.437 14.2713 28.3238 13.9528 28.386 13.6557C28.414 13.5222 28.6193 13.5749 28.5913 13.7082L28.5912 13.7084Z" fill="white"/>
</g>
<g opacity="0.44">
<path d="M29.8273 13.914C30.22 14.4182 30.6367 14.9114 31.0032 15.435C31.3076 15.8699 31.5235 16.4372 31.2572 16.9441C31.1937 17.0649 31.0086 16.9619 31.0721 16.8413C31.3309 16.3488 31.0245 15.8119 30.7289 15.4166C30.3769 14.9461 30.0075 14.4878 29.6464 14.0242C29.5627 13.9167 29.7446 13.8077 29.8273 13.914Z" fill="white"/>
</g>
</g>
<defs>
<clipPath id="clip0_179_39">
<rect width="38" height="28" fill="white" transform="translate(5 10)"/>
</clipPath>
</defs>
</svg>
