<svg width="327" height="84" viewBox="0 0 327 84" fill="none" xmlns="http://www.w3.org/2000/svg">
<path d="M315.949 9.97852H279.658V74.0214H315.949V9.97852Z" fill="#BC8365"/>
<path d="M279.325 9.97852H243.034V74.0214H279.325V9.97852Z" fill="#D49069"/>
<path d="M242.698 9.97852H206.407V74.0214H242.698V9.97852Z" fill="#E0B99A"/>
<path d="M206.074 9.97852H169.783V74.0214H206.074V9.97852Z" fill="#E1C2A3"/>
<path d="M11.0513 28.0728H21.924C28.7002 28.0728 35.2765 31.3626 35.2765 39.5084C35.2765 47.6543 28.7002 51.2985 21.924 51.2985H16.3105V63.4946H11.0513V28.0728ZM21.924 46.0336C26.4748 46.0336 29.9143 43.807 29.9143 39.5054C29.9143 35.2038 26.4748 33.3317 21.924 33.3317H16.3105V46.0336H21.924Z" fill="#F4DCC4"/>
<path d="M48.4232 28.0728H54.6453L69.8174 63.4946H63.6468L59.7016 53.8311H43.3668L39.4216 63.4946H33.251L48.4232 28.0728ZM57.5792 48.5661L51.5599 33.6376L45.4923 48.5661H57.5792Z" fill="#F4DCC4"/>
<path d="M78.6674 33.3347H68.3003V28.0728H94.2968V33.3347H83.9297V63.4916H78.6704V33.3347H78.6674Z" fill="#F4DCC4"/>
<path d="M96.3164 45.7821C96.3164 35.7641 104.458 27.6667 114.423 27.6667C120.844 27.6667 126.509 31.0566 129.746 36.1155L125.347 39.0509C123.07 35.3582 119.025 32.9287 114.423 32.9287C107.341 32.9287 101.576 38.6965 101.576 45.7821C101.576 52.8677 107.341 58.6355 114.423 58.6355C119.025 58.6355 123.07 56.1545 125.347 52.4617L129.746 55.3971C126.509 60.4561 120.844 63.8974 114.423 63.8974C104.458 63.8974 96.3164 55.7516 96.3164 45.7821Z" fill="#F4DCC4"/>
<path d="M134.8 28.0728H140.059V42.7468H160.188V28.0728H165.447V63.4946H160.188V48.0117H140.059V63.4946H134.8V28.0728Z" fill="#F4DCC4"/>
<g filter="url(#filter0_d_965_69)">
<path d="M179.502 30.8537C179.502 30.3206 179.929 29.7874 180.513 29.7874C181.046 29.7874 185.2 30.6932 185.2 40.8686C185.2 43.5859 184.507 51.9499 184.507 51.9499C188.712 40.2295 195.582 25.5251 202.985 25.5251C206.552 25.5251 207.884 27.9759 207.884 31.1203C207.884 34.2647 205.752 41.8835 204.208 47.4756C203.463 50.0869 203.249 50.4049 202.825 52.2165C206.179 44.9703 211.451 36.3913 216.671 36.3913C219.759 36.3913 221.037 38.3634 221.037 41.1322C221.037 46.0336 218.321 51.2562 218.321 56.6878C218.321 59.7777 219.547 60.95 219.547 60.95C219.868 61.2711 220.025 61.4832 220.025 61.8012C220.025 62.3344 219.441 62.813 218.908 62.813C218.642 62.813 218.324 62.5465 218.163 62.4404C217.897 62.2284 216.032 60.5229 216.032 56.7938C216.032 51.4652 218.802 45.6065 218.802 40.9686C218.802 39.3691 217.951 38.4634 216.565 38.4634C211.611 38.4634 206.073 48.7994 201.441 60.3078C200.696 62.1193 200.642 62.4404 199.736 62.4404C198.991 62.4404 198.671 61.8012 198.671 61.1621C198.671 59.6716 199.255 56.4727 200.054 53.5978C203.463 41.7169 205.592 34.5768 205.592 31.1142C205.592 28.8241 204.687 27.7032 202.822 27.7032C197.072 27.7032 189.242 45.2854 185.197 56.6878C183.28 62.0678 182.426 66.1726 182.426 66.1726C182.266 66.7057 181.894 66.9178 181.415 66.9178C180.831 66.9178 180.192 66.4391 180.137 65.8514C180.137 65.5849 180.192 65.3728 180.243 65.2123C180.722 62.7615 182.905 51.3077 182.905 40.8656C182.905 32.9803 180.561 31.914 180.028 31.6474C179.55 31.3808 179.496 31.1688 179.496 30.8477L179.502 30.8537Z" fill="white" stroke="white" stroke-width="1.66" stroke-miterlimit="10"/>
<path d="M226.626 64.364C224.815 64.364 223.165 63.0311 223.165 60.1018C223.165 52.9102 229.875 45.6641 235.306 45.6641C237.435 45.6641 238.449 46.7819 238.501 47.6361C238.979 47.6361 239.567 47.9027 239.567 48.7025C239.567 49.7143 238.128 52.4861 238.128 55.2034C238.128 57.3875 238.661 58.881 239.884 58.881C241.961 58.881 244.571 53.8735 244.571 53.8735C244.838 53.4464 245.104 53.1283 245.477 53.1283C245.904 53.1283 246.222 53.3949 246.222 53.8735C246.222 54.1401 245.955 54.6733 245.955 54.6733C245.955 54.6733 242.973 60.8016 239.567 60.8016C235.573 60.8016 236.157 55.6881 235.627 55.6881C234.989 55.6881 230.834 64.3731 226.629 64.3731L226.626 64.364ZM234.08 53.7614C235.197 51.7378 236.157 48.9145 237.063 48.5389C237.063 48.0603 236.263 47.6331 235.306 47.6331C231.74 47.6331 225.56 54.134 225.56 60.3139C225.56 61.6468 226.038 62.498 227.104 62.498C229.021 62.498 231.419 58.5568 234.08 53.7614Z" fill="white" stroke="white" stroke-width="1.66" stroke-miterlimit="10"/>
<path d="M246.01 57.333C248.353 52.5376 251.442 47.3695 254.636 47.3695C256.874 47.3695 257.724 49.075 257.991 51.8438C258.736 59.4626 259.108 61.5407 261.4 61.5407C264.061 61.5407 265.927 55.894 266.565 54.1885C266.886 53.2828 267.259 52.9617 267.737 52.9617C268.216 52.9617 268.642 53.2828 268.642 53.8674C268.642 54.0795 268.482 54.5611 268.322 55.0398C267.949 56.0516 265.288 63.6188 260.546 63.6188C257.085 63.6188 256.392 60.1563 255.699 52.4315C255.538 50.62 255.272 49.075 254.367 49.075C252.129 49.075 248.829 55.2003 246.806 59.5716C245.634 62.1284 245.316 63.1402 245.102 64.155C244.941 64.9002 244.569 65.2213 243.824 65.2213C243.024 65.2213 242.707 64.6882 242.707 63.9975C242.707 63.3583 243.028 62.6131 243.291 61.4922C244.623 55.4184 244.463 53.0222 244.463 50.8896C244.463 49.3447 244.196 48.5994 244.036 48.1178C243.981 47.9572 243.875 47.6906 243.875 47.4786C243.875 46.9454 244.354 46.4668 245.047 46.4668C245.525 46.4668 245.952 46.8394 246.164 47.3726C246.325 47.7452 246.643 49.0781 246.643 50.9956C246.643 52.1134 246.482 53.6069 246.27 55.3639C246.216 56.0031 246.058 56.6968 246.004 57.336L246.01 57.333Z" fill="white" stroke="white" stroke-width="1.66" stroke-miterlimit="10"/>
<path d="M270.344 34.1558C270.929 34.1558 271.571 34.4769 271.462 35.1161C271.195 36.7155 270.823 38.3665 270.556 39.9115C270.184 41.9351 269.757 44.0132 269.439 46.1973C271.834 45.5581 274.338 44.5978 276.469 44.5978C279.824 44.5978 280.89 47.0485 280.996 53.6555C282.646 48.2209 285.895 44.7039 289.144 44.7039C290.9 44.7039 292.126 45.8762 292.126 46.888C292.126 47.4212 291.487 47.7938 291.115 47.7938C290.53 47.7938 290.155 46.6214 288.877 46.6214C286.906 46.6214 284.296 49.5508 282.54 54.6128C281.208 58.3964 280.463 63.0827 280.409 63.5099C280.303 64.149 279.824 64.4702 279.291 64.4702C278.758 64.4702 278.28 64.0976 278.28 63.2463C278.28 63.0343 278.335 62.3405 278.441 61.6468C278.601 59.9959 278.867 57.224 278.867 55.0944C278.867 48.1149 277.802 46.4639 276.046 46.4639C273.969 46.4639 271.519 47.4757 269.176 48.1149C268.909 50.3535 268.749 52.6437 268.749 55.0399C268.749 63.2463 271.731 66.4937 271.731 66.4937C272.103 66.9724 272.37 67.345 272.37 67.7176C272.37 68.1962 271.891 68.6234 271.41 68.6234C270.826 68.6234 270.559 68.3022 270.026 67.6631C268.8 66.1181 266.511 62.2285 266.511 55.1429C266.511 52.9587 266.672 50.7746 266.884 48.642C266.511 48.6965 266.139 48.6965 265.766 48.6965C263.317 48.6965 262.039 47.5241 262.039 46.8335C262.039 46.2488 262.466 45.8217 262.999 45.8217C264.01 45.8217 264.065 46.782 265.769 46.782C266.196 46.782 266.675 46.7274 267.101 46.6759C267.634 42.4137 268.54 38.3635 269.339 34.8495C269.445 34.4223 269.872 34.1558 270.35 34.1558H270.344Z" fill="white" stroke="white" stroke-width="1.66" stroke-miterlimit="10"/>
<path d="M294.945 64.364C293.134 64.364 291.484 63.0311 291.484 60.1018C291.484 52.9102 298.193 45.6641 303.625 45.6641C305.757 45.6641 306.768 46.7819 306.82 47.6361C307.298 47.6361 307.885 47.9027 307.885 48.7025C307.885 49.7143 306.447 52.4861 306.447 55.2034C306.447 57.3875 306.98 58.881 308.203 58.881C310.28 58.881 312.89 53.8735 312.89 53.8735C313.157 53.4464 313.423 53.1283 313.796 53.1283C314.222 53.1283 314.54 53.3949 314.54 53.8735C314.54 54.1401 314.274 54.6733 314.274 54.6733C314.274 54.6733 311.292 60.8016 307.882 60.8016C303.889 60.8016 304.473 55.6881 303.943 55.6881C303.304 55.6881 299.15 64.3731 294.945 64.3731V64.364ZM302.399 53.7614C303.516 51.7378 304.476 48.9145 305.381 48.5389C305.381 48.0603 304.582 47.6331 303.625 47.6331C300.059 47.6331 293.882 54.134 293.882 60.3139C293.882 61.6468 294.36 62.498 295.426 62.498C297.343 62.498 299.741 58.5568 302.402 53.7614H302.399Z" fill="white" stroke="white" stroke-width="1.66" stroke-miterlimit="10"/>
</g>
<defs>
<filter id="filter0_d_965_69" x="178.666" y="24.6951" width="143.355" height="51.4083" filterUnits="userSpaceOnUse" color-interpolation-filters="sRGB">
<feFlood flood-opacity="0" result="BackgroundImageFix"/>
<feColorMatrix in="SourceAlpha" type="matrix" values="0 0 0 0 0 0 0 0 0 0 0 0 0 0 0 0 0 0 127 0" result="hardAlpha"/>
<feOffset dx="3.33" dy="3.33"/>
<feGaussianBlur stdDeviation="1.66"/>
<feColorMatrix type="matrix" values="0 0 0 0 0.176471 0 0 0 0 0.0352941 0 0 0 0 0.0352941 0 0 0 0.3 0"/>
<feBlend mode="normal" in2="BackgroundImageFix" result="effect1_dropShadow_965_69"/>
<feBlend mode="normal" in="SourceGraphic" in2="effect1_dropShadow_965_69" result="shape"/>
</filter>
</defs>
</svg>
