<svg width="214" height="32" viewBox="0 0 214 32" fill="none" xmlns="http://www.w3.org/2000/svg">
<path d="M4.258 31.378C3.194 31.378 2.382 31.084 1.822 30.496C1.262 29.908 0.982 29.082 0.982 28.018V4.708C0.982 3.616 1.262 2.79 1.822 2.23C2.41 1.67 3.236 1.39 4.3 1.39H14.506C17.81 1.39 20.358 2.23 22.15 3.91C23.942 5.562 24.838 7.872 24.838 10.84C24.838 13.808 23.942 16.132 22.15 17.812C20.358 19.492 17.81 20.332 14.506 20.332H7.492V28.018C7.492 29.082 7.212 29.908 6.652 30.496C6.12 31.084 5.322 31.378 4.258 31.378ZM7.492 15.292H13.414C15.094 15.292 16.368 14.914 17.236 14.158C18.132 13.402 18.58 12.296 18.58 10.84C18.58 9.384 18.132 8.292 17.236 7.564C16.368 6.836 15.094 6.472 13.414 6.472H7.492V15.292ZM34.3553 31.462C32.8433 31.462 31.4853 31.168 30.2813 30.58C29.0773 29.992 28.1393 29.194 27.4673 28.186C26.7953 27.178 26.4593 26.044 26.4593 24.784C26.4593 23.272 26.8513 22.082 27.6353 21.214C28.4193 20.318 29.6933 19.688 31.4573 19.324C33.2213 18.932 35.5593 18.736 38.4713 18.736H40.6973V22.012H38.5133C37.0853 22.012 35.9233 22.096 35.0273 22.264C34.1593 22.404 33.5293 22.656 33.1373 23.02C32.7733 23.384 32.5913 23.888 32.5913 24.532C32.5913 25.316 32.8573 25.96 33.3893 26.464C33.9493 26.968 34.7473 27.22 35.7833 27.22C36.5953 27.22 37.3093 27.038 37.9253 26.674C38.5693 26.282 39.0733 25.764 39.4373 25.12C39.8013 24.448 39.9833 23.692 39.9833 22.852V18.022C39.9833 16.79 39.7033 15.922 39.1433 15.418C38.5833 14.886 37.6313 14.62 36.2873 14.62C35.5313 14.62 34.7053 14.718 33.8093 14.914C32.9413 15.082 31.9753 15.376 30.9113 15.796C30.2953 16.076 29.7493 16.146 29.2733 16.006C28.7973 15.838 28.4333 15.558 28.1813 15.166C27.9293 14.746 27.8033 14.298 27.8033 13.822C27.8033 13.318 27.9433 12.842 28.2233 12.394C28.5033 11.918 28.9653 11.568 29.6093 11.344C30.9253 10.812 32.1573 10.448 33.3053 10.252C34.4813 10.056 35.5593 9.958 36.5393 9.958C38.6953 9.958 40.4593 10.28 41.8313 10.924C43.2313 11.54 44.2813 12.506 44.9813 13.822C45.6813 15.11 46.0313 16.776 46.0313 18.82V28.144C46.0313 29.18 45.7793 29.978 45.2753 30.538C44.7713 31.098 44.0433 31.378 43.0913 31.378C42.1393 31.378 41.3973 31.098 40.8653 30.538C40.3613 29.978 40.1093 29.18 40.1093 28.144V26.59L40.4033 26.842C40.2353 27.794 39.8713 28.62 39.3113 29.32C38.7793 29.992 38.0933 30.524 37.2533 30.916C36.4133 31.28 35.4473 31.462 34.3553 31.462ZM60.8842 31.462C58.9522 31.462 57.3282 31.14 56.0122 30.496C54.7242 29.852 53.7582 28.914 53.1142 27.682C52.4982 26.45 52.1902 24.896 52.1902 23.02V15.124H50.4262C49.6422 15.124 49.0262 14.914 48.5782 14.494C48.1582 14.074 47.9482 13.5 47.9482 12.772C47.9482 11.988 48.1582 11.4 48.5782 11.008C49.0262 10.588 49.6422 10.378 50.4262 10.378H52.1902V7.186C52.1902 6.122 52.4702 5.324 53.0302 4.792C53.5902 4.232 54.3742 3.952 55.3822 3.952C56.4182 3.952 57.2022 4.232 57.7342 4.792C58.2662 5.324 58.5322 6.122 58.5322 7.186V10.378H62.5222C63.3062 10.378 63.9082 10.588 64.3282 11.008C64.7482 11.4 64.9582 11.988 64.9582 12.772C64.9582 13.5 64.7482 14.074 64.3282 14.494C63.9082 14.914 63.3062 15.124 62.5222 15.124H58.5322V22.768C58.5322 23.944 58.7982 24.826 59.3302 25.414C59.8902 26.002 60.7722 26.296 61.9762 26.296C62.3962 26.296 62.7882 26.254 63.1522 26.17C63.5162 26.086 63.8522 26.03 64.1602 26.002C64.5522 25.974 64.8742 26.1 65.1262 26.38C65.3782 26.632 65.5042 27.206 65.5042 28.102C65.5042 28.774 65.3922 29.362 65.1682 29.866C64.9442 30.37 64.5522 30.734 63.9922 30.958C63.6282 31.098 63.1242 31.21 62.4802 31.294C61.8642 31.406 61.3322 31.462 60.8842 31.462ZM77.5756 31.462C75.3356 31.462 73.3756 31.028 71.6956 30.16C70.0436 29.264 68.7696 28.004 67.8736 26.38C66.9776 24.756 66.5296 22.838 66.5296 20.626C66.5296 18.974 66.7816 17.49 67.2856 16.174C67.7896 14.858 68.5176 13.738 69.4696 12.814C70.4496 11.89 71.6256 11.19 72.9976 10.714C74.3696 10.21 75.8956 9.958 77.5756 9.958C78.4436 9.958 79.3676 10.07 80.3476 10.294C81.3276 10.49 82.2936 10.84 83.2456 11.344C83.8056 11.596 84.1836 11.96 84.3796 12.436C84.6036 12.884 84.6876 13.36 84.6316 13.864C84.5756 14.34 84.3936 14.774 84.0856 15.166C83.8056 15.53 83.4416 15.782 82.9936 15.922C82.5456 16.034 82.0416 15.95 81.4816 15.67C80.9496 15.362 80.3896 15.138 79.8016 14.998C79.2416 14.858 78.7096 14.788 78.2056 14.788C77.3656 14.788 76.6236 14.928 75.9796 15.208C75.3356 15.46 74.7896 15.838 74.3416 16.342C73.9216 16.818 73.5856 17.42 73.3336 18.148C73.1096 18.876 72.9976 19.716 72.9976 20.668C72.9976 22.516 73.4456 23.972 74.3416 25.036C75.2656 26.072 76.5536 26.59 78.2056 26.59C78.7096 26.59 79.2416 26.534 79.8016 26.422C80.3616 26.282 80.9216 26.058 81.4816 25.75C82.0416 25.47 82.5456 25.4 82.9936 25.54C83.4416 25.68 83.7916 25.946 84.0436 26.338C84.3236 26.702 84.4776 27.136 84.5056 27.64C84.5616 28.116 84.4776 28.592 84.2536 29.068C84.0576 29.516 83.6936 29.866 83.1616 30.118C82.2096 30.594 81.2576 30.93 80.3056 31.126C79.3536 31.35 78.4436 31.462 77.5756 31.462ZM90.7862 31.378C89.7502 31.378 88.9522 31.098 88.3922 30.538C87.8602 29.978 87.5942 29.18 87.5942 28.144V4.246C87.5942 3.182 87.8602 2.384 88.3922 1.852C88.9522 1.292 89.7502 1.012 90.7862 1.012C91.7942 1.012 92.5642 1.292 93.0962 1.852C93.6562 2.384 93.9362 3.182 93.9362 4.246V14.242H93.3482C93.9922 12.87 94.9442 11.82 96.2042 11.092C97.4922 10.336 98.9482 9.958 100.572 9.958C102.224 9.958 103.582 10.28 104.646 10.924C105.71 11.54 106.508 12.492 107.04 13.78C107.572 15.04 107.838 16.65 107.838 18.61V28.144C107.838 29.18 107.558 29.978 106.998 30.538C106.466 31.098 105.682 31.378 104.646 31.378C103.638 31.378 102.854 31.098 102.294 30.538C101.762 29.978 101.496 29.18 101.496 28.144V18.904C101.496 17.476 101.23 16.454 100.698 15.838C100.194 15.194 99.4102 14.872 98.3462 14.872C97.0022 14.872 95.9242 15.292 95.1122 16.132C94.3282 16.972 93.9362 18.092 93.9362 19.492V28.144C93.9362 30.3 92.8862 31.378 90.7862 31.378ZM139.213 31.462C136.021 31.462 133.291 30.832 131.023 29.572C128.755 28.312 127.005 26.548 125.773 24.28C124.569 21.984 123.967 19.282 123.967 16.174C123.967 13.85 124.303 11.764 124.975 9.916C125.675 8.04 126.683 6.444 127.999 5.128C129.315 3.784 130.911 2.748 132.787 2.02C134.691 1.292 136.833 0.927999 139.213 0.927999C140.613 0.927999 142.027 1.11 143.455 1.474C144.911 1.81 146.171 2.3 147.235 2.944C147.935 3.336 148.411 3.826 148.663 4.414C148.915 5.002 148.985 5.59 148.873 6.178C148.789 6.766 148.551 7.27 148.159 7.69C147.795 8.11 147.333 8.376 146.773 8.488C146.213 8.6 145.583 8.474 144.883 8.11C144.043 7.606 143.161 7.242 142.237 7.018C141.313 6.794 140.375 6.682 139.423 6.682C137.547 6.682 135.965 7.06 134.677 7.816C133.417 8.544 132.465 9.608 131.821 11.008C131.177 12.408 130.855 14.13 130.855 16.174C130.855 18.19 131.177 19.912 131.821 21.34C132.465 22.768 133.417 23.86 134.677 24.616C135.965 25.344 137.547 25.708 139.423 25.708C140.319 25.708 141.229 25.596 142.153 25.372C143.105 25.148 144.015 24.798 144.883 24.322C145.611 23.958 146.255 23.832 146.815 23.944C147.403 24.028 147.879 24.28 148.243 24.7C148.635 25.092 148.873 25.568 148.957 26.128C149.069 26.688 149.013 27.248 148.789 27.808C148.565 28.368 148.145 28.844 147.529 29.236C146.493 29.936 145.219 30.482 143.707 30.874C142.195 31.266 140.697 31.462 139.213 31.462ZM160.042 31.462C158.306 31.462 156.864 31.14 155.716 30.496C154.568 29.852 153.714 28.886 153.154 27.598C152.622 26.282 152.356 24.658 152.356 22.726V13.234C152.356 12.17 152.622 11.372 153.154 10.84C153.714 10.308 154.498 10.042 155.506 10.042C156.514 10.042 157.298 10.308 157.858 10.84C158.418 11.372 158.698 12.17 158.698 13.234V22.894C158.698 24.126 158.95 25.05 159.454 25.666C159.958 26.254 160.756 26.548 161.848 26.548C163.052 26.548 164.032 26.128 164.788 25.288C165.572 24.42 165.964 23.286 165.964 21.886V13.234C165.964 12.17 166.23 11.372 166.762 10.84C167.322 10.308 168.106 10.042 169.114 10.042C170.15 10.042 170.934 10.308 171.466 10.84C172.026 11.372 172.306 12.17 172.306 13.234V28.144C172.306 30.3 171.284 31.378 169.24 31.378C168.232 31.378 167.462 31.098 166.93 30.538C166.398 29.978 166.132 29.18 166.132 28.144V25.33L166.762 26.968C166.146 28.396 165.264 29.502 164.116 30.286C162.968 31.07 161.61 31.462 160.042 31.462ZM180.489 31.378C179.425 31.378 178.613 31.098 178.053 30.538C177.493 29.978 177.213 29.18 177.213 28.144V13.234C177.213 12.198 177.479 11.414 178.011 10.882C178.571 10.322 179.341 10.042 180.321 10.042C181.329 10.042 182.099 10.322 182.631 10.882C183.163 11.414 183.429 12.198 183.429 13.234V15.418H183.009C183.345 13.738 184.087 12.436 185.235 11.512C186.383 10.588 187.867 10.07 189.687 9.958C190.387 9.902 190.919 10.084 191.283 10.504C191.675 10.896 191.885 11.554 191.913 12.478C191.969 13.346 191.787 14.032 191.367 14.536C190.975 15.04 190.303 15.348 189.351 15.46L188.385 15.544C186.789 15.684 185.599 16.146 184.815 16.93C184.059 17.714 183.681 18.848 183.681 20.332V28.144C183.681 29.18 183.401 29.978 182.841 30.538C182.309 31.098 181.525 31.378 180.489 31.378ZM204.863 31.462C202.427 31.462 200.327 31.028 198.563 30.16C196.827 29.264 195.483 28.018 194.531 26.422C193.607 24.798 193.145 22.894 193.145 20.71C193.145 18.582 193.593 16.72 194.489 15.124C195.385 13.5 196.631 12.24 198.227 11.344C199.851 10.42 201.685 9.958 203.729 9.958C205.213 9.958 206.557 10.21 207.761 10.714C208.965 11.19 210.001 11.89 210.869 12.814C211.737 13.71 212.395 14.816 212.843 16.132C213.291 17.42 213.515 18.862 213.515 20.458C213.515 20.99 213.347 21.396 213.011 21.676C212.675 21.928 212.185 22.054 211.541 22.054H198.353V18.778H208.937L208.265 19.366C208.265 18.218 208.097 17.266 207.761 16.51C207.425 15.726 206.935 15.138 206.291 14.746C205.675 14.354 204.905 14.158 203.981 14.158C202.945 14.158 202.063 14.396 201.335 14.872C200.607 15.348 200.047 16.034 199.655 16.93C199.263 17.826 199.067 18.904 199.067 20.164V20.5C199.067 22.628 199.557 24.196 200.537 25.204C201.545 26.212 203.029 26.716 204.989 26.716C205.661 26.716 206.431 26.632 207.299 26.464C208.167 26.296 208.979 26.03 209.735 25.666C210.379 25.358 210.953 25.26 211.457 25.372C211.961 25.456 212.353 25.68 212.633 26.044C212.913 26.408 213.067 26.828 213.095 27.304C213.151 27.78 213.053 28.256 212.801 28.732C212.549 29.18 212.129 29.558 211.541 29.866C210.589 30.398 209.511 30.79 208.307 31.042C207.131 31.322 205.983 31.462 204.863 31.462Z" fill="white"/>
</svg>
