<svg width="940" height="940" viewBox="0 0 940 940" fill="none" xmlns="http://www.w3.org/2000/svg">
<g clip-path="url(#clip0_1400_3996)">
<path d="M939.911 1.1512C939.911 260.285 939.911 519.418 939.911 778.552C937.372 778.831 937.126 776.658 936.336 775.141C931.186 765.243 926.915 754.929 922.266 744.8C915.143 729.284 903.671 718.451 889.113 709.931C860.202 693.01 830.043 678.545 800.041 663.776C779.352 653.59 758.048 644.7 737.081 635.095C735.001 634.142 732.849 633.332 730.927 632.044C727.831 628.903 727.724 624.722 727.804 620.878C728.081 607.432 727.337 594.009 726.607 580.623C725.234 555.437 726.416 530.251 725.726 505.081C725.46 495.345 724.244 485.637 724.764 475.864C724.891 473.47 723.801 471.398 722.374 469.558C709.736 453.261 701.271 434.624 692.3 416.255C685.209 401.733 678.687 386.806 666.016 375.885C664.509 374.585 663.48 372.838 662.852 370.906C661.995 364.992 662.531 359.043 662.629 353.123C662.815 341.905 660.764 331.308 655.207 321.484C654.674 319.678 655.547 318.225 656.417 316.776C666.435 300.087 673.134 282.206 675.809 262.875C677.615 249.82 677.516 236.731 676.221 223.661C674.075 201.984 669.544 180.83 660.864 160.767C652.157 140.643 641.601 121.619 626.04 105.808C611.18 89.6558 593.256 77.8753 573.36 68.9008C572.191 68.3731 570.349 68.2262 570.514 66.5101C570.631 65.3007 572.103 65.3656 573.176 65.3501C606.627 70.8763 631.579 89.2531 650.448 116.82C645.285 95.3586 609.104 66.3257 575.233 62.8702C565.354 62.2039 556.262 58.9429 547.078 55.3851C528.454 48.1707 509.032 44.6314 488.993 43.5541C463.414 42.1788 438.797 46.3832 414.725 54.3667C396.368 60.455 379.796 69.7127 366.576 84.2266C365.754 85.1289 364.97 86.1009 363.898 86.7119C361.302 88.1913 360.491 87.3489 361.242 84.5912C376.711 57.9834 400.878 46.5123 430.827 45.1162C407.09 39.5156 373.032 54.9098 358.534 82.1124C357.07 84.932 355.561 87.7267 354.397 90.6926C351.964 96.8951 351.848 96.9439 345.431 95.1718C331.067 91.9775 318.065 96.634 305.963 103.292C285.205 114.712 271.406 132.374 263.423 154.596C262.15 158.139 261.365 161.832 261.555 166.332C263.573 164.39 263.908 162.406 264.572 160.612C272.642 138.809 285.688 120.752 305.324 108.034C316.935 100.514 329.715 96.2081 343.878 97.4698C345.539 98.3103 348.711 97.5536 348.678 100.022C348.638 103.007 345.47 102.052 343.56 102.397C332.051 104.475 321.873 109.641 312.203 115.915C294.165 127.617 281.549 144.183 271.102 162.554C263.467 175.981 256.636 189.813 252.469 204.788C251.286 209.042 250.266 213.341 251.067 218.694C253.481 213.135 255.292 208.165 257.879 203.565C259.38 200.897 260.86 198.207 263.341 196.288C264.047 195.742 264.884 195.098 265.824 195.64C266.781 196.193 266.612 197.227 266.418 198.106C265.859 200.642 265.093 203.127 264.529 205.667C260.791 219.136 259.253 233.046 259.38 246.823C259.557 266.119 263.263 284.994 271.947 302.592C274.771 308.314 278.228 313.733 280.35 319.8C277.888 324.797 274.803 329.431 273.512 335.065C271.195 345.177 271.699 355.363 272.157 365.516C272.333 369.403 271.438 372.255 268.945 374.989C263.732 380.706 257.844 385.897 254.172 392.866C249.285 402.142 244.157 411.305 240.328 421.106C237.029 430.881 231.968 439.737 226.314 448.301C222.448 454.158 219.322 460.466 215.456 466.328C214.352 468.002 213.631 469.842 213.41 471.863C212.5 480.203 211.398 488.513 211.461 496.944C211.624 518.457 210.56 539.996 209.125 561.392C208.02 577.873 208.688 594.288 207.761 610.698C207.377 617.483 206.597 624.288 204.032 630.709C198.821 635.473 192.02 637.265 185.803 640.018C159.708 651.575 133.879 663.694 108.043 675.808C92.0071 683.327 76.2946 691.452 60.8094 700.006C51.3394 705.238 41.9693 710.681 33.1315 716.998C26.0992 722.024 21.1613 728.645 17.1657 736.142C12.9262 744.096 9.45699 752.417 5.45422 760.483C4.71125 761.981 4.08249 763.63 2.57514 764.535C0.737636 765.639 0.554421 764.365 0.577621 762.946C0.588328 511.171 0.577621 259.41 0.597846 7.64997C0.599035 -0.498324 -0.395559 0.722314 7.70396 0.72172C316.49 0.700305 625.276 0.702684 934.062 0.727668C936.008 0.727668 938.017 0.263683 939.911 1.1512Z" fill="#C8BFAD"/>
<path d="M701.523 939.899C694.188 939.899 686.853 939.899 679.518 939.899C677.003 934.677 677.314 928.917 676.489 923.392C671.961 893.064 668.205 862.629 663.869 832.272C659.51 801.753 654.854 771.278 650.449 740.765C648.444 726.877 645.709 713.102 643.778 699.194C642.998 693.583 640.496 688.412 637.616 683.5C635.066 679.15 632.678 674.718 630.875 670.002C630.506 667.864 628.863 666.518 627.653 664.901C623.083 653.159 617.036 642.022 613.482 628.961C611.051 632.986 610.067 636.658 608.691 640.045C603.593 652.593 596.57 663.989 588.062 674.351C581.687 682.113 574.029 688.724 565.742 694.568C554.195 702.713 541.666 708.881 528.533 713.953C513.861 720.081 498.4 723.43 482.723 724.534C463.231 725.907 443.619 725.845 424.519 720.372C405.814 714.977 387.729 708.086 371.879 696.493C352.467 682.294 336.936 664.832 327.66 642.28C325.58 637.225 322.95 632.396 321.013 626.959C316.883 639.443 310.731 650.861 304.813 662.389C303.964 663.934 303.233 665.544 302.324 667.058C299.153 670.389 298.626 675.548 294.587 678.282C289.957 679.255 290.304 683.266 289.526 686.593C289.289 686.975 288.979 687.278 288.593 687.505C285.856 688.367 283.454 688.195 282.029 685.264C280.54 682.203 281.275 677.377 283.528 675.054C285.058 673.476 287.365 672.502 287.654 669.986C285.99 668.226 283.291 671.422 281.954 668.605C281.812 667.498 282.105 666.465 282.556 665.496C288.289 653.157 289.126 640.003 289.418 626.667C289.917 603.838 287.148 581.405 282.733 559.054C280.757 549.05 278.73 539.043 276.966 528.994C275.674 521.627 278.722 514.88 280.4 507.972C281.299 504.276 282.225 500.579 283.181 496.894C283.587 495.333 283.663 493.926 282.913 492.507C282.087 490.194 282.844 487.983 283.413 485.774C287.794 468.783 295.071 453.051 303.665 437.799C312.831 421.532 323.816 406.459 333.711 390.676C336.537 386.167 337.977 381.246 338.108 375.934C338.189 372.676 336.711 370.315 333.791 369.001C330.831 367.67 328.879 369.617 326.996 371.462C324.579 373.832 323.109 376.945 320.827 379.422C319.614 380.738 318.801 382.559 316.71 382.826C315.148 382.381 314.514 381.182 314.186 379.732C316.421 373.246 321.357 368.559 325.431 363.351C329.82 357.743 334.519 352.364 339.391 347.129C344.319 341.834 348.289 335.853 347.032 327.944C346.932 327.315 347.268 326.776 347.749 326.346C348.249 326.236 348.71 326.315 349.148 326.578C352.646 330.403 352.869 335.214 352.384 339.836C351.736 346.01 350.205 352.073 346.919 357.508C345.028 360.071 346.057 361.554 348.629 362.8C352.504 364.677 356.674 365.668 360.672 367.156C379.424 374.136 398.851 377.784 418.747 379.213C423.77 379.573 428.735 377.587 433.785 378.837C441.338 380.78 451.295 392.209 452.035 399.765C452.416 403.655 449.888 407.682 445.829 408.099C438.442 408.856 430.959 409.558 423.653 407.256C422.517 406.686 422.179 405.707 422.916 404.743C424.755 402.336 422.488 402.321 421.246 401.683C412.965 392.252 401.791 389.184 390 387.519C386.244 386.989 382.437 386.76 378.691 386.259C374.482 385.695 372.001 387.4 370.247 390.843C368.317 394.631 366.87 398.65 364.764 402.353C362.109 404.198 360.32 401.321 357.871 401.116C358.668 403.631 362.367 404.593 361.49 407.892C357.118 414.135 357.376 421.238 358.202 428.214C361.527 456.273 365.35 484.272 373.764 511.368C381.254 535.485 392.848 557.558 407.57 578.07C415.379 588.95 424.244 598.686 435.13 606.536C436.871 607.791 438.663 608.925 440.58 609.892C441.824 610.519 443.259 611.43 442.957 612.925C442.579 614.796 440.795 613.953 439.538 613.988C438.926 614.006 438.321 614.074 437.715 614.137C429.287 612.081 422.601 606.828 416.25 601.451C400.505 588.122 386.241 573.259 372.835 557.579C370.951 555.377 369.212 553.073 367.828 550.524C373.406 561.221 377.344 572.641 382.421 583.55C390.534 600.98 398.527 618.481 410.682 633.669C419.061 644.14 428.621 653.261 440.077 660.232C456.095 669.978 472.666 671.252 489.824 663.069C503.801 656.403 514.618 646.148 524.309 634.311C539.53 615.717 548.816 594.017 557.743 572.089C560.789 564.608 563.939 557.171 566.312 550.706C564.29 553.889 561.41 557.973 557.767 561.425C556.867 562.278 556.084 564.433 554.231 562.477C553.693 560.705 554.435 559.173 555.164 557.664C568.481 530.104 576.874 501.194 580.09 470.684C581.74 455.022 581.919 439.381 581.899 423.693C581.894 419.792 579.848 417.152 577.269 414.644C575.638 413.059 573.868 411.566 572.855 409.454C571.975 406.155 574.727 404.759 576.443 402.9C577.809 401.419 578.372 400.289 576.171 399.198C572.838 395.673 570.434 391.337 566.415 388.407C563.841 386.53 561.292 385.544 557.958 386.116C552.276 387.09 546.505 387.48 540.813 388.491C530.374 390.344 521.081 394.446 513.386 401.862C510.904 402.285 511.685 405.208 510.023 406.278C503.998 408.315 497.794 408.977 491.502 408.46C485.471 407.965 481.684 403.342 483.412 397.708C485.934 389.487 490.534 382.575 498.846 378.911C501.245 378.308 503.713 378.285 506.135 378.485C528.203 380.305 549.182 375.23 569.881 368.454C575.974 366.46 581.994 364.231 588.141 362.406C591.319 361.463 591.9 360.129 589.421 357.79C587.039 355.827 584.138 355.695 581.256 355.35C570.608 354.076 560.121 352.122 550.75 346.507C542.733 341.704 536.16 335.531 532.871 326.466C530.427 314.209 529.872 301.644 526.797 289.484C526.379 287.828 525.48 285.335 527.702 284.701C529.506 284.186 530.06 286.662 530.7 288.121C534.992 297.893 538.713 307.918 543.826 317.325C549.625 327.995 556.969 337.136 568.288 342.417C572.885 344.562 577.797 345.679 582.686 346.886C585.215 347.511 586.469 347.068 585.957 344.035C585.347 340.416 585.382 336.711 585.844 333.084C586.27 329.739 587.021 326.35 591.128 325.423C592.385 326.037 592.194 327.189 592.037 328.212C591.099 334.291 593.493 339.354 597.096 343.877C603.941 352.472 611.158 360.764 618.259 369.151C630.788 383.949 642.11 399.749 654.751 414.425C666.759 428.366 674.961 444.558 684.27 460.124C686.155 463.277 688.619 466.042 690.244 469.339C690.895 470.659 691.867 472.325 690.127 473.417C688.75 474.281 687.469 473.156 686.515 472.179C682.971 468.549 680.269 464.286 677.585 460.018C673.113 452.907 668.777 445.715 664.59 438.432C658.697 428.184 651.019 419.246 643.587 410.145C634.026 398.436 625.297 386.081 615.606 374.477C614.627 373.305 613.711 372.083 612.611 371.015C610.499 368.961 608.108 367.53 605.243 369.236C602.425 370.913 600.806 373.496 601.517 376.931C602.391 381.149 603.98 385.13 606.312 388.758C616.467 404.557 626.747 420.273 636.783 436.151C647.255 452.721 653.675 470.619 656.626 489.878C656.953 492.014 657.02 494.151 655.735 496.08C654.18 499.046 654.951 502.198 655.76 504.972C659.749 518.662 658.084 531.943 654.618 545.512C649.555 565.334 646.257 585.527 644.437 605.946C643.105 620.88 642.892 635.815 644.477 650.701C645.696 662.147 649.934 672.538 657.634 681.342C651.419 672.611 647 663.129 645.649 652.416C644.137 640.429 643.461 628.417 644.898 616.363C645.387 612.257 644.853 608.113 645.285 604.015C645.477 602.193 645.361 599.606 648.639 600.679C650.173 602.864 649.777 605.38 649.743 607.78C649.557 620.907 650.015 633.998 651.477 647.053C652.637 657.42 655.836 667.078 662.077 675.453C666.583 681.499 668.291 687.916 668.242 695.467C668.108 716.254 671.036 736.824 673.971 757.355C682.026 813.694 691.229 869.857 700.201 926.054C700.682 929.069 701.383 932.043 701.897 935.051C702.175 936.682 702.685 938.365 701.523 939.899Z" fill="#C07364"/>
<path d="M316.504 382.627C319.832 378.492 323.054 374.266 326.529 370.259C328.421 368.078 330.731 365.816 334.003 367.492C337.213 369.135 339.6 371.355 339.427 375.639C339.197 381.284 337.832 386.482 334.787 391.178C327.255 402.794 319.383 414.195 312.089 425.957C299.861 445.673 289.113 466.111 283.82 488.961C283.617 489.836 283.579 490.749 283.465 491.643C283.994 495.754 282.198 499.419 281.088 503.173C279.574 508.291 278.386 513.498 276.752 518.578C275.48 522.528 276.329 526.425 276.922 530.329C279.026 544.197 282.318 557.851 284.448 571.715C285.558 578.945 286.715 586.167 286.626 593.517C286.858 605.416 285.867 617.282 285.498 629.16C284.967 646.271 279.564 662.14 270.06 676.425C266.382 681.953 264.784 687.631 264.447 694.342C263.254 718.122 260.474 741.767 256.839 765.308C248.266 820.837 239.146 876.276 229.668 931.658C229.176 934.536 229.679 937.936 226.583 939.899C179.211 939.899 131.839 939.899 84.4673 939.899C83.2604 938.385 84.1895 936.996 84.8111 935.669C89.4992 925.659 93.7887 915.467 98.5249 905.48C99.7003 903.002 100.703 900.483 101.402 897.839C102.397 896.178 103.267 894.455 103.914 892.622C106.093 887.298 108.773 882.182 110.47 876.66C111.295 875.327 111.803 873.84 112.477 872.431C115.131 869.109 116.367 865.339 116.214 861.08C116.16 859.583 116.159 858.045 117.062 856.711C119.095 857.495 119.095 857.495 119.119 860.588C119.058 861.196 119.722 860.412 119.136 860.586C118.91 860.653 118.83 860.523 118.907 860.198C119.535 857.548 120.368 854.966 121.451 852.463C126.487 841.516 131.496 830.557 136.203 819.468C148.606 790.243 160.917 760.978 172.808 731.542C181.387 710.307 189.339 688.816 195.915 666.864C199.427 655.144 200.964 642.986 202.737 630.901C204.193 628.647 204.212 626.077 204.685 623.529C208.019 605.558 204.69 587.323 206.718 569.442C208.678 552.154 207.67 534.837 209.314 517.636C210.233 508.021 209.589 498.447 210.136 488.877C210.5 482.526 211.129 476.164 212.137 469.887C212.5 467.623 214.259 465.559 215.475 463.459C223.71 449.246 233.587 435.947 239.406 420.393C244.674 410.603 249.551 400.605 255.139 390.986C257.226 387.392 259.942 384.248 262.782 381.313C269.369 374.503 275.426 367.244 281.596 360.078C285.34 354.933 289.883 350.459 293.85 345.501C299.683 338.219 305.735 331.109 311.123 323.477C311.994 322.483 312.669 321.347 313.44 320.276C314.837 318.676 316.02 316.895 317.479 315.365C320.054 312.665 323.033 310.272 327.005 311.261C331.218 312.31 333.542 315.408 334.088 319.755C334.903 325.741 330.906 329.557 327.359 333.162C314.287 346.449 302.013 360.439 289.849 374.538C281.581 384.123 274.068 394.319 265.138 403.386C259.794 408.814 256.997 416.242 253.307 422.922C246.743 434.804 239.244 446.142 232.334 458.514C240.628 446.14 248.359 434.109 255.036 421.475C260.804 410.563 268.202 401.088 276.784 392.223C283.868 384.905 289.129 375.94 295.998 368.323C299.986 363.9 304.145 359.641 308.2 355.286C317.866 344.906 327.104 334.178 335.849 323.007C341.823 320.741 345.149 321.816 347.489 326.757C350.478 335.451 345.815 341.874 340.551 347.578C331.171 357.744 322.721 368.617 314.437 379.649C314.222 382.609 312.156 384.59 310.548 386.763C302.01 398.302 293.234 409.663 284.577 421.111C274.432 434.526 267.051 449.757 257.519 463.598C256.396 465.228 255.414 466.963 253.787 469.386C261.92 459.475 268.365 449.492 274.197 439.204C280.344 428.358 288.212 418.847 295.633 408.971C301.414 401.28 307.14 393.55 312.856 385.811C313.831 384.488 314.543 382.832 316.504 382.627Z" fill="#E7C1A9"/>
<path d="M701.523 939.9C698.349 926.148 696.5 912.162 694.218 898.254C692.155 885.685 690.316 873.08 688.346 860.496C686.025 845.675 683.651 830.862 681.336 816.04C678.974 800.917 676.418 785.818 674.392 770.649C672.666 757.726 670.752 744.828 669.272 731.863C667.595 717.159 666.58 702.464 666.658 687.678C666.675 684.41 664.757 681.907 662.938 679.49C656.299 670.668 651.805 660.848 650.293 649.961C648.637 638.04 648.232 625.992 648.363 613.941C648.412 609.514 648.303 605.086 648.265 600.658C646.233 597.899 647.075 594.833 647.333 591.835C648.84 574.337 652.473 557.207 656.606 540.188C659.127 529.804 659.963 519.598 657.052 509.098C655.827 504.682 654.295 500.017 655.754 495.226C654.646 480.836 651.122 467.076 645.012 453.987C638.21 439.417 628.967 426.307 620.519 412.713C614.1 402.382 606.089 392.999 601.551 381.542C600.101 377.88 598.756 374.212 601.903 370.425C605.311 366.325 609.062 365.585 612.634 369.602C618.49 376.19 624.243 382.919 629.454 390.018C637.216 400.591 645.481 410.757 653.806 420.863C663.483 432.611 669.915 446.371 678.314 458.896C680.691 462.442 682.941 466.082 685.49 469.5C686.566 470.942 687.581 472.876 689.863 472.956C690.592 471.572 689.748 470.612 689.219 469.863C679.103 455.508 672.378 439.035 661.686 425.098C650.197 410.12 638.135 395.578 626.202 380.945C616.195 368.673 605.934 356.608 595.944 344.322C591.537 338.902 589.195 332.758 591.378 325.621C592.609 321.583 595.807 321.601 599.067 322.029C601.363 322.33 603.396 323.403 605.189 324.881C620.848 344.969 638.571 363.339 654.204 383.463C660.002 390.927 665.88 398.336 672.867 404.796C675.092 406.853 676.563 409.656 677.872 412.425C685.959 429.53 695.485 445.806 706.444 461.857C703.272 455.384 699.624 449.76 696.125 444.081C689.15 432.759 683.777 420.575 676.985 409.164C676.048 407.588 675.208 405.912 673.826 404.689C660.906 393.265 652.196 378.274 640.694 365.644C630.633 354.597 621.061 343.112 611.043 332.024C610.527 331.453 610.052 330.866 609.701 330.176C609.063 328.075 607.193 325.811 609.014 323.814C610.929 321.714 613.598 322.98 615.868 323.639C620.845 325.087 624.895 328.549 629.78 330.227C634.236 333.64 636.597 338.878 640.611 342.682C644.528 347.944 648.584 353.097 652.943 358.007C656.197 362.71 661.577 365.626 663.938 371.077C666.764 375.894 671.246 379.248 674.957 383.26C682.034 390.91 685.805 400.415 690.384 409.424C697.925 424.257 704.781 439.45 713.069 453.889C716.275 459.473 720.413 464.529 724.229 469.751C725.647 471.691 726.227 473.709 726.316 476.11C727.475 507.305 726.68 538.523 727.385 569.713C727.777 587.047 728.999 604.371 729.182 621.733C729.217 625.005 729.033 628.823 731.79 631.598C732.348 640.735 733.068 649.855 734.756 658.866C738.174 677.112 744.342 694.533 750.848 711.836C760.252 736.845 770.327 761.587 780.487 786.299C789.195 807.476 798.282 828.492 806.969 849.676C807.932 852.024 808.537 854.672 810.868 856.245C812.239 858.094 811.548 860.646 812.992 862.472C814.272 865.654 814.089 869.502 817.254 871.828C817.754 872.857 818.155 873.966 819.345 874.46C818.89 877.069 819.322 879.488 820.402 881.933C823.883 889.816 827.712 897.549 830.777 905.614C831.098 907.57 832.104 909.189 833.308 910.713C836.083 917.931 839.695 924.774 842.726 931.872C843.797 934.379 845.972 936.774 844.557 939.9C796.878 939.9 749.2 939.9 701.523 939.9Z" fill="#E7C1A9"/>
<path d="M641.009 939.899C538.625 939.899 436.241 939.899 333.856 939.899C332.219 937.808 333.532 935.807 334.112 933.833C343.672 901.323 355 869.419 367.66 838.005C379.632 808.298 392.727 779.08 407.293 750.538C407.777 749.59 408.165 748.58 409.045 747.888C409.995 747.37 411.003 747.312 412.044 747.485C425.951 751.398 440.24 752.342 454.566 753.474C474.419 755.043 493.851 752.669 513.209 748.849C523.877 746.745 534.151 743.284 544.257 739.306C546.372 738.473 548.412 737.323 550.793 737.385C551.294 737.441 551.768 737.601 552.207 737.849C561.033 749.036 567.834 761.505 574.496 774.016C586.257 796.103 597.302 818.558 606.967 841.65C619.459 871.496 630.825 901.765 639.995 932.818C640.664 935.083 641.976 937.358 641.009 939.899Z" fill="#FCF9F1"/>
<path d="M816.953 872C815.845 872.715 814.849 872.64 814.516 871.259C813.855 868.51 812.185 865.998 812.54 863.008C811.915 857.317 813.625 851.826 814.138 846.238C815.545 830.904 816.392 815.518 818.247 800.225C818.408 798.896 818.621 797.496 817.932 796.138C816.863 797.024 816.913 798.28 816.83 799.398C815.534 816.737 813.664 834.022 812.052 851.331C811.885 853.119 812.173 855.057 810.471 856.366C808.934 857.435 808.449 856.522 807.894 855.182C798.582 832.723 789.392 810.21 779.837 787.854C770.036 764.923 760.886 741.731 751.924 718.473C744.175 698.362 736.691 678.082 733.008 656.727C731.828 649.885 730.818 642.935 730.89 635.926C730.906 634.441 730.507 632.837 731.791 631.601C740.56 635.452 749.337 639.288 758.096 643.163C784.012 654.63 809.533 666.929 834.906 679.542C855.89 689.972 876.642 700.85 896.609 713.127C907.174 719.623 915.526 728.376 920.886 739.746C926.538 751.738 932.231 763.711 937.867 775.711C938.384 776.811 938.572 778.074 939.911 778.552C939.911 831.112 939.876 883.673 940.001 936.232C940.008 939.372 939.385 940.006 936.243 939.991C905.682 939.839 875.119 939.9 844.556 939.9C842.231 932.388 838.252 925.594 835.195 918.399C834.138 915.91 832.712 913.566 832.791 910.733C834.435 905.894 839.093 903.865 842.494 900.797C857.096 887.621 871.841 874.598 886.718 861.727C889.367 859.435 892.309 857.46 894.568 854.729C895.146 854.03 895.941 853.212 895.309 852.325C894.471 851.149 893.305 851.825 892.469 852.415C889.097 854.795 886.26 857.815 883.168 860.526C868.261 873.59 853.484 886.804 838.698 900.008C836.109 902.32 833.988 905.658 829.929 905.922C826.101 897.329 822.292 888.726 818.429 880.15C817.444 877.962 817.072 875.921 818.952 874.023C818.89 872.225 819.896 870.797 820.762 869.404C827.703 858.24 832.813 846.123 838.794 834.467C844.985 822.401 851.077 810.277 857.237 798.191C857.988 796.716 858.894 795.287 859.234 792.816C857.116 794.293 856.418 796.056 855.626 797.658C844.545 820.076 832.361 841.939 821.98 864.712C820.771 867.363 820.184 870.655 816.953 872Z" fill="#FDFBF1"/>
<path d="M117.621 856.492C117.122 860.384 118.27 864.419 116.504 868.21C115.663 870.015 114.984 871.886 113.039 872.841C109.508 869.389 107.441 864.96 105.024 860.773C93.7405 841.226 82.4799 821.666 70.9903 802.24C70.2468 800.983 69.728 799.468 67.9369 798.55C67.6425 800.832 68.809 802.472 69.7084 804.08C79.6091 821.782 89.9721 839.217 100.075 856.802C103.847 863.367 108.647 869.4 110.967 876.764C110.648 882.872 107.187 887.768 104.691 893.036C103.346 893.294 102.354 892.578 101.369 891.834C80.4384 876.032 59.4549 860.298 38.7737 844.167C37.6345 843.278 36.6376 841.908 34.6014 842.544C34.6609 844.663 36.3068 845.651 37.6595 846.702C56.8019 861.575 76.2589 876.037 95.4566 890.838C97.9782 892.782 100.722 894.512 101.954 897.679C102.548 902.944 98.9395 906.73 97.1061 911.11C93.06 920.776 88.6997 930.311 84.4673 939.899C57.5419 939.899 30.6159 939.822 3.69165 940C0.40985 940.021 -0.171321 939.159 0.0392568 936.169C0.337278 931.931 0.114803 927.656 0.114803 923.398C1.36994 913.927 1.97193 904.502 1.45084 894.869C1.05408 887.538 0.109449 879.983 1.94516 872.618C2.79997 869.188 0.966632 865.997 1.08084 862.668C1.48891 850.802 -0.0362894 838.892 2.1147 827.057C2.7381 823.628 2.71728 820.01 1.90769 816.578C1.12486 813.26 0.936295 809.946 1.04218 806.589C1.44132 793.972 1.82084 781.358 0.621023 768.756C0.496104 767.445 0.208195 766.007 1.05824 764.754C4.69993 761.091 6.11449 756.177 8.26012 751.701C12.4098 743.045 16.1752 734.188 21.8055 726.336C28.2109 717.405 37.6316 712.193 46.734 706.704C64.2072 696.166 82.3104 686.76 100.7 677.946C132.278 662.811 164.049 648.088 196.197 634.19C198.432 633.223 200.558 632.005 202.735 630.902C204.773 634.626 202.902 638.415 202.39 641.945C198.473 668.946 188.302 694.077 178.808 719.431C170.696 741.094 161.301 762.221 152.774 783.709C146.941 798.41 140.231 812.76 134.211 827.39C131.205 834.694 127.023 841.468 124.695 849.066C124.258 850.493 123.748 852.008 122.177 852.718C120.536 851.418 120.68 849.455 120.38 847.693C117.594 831.267 116.287 814.657 114.256 798.137C114.08 796.705 114.5 795.06 112.667 793.58C113.384 803.422 114.579 812.786 115.694 822.149C116.778 831.248 117.706 840.363 118.7 849.47C118.959 851.846 119.393 854.372 117.621 856.492Z" fill="#FDFBF1"/>
<path d="M409.204 748.456C407.624 753.747 404.73 758.439 402.323 763.343C379.859 809.103 360.747 856.228 344.652 904.584C340.764 916.265 336.849 927.942 333.857 939.899C305.128 939.899 276.4 939.899 247.671 939.899C244.844 935.158 247.111 930.292 247.689 925.632C250.463 903.238 254.348 881 257.499 858.653C260.417 837.954 263.522 817.269 267.109 796.669C269.911 780.575 271.855 764.352 274.622 748.254C277.309 732.614 280.025 716.98 282.635 701.326C283.501 696.126 284.86 690.831 288.94 686.887L288.939 686.883C289.894 683.313 291.209 679.956 294.387 677.705C297.606 674.557 297.737 669.336 301.76 666.729C303.995 667.188 304.838 669.134 305.875 670.761C316.721 687.773 329.863 702.739 345.95 714.944C360.627 726.081 376.695 734.782 394.081 740.974C397.676 742.255 401.201 743.718 404.823 744.927C406.673 745.544 408.704 746.093 409.204 748.456Z" fill="#AFA595"/>
<path d="M641.009 939.9C635.314 921.911 629.589 903.939 623.093 886.208C616.916 869.344 610.369 852.635 603.216 836.175C592.947 812.545 581.661 789.397 569.175 766.85C564.45 758.319 559.646 749.833 553.765 742.011C552.966 740.947 552.569 739.581 551.986 738.354C552.337 734.872 555.465 734.457 557.773 733.218C567.42 728.039 577.374 723.42 586.15 716.713C602.644 704.108 616.084 688.699 627.925 671.784C628.904 670.386 629.338 668.249 631.781 668.577C633.597 672.428 635.047 676.51 637.303 680.083C642.446 688.23 645.66 697 646.379 706.544C647.053 715.492 649.124 724.215 650.518 733.02C652.6 746.176 654.512 759.364 656.538 772.528C659.533 791.98 661.739 811.559 665.03 830.957C667.741 846.94 669.488 863.048 671.855 879.068C673.487 890.122 674.98 901.266 676.169 912.422C676.916 919.426 677.965 926.522 679.317 933.51C679.717 935.576 679.469 937.767 679.517 939.9C666.682 939.9 653.845 939.9 641.009 939.9Z" fill="#B0A294"/>
<path d="M288.939 686.887C281.772 703.573 281.35 721.686 277.824 739.144C275.872 748.81 274.197 758.516 272.99 768.286C270.835 785.723 267.02 802.892 264.967 820.354C263.554 832.374 261.056 844.263 259.245 856.241C257.39 868.514 255.818 880.828 254.051 893.114C253.297 898.355 252.191 903.549 251.546 908.802C250.272 919.17 248.065 929.423 247.669 939.899C240.64 939.899 233.611 939.899 226.581 939.899C228.41 929.601 230.281 919.31 232.059 909.004C234.406 895.402 236.737 881.797 238.976 868.176C241.928 850.221 244.803 832.253 247.676 814.285C250.332 797.671 253.074 781.07 255.532 764.426C257.393 751.823 259.051 739.183 260.462 726.522C261.928 713.367 262.928 700.162 263.225 686.919C263.288 684.154 264.784 681.956 266.22 679.905C278.565 662.254 284.632 642.755 284.446 621.182C284.366 611.902 285.062 602.615 285.406 593.331C287.722 593.833 287.288 595.838 287.472 597.362C288.938 609.501 288.329 621.634 287.818 633.818C287.351 644.958 285.27 655.575 280.938 665.756C278.567 671.329 276.009 676.85 272.437 681.814C274.801 678.719 277.421 675.822 279.34 672.383C280.035 671.138 280.481 669.442 282.432 669.431C284.736 668.542 287.778 666.325 289.358 668.609C291.202 671.274 287.633 673.024 285.878 674.637C284.07 676.301 282.325 677.482 282.423 680.456C282.617 686.292 282.93 686.823 288.939 686.887Z" fill="#BF7768"/>
<path d="M1.05763 764.753C0.619815 767.99 1.57872 771.096 1.94812 774.257C3.10868 784.184 2.95223 794.107 1.96299 804.037C1.17243 811.972 5.70402 819.726 3.61371 827.494C0.765553 838.079 2.59829 848.702 1.96002 859.283C1.81249 861.729 1.84343 864.162 3.18779 866.385C4.02237 867.764 4.21213 869.537 3.69758 870.835C1.5924 876.148 3.2562 881.631 2.59532 886.882C2.0088 891.545 2.11171 896.14 3.09262 900.377C4.528 906.578 2.56141 912.076 1.4187 917.776C1.04632 919.632 1.83629 921.847 0.114785 923.399C0.114785 617.128 0.123707 310.857 0.0130647 4.58673C0.0112802 0.864741 0.758415 0.132477 4.4703 0.133667C314.909 0.24312 625.347 0.233007 935.786 0.290708C937.127 0.290708 938.894 -0.766345 939.911 1.15086C629.628 1.15443 319.346 1.15741 9.06375 1.16098C7.84133 1.16098 6.60106 1.29958 5.40065 1.13778C2.03081 0.683905 0.877981 1.92358 0.969588 5.42726C1.20515 14.4333 1.03859 23.4501 1.03919 32.4621C1.04454 276.559 1.05108 520.656 1.05763 764.753Z" fill="#FEFEFE"/>
<path d="M345.681 94.0356C349.979 96.3401 352.313 95.2932 353.39 90.2928C354.037 87.2859 355.454 84.3175 357.42 81.7686C359.076 80.89 359.499 77.4238 362.245 79.0162C364.984 80.6051 362.309 82.6841 362.243 84.5495C361.982 85.2515 361.72 85.9534 361.46 86.6553C361.65 86.8463 361.84 87.0366 362.03 87.2276C363.9 85.2312 365.754 83.22 367.642 81.2416C384.236 63.8611 405.408 54.939 428.032 48.8726C441.689 45.2107 455.623 43.2549 469.777 42.3239C500.791 40.2842 530.238 46.2255 558.525 58.6205C564.14 61.0814 570.266 60.0541 575.938 61.8119C576.746 62.791 579.171 62.4716 578.653 64.3132C577.842 67.1953 575.11 65.7748 573.194 66.1858C572.743 66.2531 572.139 66.1597 571.866 66.4166C570.871 67.35 572.114 67.0287 572.366 67.1305C581.867 70.9768 590.669 76.1478 599.241 81.671C609.241 88.1145 618.421 95.6096 626.392 104.504C637.26 121.236 642.485 139.943 645.568 159.391C646.506 165.31 645.688 166.807 640.174 168.661C631.917 171.436 623.93 174.926 615.704 177.754C612.562 178.834 612.69 180.355 614.297 182.411C617.241 186.18 618.958 190.642 621.455 194.657C622.101 195.695 622.694 196.776 623.029 197.958C623.526 199.715 624.372 201.841 622.357 202.916C620.439 203.94 619.248 201.96 618.43 200.633C613.837 193.187 608.001 186.727 602.483 180.006C597.511 173.95 591.916 168.584 585.411 163.976C587.16 167.186 588.358 170.633 589.944 173.888C599.606 193.723 604.447 215.01 608.815 236.424C609.446 239.518 610.858 244.257 607.461 245.414C605.336 246.137 604.274 240.948 603.114 238.252C594.198 217.529 580.903 200.101 563.829 185.473C573.226 195.96 579.6 208.284 585.32 220.98C586.446 223.48 587.72 225.943 588.576 228.547C589.34 230.873 591.91 233.606 589.437 235.646C587.341 237.376 584.9 234.956 582.837 233.784C579.406 231.835 576.08 229.696 572.017 228.096C572.215 232.871 575.963 237.251 572.504 241.742C565.297 244.332 559.932 243.116 554.653 236.553C539.717 217.982 523.889 199.981 505.188 185.161C491.823 174.57 483.188 159.868 470.394 148.967C458.443 138.784 446.165 129.209 430.076 126.679C423.135 125.588 416.017 125.356 409.109 126.747C396.021 129.381 388.558 138.497 383.631 150.157C382.204 153.535 381.393 157.11 380.603 160.699C379.677 164.909 378.281 165.493 375.167 162.582C367.085 155.028 357.872 154.787 348.255 158.265C342.113 160.487 337.286 165.102 333.05 169.819C323.541 180.411 315.35 192.01 309.477 205.09C308.352 208.283 306.21 210.959 304.918 214.072C303.914 214.926 303.194 216.475 301.439 215.518C300.163 209.758 302.835 204.878 304.478 200.615C300.78 205.998 296.382 211.953 292.624 218.362C286.625 228.59 282.915 239.744 278.969 250.814C278.661 251.676 278.476 252.585 278.081 253.413C277.761 254.082 277.49 254.968 276.609 254.961C275.425 254.952 275.215 253.858 275.106 253.008C274.547 248.598 274.589 244.139 274.907 239.743C276.657 215.502 280.583 191.804 293.249 170.436C293.792 169.519 294.18 168.51 294.84 167.658C295.584 166.696 296.177 165.611 296.324 165.493C291.035 174.117 284.33 183.051 280.143 193.468C276.504 202.519 272.022 211.234 269.595 220.777C269.008 223.086 268.172 226.809 265.257 226.388C262.054 225.926 263.146 222.21 262.926 219.754C262.478 214.743 263.596 209.773 263.398 204.764C264.19 201.869 264.983 198.973 265.96 195.405C260.183 200.185 257.909 206.378 255.103 212.207C254.116 214.258 253.411 216.443 252.541 218.552C252.116 219.583 252.25 221.345 250.464 220.954C248.829 220.596 249.403 218.93 249.353 217.865C249.049 211.376 250.629 205.148 252.84 199.173C262.492 173.09 275.061 148.688 294.794 128.585C307.789 115.347 323.3 106.346 341.206 101.527C343.342 100.951 345.636 100.961 348.252 100.653C347.201 98.5512 344.888 99.6659 343.916 98.3424C343.408 96.4585 342.427 94.3789 345.681 94.0356Z" fill="#7F4943"/>
<path d="M572.229 241.287C574.093 235.947 570.738 231.395 569.77 225.984C576.971 228.038 582.448 232.883 590.103 235.937C582.677 216.315 574.103 198.532 561.214 182.978C583.1 198.833 597.509 220.251 607.907 244.877C604.629 215.454 596.511 187.524 582.934 161.057C599.311 171.662 610.4 187.129 621.861 203.127C623.187 199.826 621.794 197.779 620.64 195.821C617.948 191.252 615.805 186.379 612.612 182.077C610.932 179.814 609.784 178.117 614.53 176.769C624.146 174.036 633.325 169.792 642.75 166.351C645.597 165.312 644.846 163.088 644.582 161.417C642.778 150.013 640.85 138.594 636.416 127.853C633.699 121.271 631.739 114.32 627.472 108.416C626.729 107.388 626.733 105.821 626.392 104.503C641.418 119.111 651.498 137.015 660.099 155.8C669.326 175.955 674.381 197.238 676.993 219.253C680.301 247.138 678.038 274.14 666.681 300.082C663.497 307.354 659.277 314.065 655.607 321.073C654.634 325.577 650.225 328.098 649.038 332.48C645.488 335.72 643.045 339.867 640.012 343.53C636.589 339.444 633.166 335.358 629.743 331.271C627.208 329.316 624.908 327.148 622.964 324.567C621.586 322.737 619.785 321.252 617.668 320.291C612.813 318.085 608.759 319.692 606.071 324.82C605.843 325.2 605.527 325.488 605.142 325.7C600.566 323.858 595.998 320.289 591.38 325.622C588.078 327.274 587.211 330.455 586.994 333.621C586.725 337.537 586.331 341.537 587.566 345.419C588.504 348.367 587.363 349.084 584.472 348.619C567.579 345.901 554.335 337.823 545.483 322.876C538.852 311.679 534.312 299.54 529.11 287.696C528.753 286.882 528.4 286.067 527.628 285.357C530.617 299.052 532.114 312.925 533.924 326.752C536.317 333.869 536.384 341.354 537.395 348.689C537.498 349.443 537.652 350.193 537.658 350.954C537.672 352.792 537.793 354.786 535.908 355.819C533.952 356.889 532.409 355.559 531.003 354.408C527.897 351.865 525.686 348.617 523.686 345.162C518.67 336.496 516.17 326.909 513.391 317.429C511.551 311.152 509.819 304.846 507.341 298.783C501.341 281.452 492.579 265.663 480.478 251.855C476.77 247.624 472.356 244.003 466.993 241.854C465.918 241.423 464.653 240.543 463.629 241.684C462.805 242.602 463.515 243.756 463.955 244.688C468.79 254.919 471.379 265.999 475.951 276.331C478.847 285.35 482.238 294.176 486.106 302.819C486.543 303.795 486.999 304.766 487.277 305.799C487.713 307.416 488.405 309.207 486.657 310.396C484.853 311.622 483.098 310.797 481.643 309.549C475.529 304.306 470.978 297.83 467.221 290.782C461.252 279.586 456.484 267.851 451.864 256.054C450.751 253.213 449.551 250.407 448.377 247.591C446.89 244.02 444.818 242.649 440.615 243.157C435.364 243.79 430.014 242.512 424.693 242.222C419.771 240.654 414.565 240.22 409.776 238.008C402.662 234.723 396.758 230.169 392.587 223.481C389.598 218.69 389.702 215.41 392.989 210.827C400.407 200.484 411.203 196.544 423.552 199.912C434.611 202.927 443.983 209.411 453.726 215.076C468.422 223.621 483.568 231.063 500.201 235.094C507.467 236.855 514.626 239.083 522.074 240.032C527.953 240.782 527.953 240.778 526.904 235.218C529.572 232.093 530.631 232.091 531.987 235.585C533.142 238.564 534.665 240.884 538.061 241.387C541.397 242.116 544.779 241.719 548.137 241.815C550.835 241.934 553.523 242.069 556.187 241.359C557.352 241.048 558.726 240.901 559.69 241.654C564.014 245.032 568.114 243.543 572.229 241.287Z" fill="#392320"/>
<path d="M263.396 204.763C264.953 209.809 263.813 215.003 264.247 220.108C264.41 222.022 263.675 224.071 265.74 226.91C274.377 203.223 282.325 179.88 299.546 161.411C280.863 189.599 275.914 221.163 276.292 254.078C280.139 243.631 283.395 232.943 288.606 223.082C293.757 213.336 299.568 203.985 307.601 196.203C304.099 202.257 302.652 208.851 301.781 215.622C305.783 215.559 307.052 216.903 306.486 221.047C305.924 225.156 304.161 228.944 302.716 232.776C298.851 243.032 294.66 253.174 295.455 264.236C298.248 262.063 298.436 262.015 297.608 258.789C296.895 256.011 297.337 253.673 299.098 251.518C303.245 246.442 306.075 241.037 305.606 234.072C305.423 231.347 306.199 227.834 310.333 227.487C312.273 228.875 312.991 231.166 314.389 232.953C317.12 236.446 320.697 238.514 324.972 239.682C329.117 240.815 329.249 241.497 327.104 244.928C317.877 259.684 313.142 275.882 311.274 293.095C310.264 302.403 309.919 311.603 312.133 320.773C312.388 321.827 312.248 322.893 311.916 323.927C306.658 331.686 300.965 339.101 294.533 345.934C291.803 341.54 289.979 336.594 286.462 332.679C284.331 328.449 280.579 325.081 279.768 320.146C269.887 303.866 262.689 286.556 259.761 267.636C256.647 247.518 258.16 227.618 262.727 207.874C262.965 206.842 263.174 205.801 263.396 204.763Z" fill="#392320"/>
<path d="M345.681 94.0352C344.596 94.9804 343.107 95.7038 344.816 97.5014C345.491 98.2111 344.336 98.1564 343.915 98.3426C322.804 97.8494 305.67 106.556 290.992 121.083C278.954 132.997 270.651 147.166 264.973 163.027C264.228 165.108 264.079 169.115 261.342 168.473C258.666 167.845 260.244 164.27 260.537 162.017C262.176 149.389 268.452 138.826 275.752 128.792C288.479 111.297 304.912 99.189 326.29 94.2916C332.767 92.808 339.193 92.3399 345.681 94.0352Z" fill="#70453A"/>
<path d="M279.768 320.147C282.437 323.995 285.209 327.78 287.136 332.086C281.226 340.861 281.566 350.649 282.532 360.537C276.178 369.082 268.544 376.512 261.504 384.455C255.972 390.696 252.453 398.059 248.441 405.194C245.555 410.326 243.041 415.695 239.405 420.389C245.997 405.691 251.855 390.563 263.656 378.907C263.873 378.692 264.102 378.489 264.315 378.271C268.584 373.926 271.829 369.847 270.895 362.576C269.687 353.17 269.837 343.401 272.463 334C273.896 328.869 275.398 323.745 279.768 320.147Z" fill="#BD7662"/>
<path d="M573.194 66.1845C574.337 64.6081 576.435 65.9382 577.82 64.5641C578.272 63.0365 575.447 63.4274 575.938 61.8105C595.5 63.9371 612.152 72.7457 627.491 84.4417C636.569 91.3628 643.785 99.9757 649.632 109.765C650.739 111.619 651.598 113.537 652.086 115.623C652.37 116.837 653.825 118.326 652.037 119.219C650.457 120.007 649.769 118.426 648.953 117.286C645.056 111.839 641.214 106.382 636.641 101.415C620.008 83.3567 599.982 71.4947 575.689 67.1148C574.829 66.9602 574.024 66.5022 573.194 66.1845Z" fill="#6C4138"/>
<path d="M362.243 84.5488C362.123 84.4536 361.967 84.3816 361.891 84.2597C360.941 82.7374 364.049 81.1313 361.991 79.828C359.84 78.4658 359.273 81.8339 357.42 81.7678C369.804 59.9552 388.418 47.2337 413.171 43.2309C419.425 42.2196 425.556 41.9442 431.72 43.4129C432.833 43.6782 434.587 43.6883 434.504 45.1689C434.408 46.8738 432.623 46.2153 431.538 46.3408C422.022 47.4401 412.477 48.3282 403.285 51.2947C387.601 56.3557 375.529 66.1904 365.982 79.3878C364.736 81.1093 363.489 82.829 362.243 84.5488Z" fill="#70453B"/>
<path d="M648.326 332.099C649.256 327.436 652.791 324.492 655.607 321.073C660.555 326.125 661.683 332.772 662.983 339.267C664.76 348.144 663.725 357.159 663.865 366.115C663.891 367.769 663.915 369.422 663.939 371.076C659.971 366.936 655.427 363.337 652.131 358.561C653.612 349.345 650.657 340.768 648.326 332.099Z" fill="#C37765"/>
<path d="M424.663 241.174C431.032 240.935 437.355 242.857 443.745 241.572C446.398 241.039 447.542 242.551 448.449 244.761C452.895 255.592 457.388 266.403 461.945 277.187C466.536 288.048 472.248 298.234 480.389 306.898C481.22 307.782 482.176 308.55 483.067 309.378C484.03 310.274 485.117 310.877 486.307 309.943C487.447 309.047 486.593 308.026 486.236 307.06C482.711 297.524 478.281 288.332 475.379 278.56C475.163 277.833 475.019 277.084 474.842 276.346C476.061 273.343 477.485 275.859 478.418 276.425C487.245 281.772 495.84 287.463 503.577 294.348C505.048 295.657 506.755 296.685 508.116 298.127C512.382 305.945 513.664 314.752 516.374 323.085C519.142 331.592 521.554 340.246 526.642 347.781C528.266 350.185 530.136 352.38 532.453 354.169C533.444 354.936 534.527 355.67 535.754 355.221C537.413 354.614 536.555 353.151 536.45 352.051C535.636 343.614 534.771 335.183 533.923 326.75C541.378 341.817 554.281 349.163 570.158 352.241C576.104 353.394 582.074 354.421 588.042 355.448C588.857 355.588 589.543 355.625 589.527 356.663C588.281 358.396 586.297 358.218 584.551 358.446C556.629 362.099 528.92 367.156 501.042 371.09C498.781 371.409 496.505 371.677 494.372 372.555C493.365 372.969 492.432 373.567 492.351 374.795C492.264 376.111 493.298 376.585 494.27 377.044C495.885 377.806 497.872 377.962 498.786 379.849C492.26 383.713 487.724 389.345 485.072 396.323C482.579 402.878 485.751 406.955 492.677 407.323C498.842 407.65 504.725 405.895 510.775 405.48C512.824 404.889 513.775 406.606 515.002 407.59C529.98 419.604 551.819 420.451 567.887 409.653C569.426 408.619 570.895 406.826 573.161 408.185C574.019 409.249 574.687 410.59 575.766 411.331C582.458 415.921 583.527 422.368 583.522 430.041C583.503 459.85 580.693 489.265 572.201 517.914C568.091 531.782 562.807 545.271 556.404 558.281C555.664 559.786 554.755 561.212 554.729 562.965C554.439 566.242 552.251 568.494 550.248 570.722C539.756 582.395 528.743 593.55 516.522 603.441C499.763 617.005 480.617 622.177 459.258 619.718C453.481 619.053 447.805 618.022 442.226 616.444C440.391 615.924 438.198 615.785 437.568 613.37C439.009 611.927 440.647 613.005 442.808 613.518C440.829 610.37 437.8 610.199 435.652 608.686C421.717 598.868 411.213 585.963 401.78 572.016C382.019 542.802 369.796 510.684 363.982 475.944C361.431 460.697 358.718 445.472 357.082 430.109C356.326 423.004 354.841 415.529 359.502 408.864C360.055 408.072 360.391 407.343 361.403 407.214C363.992 406.757 365.648 408.64 367.517 409.798C380.721 417.985 394.514 419.32 409.029 413.746C412.5 412.413 415.446 410.305 418.447 408.226C419.761 407.315 420.838 405.739 422.823 406.364C429.45 407.478 436.137 407.365 442.817 407.264C449.662 407.16 452.221 403.158 449.765 396.754C447.525 390.915 443.374 386.512 439.261 382.015C437.707 380.315 435.453 381.137 433.891 379.892C435.032 378.212 437.032 378.158 438.649 377.377C440.151 376.652 442.18 376.068 442.073 374.146C441.956 372.05 439.734 371.976 438.163 371.737C430.622 370.592 423.058 369.601 415.523 368.399C394.13 364.984 372.742 361.537 351.227 358.95C349.276 358.716 347.253 358.486 345.809 356.855C350.729 347.081 353.685 337.135 348.446 326.48C346.9 325.671 346.567 324.234 346.354 322.662C343.554 302.01 346.224 282.537 358.52 265.059C364.17 257.026 371.266 250.742 380.232 246.686C390.37 242.1 401.179 240.346 412.159 239.376C416.38 239.615 420.454 240.865 424.663 241.174Z" fill="#E8C3AC"/>
<path d="M437.568 613.371C467.243 623.551 494.71 620.823 519.13 599.628C532.048 588.415 544.151 576.438 554.729 562.967C560.328 558.17 563.782 551.561 569.271 546.449C567.523 550.82 565.767 555.188 564.03 559.563C556.385 578.829 549.197 598.346 538.366 616.118C526.258 635.985 511.903 653.821 490.237 664.239C473.23 672.418 456.538 671.494 440.506 661.874C418.169 648.471 403.387 628.431 391.647 605.657C382.829 588.55 376.021 570.57 367.941 553.15C367.069 551.268 366.133 549.415 365.669 547.269C371.563 554.107 377.21 561.179 383.403 567.735C397.535 582.698 411.373 598.031 429.023 609.124C431.716 610.816 434.402 612.599 437.568 613.371Z" fill="#5F161A"/>
<path d="M303.65 662.112C309.846 649.655 316.683 637.489 320.687 623.812C323.944 630.109 326.32 636.405 329.13 642.508C334.923 655.094 341.981 666.508 351.776 676.623C358.844 683.921 366.023 690.855 374.296 696.62C387.37 705.732 401.672 712.332 417.042 716.62C419.378 717.271 421.592 718.36 423.862 719.247C424.031 719.508 424.272 719.836 424.179 720.073C420.901 728.51 417.526 736.901 411.992 744.203C410.475 744.863 408.985 744.509 407.543 743.981C387.057 736.475 366.86 728.375 349.468 714.744C331.681 700.805 316.669 684.353 304.804 665.077C304.23 664.143 304.014 663.107 303.65 662.112Z" fill="#AFA394"/>
<path d="M582.281 585.18C580.661 567.376 581.831 549.526 581.378 531.703C581.31 529.003 582.325 526.618 583.446 524.294C592.868 504.754 600.102 484.506 603.397 462.979C603.601 461.652 603.811 460.399 605.429 460.557C612.472 461.243 618.066 458.433 622.466 452.883C624.057 454.992 623.554 456.724 623.557 458.313C623.59 474.331 623.713 490.353 623.49 506.368C623.311 519.229 620.261 531.606 616.441 543.835C612.614 556.084 610.582 568.604 610.557 581.519C610.546 587.265 610.528 593.016 610.6 598.764C606.141 599.945 603.288 596.435 599.877 594.839C595.365 592.728 591.116 590.045 586.273 588.657C584.373 588.114 583.259 586.742 582.281 585.18Z" fill="#C7BFAF"/>
<path d="M323.879 577.767C324.007 562.806 319.654 548.68 315.826 534.454C313.451 525.624 311.891 516.671 311.89 507.492C311.888 489.977 311.889 472.462 311.889 454.212C314.106 455.828 315.725 457.13 317.465 458.241C319.124 459.301 321.032 461.137 322.619 460.939C329.273 460.108 330.059 464.377 331.178 469.217C335.507 487.954 341.995 505.941 350.546 523.187C351.678 525.472 352.13 528.075 352.266 530.686C353.221 549.114 353.29 567.538 352.133 585.96C349.355 589.378 344.925 589.626 341.372 591.56C336.841 594.027 332.07 596.011 327.492 598.391C325.064 599.654 323.567 599.349 324.637 596.082C324.633 595.796 324.637 595.511 324.647 595.227C323.504 589.445 324.945 583.551 323.879 577.767Z" fill="#C8C0AF"/>
<path d="M411.784 240.438C406.428 241.314 401.06 242.121 395.719 243.078C367.295 248.17 351.428 270.945 347.564 296.219C346.007 306.4 346.59 316.44 348.446 326.482C348.127 326.573 347.807 326.664 347.488 326.756C344.184 323.384 340.504 321.653 335.868 324.094C331.982 324.868 334.156 321.36 333.079 320.148C332.582 316.413 330.76 313.647 327.081 312.459C323.236 311.217 320.88 313.778 318.561 316.149C316.886 317.862 315.355 319.717 313.76 321.508C312.513 320.549 312.5 319.135 312.433 317.77C310.815 285.033 320.939 256.711 344.714 233.833C354.673 224.25 366.822 219.332 380.887 219.912C386.155 220.129 390.483 221.631 393.598 226.544C397.002 231.913 401.843 235.883 408.293 237.547C409.702 237.91 411.823 238.05 411.784 240.438Z" fill="#392320"/>
<path d="M411.798 743.713C415.82 735.557 419.842 727.401 423.864 719.246C439.38 722.5 455.03 724.115 470.919 723.788C491.03 723.374 510.397 719.453 529.193 712.441C530.298 711.762 531.436 712.209 532.132 712.89C538.499 719.118 544.836 725.393 547.809 734.14C547.554 734.886 547.053 735.435 546.438 735.902C534.735 741.664 522.261 745.108 509.596 747.826C493.916 751.19 477.982 753.007 461.974 752.314C446.022 751.623 430.064 750.247 414.526 746.062C413.361 745.578 411.711 745.646 411.798 743.713Z" fill="#FDF9F0"/>
<path d="M547.53 733.62C543.044 727.237 538.683 720.756 533.177 715.165C532.027 713.996 531.055 712.565 529.192 712.441C551.073 704.183 570.809 692.318 586.216 674.682C592.915 667.013 599.115 658.528 603.134 648.631C605.895 641.831 609.629 635.384 611.798 628.281C612.027 627.533 612.451 626.806 613.318 626.823C614.359 626.842 614.213 627.819 614.437 628.51C617.981 639.465 622.389 650.075 627.361 660.45C628.051 661.891 628.274 663.335 628.24 664.874C628.586 667.701 626.168 669.13 624.926 671.082C611.645 691.964 594.42 708.872 573.503 722.123C567.051 726.211 560.468 729.966 553.543 733.158C551.563 734.07 549.657 735.029 547.53 733.62Z" fill="#AFA595"/>
<path d="M512.664 401.802C516.375 395.749 522.625 393.217 528.678 390.592C536.694 387.115 545.511 387.024 553.901 385.147C566.277 382.379 571.315 390.779 576.784 398.929C575.202 402.618 571.619 404.004 568.504 405.712C551.15 415.222 533.734 415.429 516.408 405.533C514.845 404.64 513.095 403.863 512.664 401.802Z" fill="#E7C0AA"/>
<path d="M498.787 379.85C497.164 379.448 495.454 379.248 493.943 378.589C492.269 377.859 489.648 377.69 489.821 375.121C489.978 372.781 491.84 371.365 494.074 370.967C500.177 369.879 506.305 368.936 512.43 367.98C527.059 365.696 541.68 363.359 556.327 361.195C567.376 359.562 578.46 358.165 589.528 356.663C591.267 356.921 591.95 358.377 592.823 359.6C593.937 361.163 593.929 362.061 591.692 362.725C577.262 367.003 563.27 372.753 548.542 376.007C533.829 379.259 518.959 381.315 503.809 379.894C502.148 379.739 500.462 379.858 498.787 379.85Z" fill="#3C2321"/>
<path d="M345.809 356.857C366.19 359.552 386.589 362.081 406.83 365.787C417.64 367.767 428.589 368.986 439.465 370.614C441.475 370.915 444.26 370.812 444.566 373.378C444.865 375.889 442.579 377.211 440.424 378.139C438.333 379.038 436.235 379.93 433.89 379.894C414.173 381.31 394.853 378.94 375.943 373.395C366.486 370.622 357.004 367.835 347.908 363.977C342.698 361.768 342.746 361.655 345.809 356.857Z" fill="#3C221F"/>
<path d="M364.106 402.675C365.585 396.918 368.036 391.599 371.39 386.702C372.296 385.38 373.808 384.443 375.269 384.616C388.129 386.142 401.36 386.309 412.906 393.302C416.414 395.427 420.445 397.29 421.881 401.745C421.645 402.878 420.868 403.619 419.97 404.214C403.081 415.412 382.933 415.383 366.273 405.475C365.208 404.842 364.315 404.005 364.106 402.675Z" fill="#E6C0A9"/>
<path d="M282.433 669.433C279.653 674.866 276.194 679.823 271.935 684.199C271.278 684.874 270.545 686.221 269.367 684.922C268.555 684.026 269.385 683.298 269.927 682.55C280.177 668.395 285.602 652.74 286.421 635.124C286.882 625.213 286.884 615.324 286.997 605.428C287.044 601.37 286.514 597.289 285.406 593.333C285.054 577.74 282.266 562.378 278.424 547.447C274.032 530.376 274.777 514.249 281.209 498.104C282.052 495.987 282.717 493.799 283.464 491.644C287.228 496.113 282.992 500.227 282.748 504.51C282.571 507.612 281.428 510.822 280.311 513.697C276.962 522.318 278.703 530.546 280.396 539.125C283.677 555.751 286.89 572.394 289.056 589.238C291.027 604.563 291.024 619.909 290.643 635.252C290.349 647.124 287.825 658.678 282.433 669.433Z" fill="#A24739"/>
<path d="M655.754 495.226C657.539 504.266 660.27 513.251 660.811 522.366C661.251 529.776 658.796 537.292 657.034 544.654C652.624 563.088 648.89 581.63 648.265 600.657C646.382 601.033 646.52 602.512 646.547 603.882C646.766 615.008 645.065 626.075 645.62 637.216C646.369 652.261 648.292 666.91 658.179 679.234C659.856 681.325 659.978 682.692 659.735 686.139C652.149 678.41 646.999 669.696 644.834 659.68C641.709 645.217 641.541 630.531 642.569 615.718C643.315 604.961 644.336 594.252 645.66 583.574C647.134 571.688 649.989 560.037 652.514 548.337C654.08 541.08 655.734 533.842 657.315 526.588C658.188 522.58 657.059 518.659 656.16 514.884C654.82 509.253 654.353 503.516 653.276 497.869C652.826 495.501 654.054 495.282 655.754 495.226Z" fill="#A24C3D"/>
<path d="M411.798 743.713C412.398 744.787 413.534 744.494 414.454 744.755C414.574 745.409 414.242 746.159 413.718 746.047C411.377 745.553 412.391 747.612 411.789 748.413C410.927 748.427 410.065 748.441 409.203 748.455C402.62 744.523 395.102 742.918 388.101 740.015C369.872 732.458 353.015 722.777 337.931 709.89C323.411 697.484 312.016 682.622 301.759 666.728C302.389 665.189 303.019 663.65 303.649 662.111C309.217 668.154 312.756 675.643 318.008 681.951C333.301 700.322 350.306 716.522 371.876 727.497C383.395 733.358 395.324 738.163 407.384 742.706C408.783 743.233 410.323 743.386 411.798 743.713Z" fill="#948677"/>
<path d="M547.53 733.62C553.819 732.76 559.183 729.48 564.41 726.372C583.014 715.312 599.918 702.256 613.464 684.996C618.621 678.426 622.751 671.158 628.24 664.873C630.118 665.441 631.402 666.576 631.783 668.575C626.896 674.732 622.637 681.337 617.554 687.379C609.763 696.643 601.436 705.183 592.242 713.139C581.494 722.439 569.096 728.536 556.738 734.928C554.963 735.847 553.262 736.781 551.987 738.352L552.004 738.33C550.639 736.506 547.102 737.853 546.665 734.673C546.953 734.323 547.242 733.971 547.53 733.62Z" fill="#958877"/>
<path d="M512.664 401.802C531.397 415.254 555.788 414.518 573.735 400.858C574.688 400.132 575.765 399.569 576.784 398.929C577.866 399.376 579.476 398.16 580.093 399.571C580.688 400.933 579.136 401.609 578.371 402.47C576.659 404.398 574.9 406.283 573.161 408.186C566.725 411.773 560.65 416.084 553.138 417.409C537.074 420.241 522.67 417.363 510.775 405.48C510.411 404.37 508.832 403.584 509.416 402.326C510.076 400.903 511.573 402.057 512.664 401.802Z" fill="#5F1A16"/>
<path d="M364.106 402.674C381.961 414.024 400.047 414.579 418.375 403.839C419.55 403.151 420.712 402.444 421.88 401.745C423.237 401.451 425.151 399.816 425.838 401.47C426.784 403.743 423.654 404.568 422.823 406.366C405.046 422.339 380.707 422.355 361.404 407.216C359.481 404.551 356.412 402.831 354.693 399.417C358.756 398.821 361.024 401.942 364.106 402.674Z" fill="#5E1716"/>
<path d="M316.504 382.627C294.331 411.748 273.178 441.601 253.818 472.741C253.179 472.291 252.539 471.841 251.9 471.391C269.656 438.733 291.844 409.055 314.438 379.649C315.603 380.31 315.901 381.574 316.504 382.627Z" fill="#B66E54"/>
<path d="M582.281 585.18C588.578 588.629 595.551 590.627 601.728 594.376C604.535 596.079 607.321 597.962 610.602 598.766C610.64 599.219 610.756 599.682 610.707 600.127C610.494 602.027 611.767 604.514 609.945 605.712C607.568 607.274 606.422 604.128 604.609 603.463C599.017 601.411 594.55 597.247 589.02 595.264C584.035 593.477 581.282 590.715 582.281 585.18Z" fill="#AEA291"/>
<path d="M324.637 596.081C324.504 598.711 325.443 598.151 327.203 597.232C335.295 593.007 343.479 588.957 352.133 585.96C353.253 590.817 350.926 593.299 346.61 595.197C339.763 598.206 332.776 601.007 326.434 605.049C324.314 606.4 323.642 605.713 323.812 603.601C324.014 601.091 322.975 598.43 324.637 596.081Z" fill="#B2A292"/>
<path d="M605.511 457.292C605.016 452.761 606.555 448.707 607.41 444.653C609.124 436.527 611.444 428.528 613.504 420.475C613.682 419.782 613.487 418.813 614.531 418.744C615.407 418.685 615.851 419.416 616.1 420.136C616.739 421.987 617.672 423.829 616.924 425.866C613.378 435.524 610.357 445.344 607.683 455.277C607.476 456.043 607.264 457.099 605.511 457.292Z" fill="#A04536"/>
<path d="M328.694 459.772C324.084 453.175 317.884 431.651 319.274 426.994C323.663 437.128 326.396 447.739 328.694 459.772Z" fill="#993F32"/>
<path d="M294.387 677.705C292.571 680.764 290.754 683.824 288.938 686.884C288.917 679.165 289.208 678.675 294.387 677.705Z" fill="#BF7768"/>
<path d="M323.879 577.767C325.585 583.522 324.336 589.408 324.647 595.226C322.888 589.472 324.085 583.588 323.879 577.767Z" fill="#B2A292"/>
<path d="M411.784 240.438C405.822 237.622 398.953 236.328 394.875 230.345C394.535 229.848 393.894 229.533 393.629 229.013C388.527 218.984 379.506 220.471 371.054 221.88C351.853 225.082 340.114 238.312 330.055 253.572C316.418 274.26 312.301 297.209 313.761 321.506C313.7 322.736 312.765 323.298 311.916 323.927C308.781 314.522 308.84 305.006 309.82 295.193C311.066 282.699 313.485 270.612 318.377 259.065C320.914 253.075 323.513 247.083 328.114 241.536C318.984 240.541 312.966 235.936 309.957 227.617C307.489 224.84 306.769 221.763 308.489 218.346C314.387 206.629 319.491 194.5 326.968 183.611C333.429 174.202 340.352 165.391 351.333 160.792C358.802 157.665 372.386 160.591 377.726 166.674C378.537 167.599 379.235 168.544 379.298 169.88C379.648 177.313 380.436 184.708 381.247 192.103C381.633 195.626 379.373 195.516 377.141 194.554C372.171 192.415 367.121 191.305 361.633 191.135C352.137 190.841 344.511 194.802 337.345 200.291C336.428 200.994 335.647 201.88 334.638 202.333C347.426 193.397 361.232 190.132 376.531 194.833C381.431 196.338 381.586 195.898 381.173 190.895C380.291 180.214 377.849 169.576 380.955 158.776C383.753 149.05 387.538 139.911 395.43 133.305C407.225 123.43 420.4 124.293 433.78 129.544C446.645 134.594 457.262 142.915 467.237 152.344C488.562 172.503 504.634 196.584 519.631 221.486C522.283 225.891 525.813 229.838 527.229 234.951C528.012 237.177 530.852 239.337 529.496 241.466C528.113 243.636 525.254 241.614 523.115 241.301C509.737 239.349 496.744 235.942 484.017 231.294C468.041 225.458 453.902 216.243 439.186 208.039C431.274 203.628 423.129 199.397 413.47 200.051C403.515 200.724 396.923 206.339 392.046 214.32C390.699 216.523 391.405 219.384 392.854 221.741C398.82 231.445 407.585 237.125 418.576 239.562C420.631 240.018 422.773 240.109 424.663 241.172C420.321 241.787 416.105 240.2 411.784 240.438Z" fill="#804B45"/>
<path d="M333.08 320.147C334.389 321.194 332.96 324.175 335.868 324.093C331.091 332.326 324.433 339.105 318.166 346.098C304.858 360.945 290.79 375.097 279.174 391.424C276.022 395.854 271.622 399.379 267.973 403.479C261.015 411.297 256.766 420.855 251.724 429.853C246.125 439.846 239.456 449.133 233.609 458.948C233.029 459.921 232.342 461.104 230.482 460.825C230.636 457.465 232.913 455.033 234.456 452.468C242.861 438.496 251.247 424.52 258.997 410.167C261.47 405.586 264.603 401.473 268.499 397.929C277.009 390.19 283.088 380.367 290.628 371.774C302.196 358.588 313.882 345.53 325.979 332.827C329.353 329.283 333.656 326.012 333.08 320.147Z" fill="#BA6E55"/>
<path d="M101.953 897.679C80.8857 880.637 58.9362 864.742 37.5328 848.136C36.0939 847.02 34.7549 845.759 33.4688 844.467C32.5587 843.552 32.0221 842.495 33.2314 841.303C34.2605 840.289 35.2748 840.072 36.4496 841.004C38.5964 842.707 40.7224 844.438 42.9037 846.096C63.494 861.75 84.0943 877.392 104.692 893.036C104.113 894.781 104.404 897.038 101.953 897.679Z" fill="#ACA592"/>
<path d="M110.967 876.763C104.786 868.262 100.035 858.884 94.6714 849.888C85.8646 835.117 77.4695 820.1 68.9262 805.172C67.9471 803.461 67.0024 801.706 66.2838 799.877C65.8086 798.666 65.2405 797.041 66.9126 796.27C68.5657 795.508 69.3158 796.851 70.0374 798.1C74.8301 806.398 79.6597 814.675 84.4649 822.965C93.6953 838.891 102.92 854.82 112.132 870.755C112.509 871.407 112.739 872.144 113.037 872.841C112.692 874.33 113.419 876.385 110.967 876.763Z" fill="#A9A391"/>
<path d="M117.621 856.493C116.915 842.067 114.827 827.786 113.128 813.463C112.342 806.837 111.697 800.192 111.089 793.546C110.977 792.322 110.564 790.679 112.748 790.481C114.841 790.291 114.907 791.891 115.074 793.144C115.941 799.604 116.812 806.069 117.464 812.554C118.631 824.158 119.825 835.754 121.822 847.255C122.132 849.043 122.067 850.896 122.176 852.718C121.962 855.844 120.431 858.447 118.888 861.165C117.809 859.702 118.985 857.748 117.621 856.493Z" fill="#9D988A"/>
<path d="M282.532 360.537C278.683 351.445 280.512 342.709 284.353 334.173C284.77 333.247 286.184 332.771 287.136 332.086C290.677 336.129 293.991 340.293 294.532 345.936C291.126 351.29 286.386 355.549 282.532 360.537Z" fill="#A14137"/>
<path d="M605.141 325.699C605.213 325.371 605.284 325.043 605.355 324.715C609.53 324.236 608.431 328.927 610.775 330.243C620.805 341.49 630.765 352.8 640.884 363.966C652.329 376.595 661.289 391.281 673.83 403.034C679.554 408.399 682.134 416.054 685.7 422.921C691.607 434.294 698.118 445.313 704.817 456.23C706.226 458.527 707.276 461.043 708.674 463.819C705.741 464.296 705.172 462.223 704.285 460.884C694.688 446.385 685.354 431.69 678.375 415.737C674.801 407.565 668.063 402.275 662.684 395.742C651.653 382.342 640.615 368.947 629.479 355.633C622.736 347.572 615.83 339.646 608.938 331.71C607.352 329.882 605.781 328.099 605.141 325.699Z" fill="#BA705E"/>
<path d="M829.929 905.921C844.39 893.108 858.85 880.293 873.313 867.483C879.123 862.337 884.922 857.178 890.772 852.077C891.676 851.289 892.756 850.598 893.874 850.188C895.089 849.742 896.193 850.138 897.033 851.33C897.999 852.701 897.288 853.747 896.432 854.552C892.89 857.886 889.292 861.162 885.638 864.373C868.035 879.842 850.408 895.282 832.79 910.732C830.122 910.148 829.959 908.074 829.929 905.921Z" fill="#A6A08E"/>
<path d="M816.953 872C829.386 846.267 842.254 820.75 855.546 795.451C856.429 793.772 856.735 789.834 859.8 791.471C863.251 793.316 859.715 795.612 858.841 797.428C852.925 809.725 846.69 821.876 840.454 834.002C833.87 846.808 828.293 860.168 820.429 872.308C820.024 872.935 819.448 873.452 818.951 874.02C816.516 875.097 817.223 873.066 816.953 872Z" fill="#99977E"/>
<path d="M810.471 856.365C811.384 839.523 813.331 822.774 815.021 806.003C815.371 802.531 814.912 799.009 815.972 795.566C816.429 794.081 816.311 792.261 818.439 792.502C820.462 792.731 819.896 794.579 819.806 795.809C819.168 804.598 818.467 813.383 817.724 822.164C816.93 831.544 816.115 840.923 815.217 850.294C814.802 854.621 814.661 859.03 812.54 863.008C809.459 861.538 811.055 858.612 810.471 856.365Z" fill="#9F9A84"/>
<path d="M648.326 332.1C652.728 340.47 655.885 349.019 652.13 358.562C647.757 353.82 643.644 348.867 640.011 343.53C641.161 338.541 644.548 335.177 648.326 332.1Z" fill="#A03D35"/>
<path d="M610.775 330.244C607.892 329.456 608.064 325.674 605.354 324.716C606.886 318.208 613.379 315.728 619.109 319.574C623.595 322.585 626.681 326.932 629.742 331.271C624.871 330.247 621.161 326.714 616.586 325.153C614.412 324.411 611.606 322.571 609.714 324.392C608.182 325.867 610.733 328.169 610.775 330.244Z" fill="#CA8C79"/>
<path d="M546.664 734.674C548.244 736.186 551.172 735.728 552.004 738.33C544.876 739.958 538.384 743.399 531.428 745.526C513.826 750.911 495.875 753.883 477.46 754.93C456.818 756.104 436.558 754.039 416.384 750.127C414.782 749.816 413.097 749.578 411.789 748.413C410.431 745.558 413.345 745.814 414.453 744.755C459.561 754.991 503.718 752.773 546.664 734.674Z" fill="#AFA394"/>
<path d="M887.655 809.524C887.716 811.017 887.005 811.632 886.436 812.346C871.004 831.697 855.584 851.058 840.149 870.407C839.582 871.118 838.921 871.765 838.247 872.379C837.485 873.073 836.741 874.109 835.522 873.28C834.28 872.434 834.451 871.337 834.977 870.06C836.697 865.884 839.824 862.699 842.54 859.251C855.523 842.765 868.611 826.362 881.628 809.903C883.157 807.969 884.626 806.241 887.179 808.309C887.574 808.628 887.608 809.392 887.655 809.524Z" fill="#9FA18D"/>
<path d="M527.228 234.953C522.427 229.755 519.499 223.333 515.835 217.403C500.42 192.449 483.688 168.532 461.721 148.769C451.315 139.408 439.738 131.552 426.07 128.197C409.296 124.08 395.443 128.511 386.07 148.136C380.934 158.891 378.851 170.188 381.269 182.206C382.265 187.159 381.942 192.375 382.25 198.041C363.635 190.562 346.918 193.627 331.711 205.807C333.935 200.888 342.722 193.779 348.758 191.915C358.57 188.885 368.217 188.642 377.562 193.535C380.094 194.861 380.944 194.034 380.504 191.43C379.412 184.971 378.568 178.492 378.805 171.924C378.931 168.425 376.516 166.691 374.021 165.258C360.819 157.678 350.999 159.189 340.137 169.614C327.973 181.287 320.215 195.967 313.499 211.226C313.069 212.204 312.696 213.236 312.092 214.101C309.176 218.276 307.798 222.659 309.958 227.619C307.653 230.265 306.406 232.812 306.875 236.842C307.474 241.984 304.659 246.718 301.3 250.708C299.051 253.379 297.36 255.608 299.226 259.552C301.426 264.203 295.859 264.62 294.074 267.277C294.72 258.743 294.491 250.375 297.862 242.207C300.51 235.791 303.005 229.209 305.085 222.537C306.062 219.404 306.095 216.388 301.781 215.623C302.763 215.184 303.011 213.705 304.368 213.796C306.121 210.967 309.074 208.652 308.254 204.721C315.488 189.883 324.476 176.307 336.475 164.815C344.405 157.221 353.62 153.508 364.569 155.28C370.014 156.162 373.93 160.111 378.267 163.579C380.032 160.988 379.818 157.885 380.616 155.106C383.66 144.509 389.218 135.731 398.488 129.502C403.048 126.439 408.201 125.359 413.553 124.91C428.506 123.656 442.252 126.992 454.808 135.358C465.536 142.506 475.044 150.966 483.342 160.804C488.246 166.617 492.137 173.83 498.142 178.06C511.522 187.485 522.372 199.416 533.749 210.828C541.581 218.684 548.839 227.164 555.822 235.795C559.342 240.146 562.455 243.613 568.584 241.396C569.67 241.003 571.008 241.307 572.229 241.29C568.705 245.593 565.274 246.327 561.053 243.389C559.52 242.323 557.994 241.932 556.402 242.522C553.74 243.509 551.039 243.053 548.35 243.145C548.926 240.473 550.996 241.425 552.436 241.335C540.23 226.701 527.103 212.683 514.462 200.17C522.356 211.906 530.319 225.21 537.091 239.215C537.549 240.161 538.004 241.175 537.394 242.258C533.716 242.072 531.504 239.862 531.101 236.514C530.672 232.937 529.359 233.379 527.228 234.953Z" fill="#442621"/>
<path d="M308.254 204.72C310.247 209.151 307.956 211.75 304.369 213.795C304.312 210.192 307.658 208.045 308.254 204.72Z" fill="#392320"/>
<path d="M508.117 298.127C504.237 297.823 502.012 294.717 499.508 292.493C492.278 286.075 483.762 281.582 475.983 276.006C475.786 275.864 475.231 276.221 474.842 276.346C470.473 265.002 466.097 253.659 461.74 242.31C460.307 238.578 463.07 239.329 464.829 239.714C469.902 240.823 473.998 243.834 477.595 247.365C492.137 261.637 501.673 278.963 508.117 298.127Z" fill="#C17767"/>
<path d="M537.394 242.255C529.775 226.304 520.507 211.3 511.189 196.223C526.666 210.222 540.7 225.544 554.206 241.615C552.486 243.209 549.887 241.321 548.351 243.143C544.708 242.723 540.916 244.155 537.394 242.255Z" fill="#7D4942"/>
<path d="M496.586 484.29C498.457 495.706 491.125 502.168 483.543 507.815C471.062 517.111 458.282 515.655 446.362 504.467C443.697 501.965 440.986 499.477 438.986 496.353C436.264 492.1 434.643 487.657 436.321 482.544C442.979 462.256 450.801 442.449 460.668 423.485C460.85 423.134 461.285 422.913 462.004 422.272C462.574 428.023 462.791 433.268 462.543 438.725C461.921 452.449 462.244 466.217 462.314 479.968C462.327 482.529 462.685 485.147 463.312 487.631C464.196 491.134 466.121 493.938 470.313 493.42C477.539 492.528 484.756 491.525 491.941 490.35C495.105 489.832 496.005 487.092 496.586 484.29Z" fill="#C27867"/>
<path d="M424.606 546.321C424.757 543.21 426.725 542.176 428.443 541.115C433.871 537.764 439.96 536.153 446.197 535.749C458.943 534.924 471.725 534.833 484.489 535.506C492.148 535.91 499.641 537.185 506.134 541.712C507.306 542.53 509.372 543.418 508.588 545.061C507.838 546.634 506.176 545.136 504.952 544.816C499.051 543.273 493.081 542.129 486.968 542.072C479.484 542.002 471.998 542.147 464.514 542.086C451.166 541.978 437.779 541.342 424.606 546.321Z" fill="#B7594C"/>
<path d="M463.698 558.452C470.562 558.678 476.158 559.076 481.673 560.271C482.57 560.466 483.698 560.568 483.631 561.694C483.598 562.241 482.756 562.955 482.125 563.218C472.066 567.399 461.879 568.364 451.54 564.225C450.378 563.759 449.023 563.041 449.109 561.768C449.218 560.152 450.969 559.669 452.234 559.647C456.502 559.572 460.625 557.921 463.698 558.452Z" fill="#C16F5B"/>
<path d="M474.88 501.575C478.115 497.755 481.294 496.053 485.381 496.245C486.267 496.287 487.361 496.186 487.563 497.366C487.778 498.626 486.763 498.88 485.83 498.878C482.288 498.872 479.262 500.941 474.88 501.575Z" fill="#94362A"/>
<path d="M456.617 501.352C452.69 499.668 449.225 498.019 445.063 497.668C449.241 494.808 453.495 496.145 456.617 501.352Z" fill="#92372C"/>
</g>
<defs>
<clipPath id="clip0_1400_3996">
<rect width="940" height="940" fill="white"/>
</clipPath>
</defs>
</svg>
