<svg width="940" height="902" viewBox="0 0 940 902" fill="none" xmlns="http://www.w3.org/2000/svg">
<path fill-rule="evenodd" clip-rule="evenodd" d="M927.98 0H25.9109V902H927.98V0Z" fill="#CDB693"/>
<path fill-rule="evenodd" clip-rule="evenodd" d="M240.674 754.613C240.674 754.613 70.048 419.14 279.672 277.706C279.672 277.706 318.94 257.191 333.174 182.852C347.407 108.513 558.599 -12.8162 616.483 394.445C674.367 801.707 750.344 760.499 608.825 772.401L240.674 754.613Z" fill="#9E835C"/>
<mask id="mask0_1400_4065" style="mask-type:luminance" maskUnits="userSpaceOnUse" x="288" y="256" width="254" height="291">
<path d="M512.213 267.139C512.213 267.139 437.111 224.659 385.404 311.257L293.875 438.039L288.792 454.717C288.792 454.717 346.394 552.443 423.003 545.738C423.003 545.738 485.411 546.201 434.658 472.188C434.658 472.188 432.097 463.652 442.332 443.977C442.332 443.977 489.641 416.176 514.222 390.603C514.222 390.603 543.186 326.948 541.208 292.464L512.213 267.139Z" fill="white"/>
</mask>
<g mask="url(#mask0_1400_4065)">
<path fill-rule="evenodd" clip-rule="evenodd" d="M512.213 267.139C512.213 267.139 437.111 224.659 385.404 311.257L293.875 438.039L288.792 454.717C288.792 454.717 346.394 552.443 423.003 545.738C423.003 545.738 485.411 546.201 434.658 472.188C434.658 472.188 432.097 463.652 442.332 443.977C442.332 443.977 489.641 416.176 514.222 390.603C514.222 390.603 543.186 326.948 541.208 292.464L512.213 267.139Z" fill="#F9D49D"/>
</g>
<mask id="mask1_1400_4065" style="mask-type:luminance" maskUnits="userSpaceOnUse" x="288" y="256" width="254" height="291">
<path d="M512.213 267.139C512.213 267.139 437.111 224.659 385.404 311.257L293.875 438.039L288.792 454.717C288.792 454.717 346.394 552.443 423.003 545.738C423.003 545.738 485.411 546.201 434.658 472.188C434.658 472.188 432.097 463.652 442.332 443.977C442.332 443.977 489.641 416.176 514.222 390.603C514.222 390.603 543.186 326.948 541.208 292.464L512.213 267.139Z" fill="white"/>
</mask>
<g mask="url(#mask1_1400_4065)">
<path fill-rule="evenodd" clip-rule="evenodd" d="M465.154 303.272C465.154 303.272 413.095 316.75 418.094 371.194C418.094 371.194 422.901 405.405 419.263 430.459C419.263 430.459 376.445 391.391 397.141 333.832C397.141 333.832 414.82 304.825 465.154 303.272Z" fill="#F9CB88"/>
</g>
<mask id="mask2_1400_4065" style="mask-type:luminance" maskUnits="userSpaceOnUse" x="288" y="256" width="254" height="291">
<path d="M512.213 267.139C512.213 267.139 437.111 224.659 385.404 311.257L293.875 438.039L288.792 454.717C288.792 454.717 346.394 552.443 423.003 545.738C423.003 545.738 485.411 546.201 434.658 472.188C434.658 472.188 432.097 463.652 442.332 443.977C442.332 443.977 489.641 416.176 514.222 390.603C514.222 390.603 543.186 326.948 541.208 292.464L512.213 267.139Z" fill="white"/>
</mask>
<g mask="url(#mask2_1400_4065)">
<path fill-rule="evenodd" clip-rule="evenodd" d="M512.048 400.764C512.048 400.764 523.417 357.206 526.007 338.789C526.007 338.789 539.403 306.131 501.411 290.414C501.411 290.414 485.928 309.951 435.841 317.825C435.841 317.825 405.901 318.727 399.117 350.649C399.117 350.649 389.725 398.182 417.238 422.738C417.238 422.738 441.687 429.34 456.377 437.469L446.206 448.394L439.089 471.389C439.089 471.389 482.17 533.007 441.351 548.92L429.559 537.236C429.559 537.236 439.514 502.798 424.337 482.823C424.337 482.823 378.431 415.261 376.143 361.29C376.143 361.29 370.952 332.882 399.177 305.783C399.177 305.783 483.84 237.681 535.707 282.63C535.707 282.63 582.378 308.66 512.048 400.764Z" fill="#F3B05F"/>
</g>
<mask id="mask3_1400_4065" style="mask-type:luminance" maskUnits="userSpaceOnUse" x="288" y="256" width="254" height="291">
<path d="M512.213 267.139C512.213 267.139 437.111 224.659 385.404 311.257L293.875 438.039L288.792 454.717C288.792 454.717 346.394 552.443 423.003 545.738C423.003 545.738 485.411 546.201 434.658 472.188C434.658 472.188 432.097 463.652 442.332 443.977C442.332 443.977 489.641 416.176 514.222 390.603C514.222 390.603 543.186 326.948 541.208 292.464L512.213 267.139Z" fill="white"/>
</mask>
<g mask="url(#mask3_1400_4065)">
<path fill-rule="evenodd" clip-rule="evenodd" d="M307.29 403.003C307.29 403.003 377.756 502.563 389.146 556.264C389.146 556.264 293.342 513.529 280.363 444.718L307.29 403.003Z" fill="#F3B05F"/>
</g>
<mask id="mask4_1400_4065" style="mask-type:luminance" maskUnits="userSpaceOnUse" x="288" y="256" width="254" height="291">
<path d="M512.213 267.139C512.213 267.139 437.111 224.659 385.404 311.257L293.875 438.039L288.792 454.717C288.792 454.717 346.394 552.443 423.003 545.738C423.003 545.738 485.411 546.201 434.658 472.188C434.658 472.188 432.097 463.652 442.332 443.977C442.332 443.977 489.641 416.176 514.222 390.603C514.222 390.603 543.186 326.948 541.208 292.464L512.213 267.139Z" fill="white"/>
</mask>
<g mask="url(#mask4_1400_4065)">
<path fill-rule="evenodd" clip-rule="evenodd" d="M464.854 387.959C464.854 387.959 465.902 385.057 474.107 388.596C474.107 388.596 479.933 390.346 478.639 393.856C478.639 393.856 465.578 397.262 464.854 387.959Z" fill="#F3B05F"/>
</g>
<mask id="mask5_1400_4065" style="mask-type:luminance" maskUnits="userSpaceOnUse" x="288" y="256" width="254" height="291">
<path d="M512.213 267.139C512.213 267.139 437.111 224.659 385.404 311.257L293.875 438.039L288.792 454.717C288.792 454.717 346.394 552.443 423.003 545.738C423.003 545.738 485.411 546.201 434.658 472.188C434.658 472.188 432.097 463.652 442.332 443.977C442.332 443.977 489.641 416.176 514.222 390.603C514.222 390.603 543.186 326.948 541.208 292.464L512.213 267.139Z" fill="white"/>
</mask>
<g mask="url(#mask5_1400_4065)">
<path fill-rule="evenodd" clip-rule="evenodd" d="M444.529 408.734C443.596 408.592 438.34 409.988 446.457 415.007C448.803 416.458 460.308 419.667 450.949 411.804C450.949 411.804 448.654 409.364 444.529 408.734Z" fill="#F3B05F"/>
</g>
<mask id="mask6_1400_4065" style="mask-type:luminance" maskUnits="userSpaceOnUse" x="288" y="256" width="254" height="291">
<path d="M512.213 267.139C512.213 267.139 437.111 224.659 385.404 311.257L293.875 438.039L288.792 454.717C288.792 454.717 346.394 552.443 423.003 545.738C423.003 545.738 485.411 546.201 434.658 472.188C434.658 472.188 432.097 463.652 442.332 443.977C442.332 443.977 489.641 416.176 514.222 390.603C514.222 390.603 543.186 326.948 541.208 292.464L512.213 267.139Z" fill="white"/>
</mask>
<g mask="url(#mask6_1400_4065)">
<path fill-rule="evenodd" clip-rule="evenodd" d="M438.711 341.149C440.964 337.649 444.398 341.322 450.776 345.039C450.776 345.039 462.111 351.953 460.352 354.846C459.033 357.014 454.548 356.564 446.688 351.585C443.4 349.503 435.687 345.847 438.711 341.149Z" fill="#FDE5C1"/>
</g>
<mask id="mask7_1400_4065" style="mask-type:luminance" maskUnits="userSpaceOnUse" x="288" y="256" width="254" height="291">
<path d="M512.213 267.139C512.213 267.139 437.111 224.659 385.404 311.257L293.875 438.039L288.792 454.717C288.792 454.717 346.394 552.443 423.003 545.738C423.003 545.738 485.411 546.201 434.658 472.188C434.658 472.188 432.097 463.652 442.332 443.977C442.332 443.977 489.641 416.176 514.222 390.603C514.222 390.603 543.186 326.948 541.208 292.464L512.213 267.139Z" fill="white"/>
</mask>
<g mask="url(#mask7_1400_4065)">
<path fill-rule="evenodd" clip-rule="evenodd" d="M512.613 382.296C511.941 385.023 509.285 383.056 504.915 381.512C504.915 381.512 497.093 378.56 497.588 376.32C497.96 374.643 500.64 374.256 506.098 376.429C508.382 377.338 513.514 378.633 512.613 382.296Z" fill="#FDE5C1"/>
</g>
<mask id="mask8_1400_4065" style="mask-type:luminance" maskUnits="userSpaceOnUse" x="288" y="256" width="254" height="291">
<path d="M512.213 267.139C512.213 267.139 437.111 224.659 385.404 311.257L293.875 438.039L288.792 454.717C288.792 454.717 346.394 552.443 423.003 545.738C423.003 545.738 485.411 546.201 434.658 472.188C434.658 472.188 432.097 463.652 442.332 443.977C442.332 443.977 489.641 416.176 514.222 390.603C514.222 390.603 543.186 326.948 541.208 292.464L512.213 267.139Z" fill="white"/>
</mask>
<g mask="url(#mask8_1400_4065)">
<path fill-rule="evenodd" clip-rule="evenodd" d="M488.693 358.654C488.693 358.654 478.802 363.161 477.814 375.87C477.814 375.87 476.681 383.726 480.286 384.934C480.286 384.934 485.808 385.468 488.747 373.18C488.747 373.18 493.982 356.498 488.693 358.654Z" fill="#FDE5C1"/>
</g>
<mask id="mask9_1400_4065" style="mask-type:luminance" maskUnits="userSpaceOnUse" x="288" y="256" width="254" height="291">
<path d="M512.213 267.139C512.213 267.139 437.111 224.659 385.404 311.257L293.875 438.039L288.792 454.717C288.792 454.717 346.394 552.443 423.003 545.738C423.003 545.738 485.411 546.201 434.658 472.188C434.658 472.188 432.097 463.652 442.332 443.977C442.332 443.977 489.641 416.176 514.222 390.603C514.222 390.603 543.186 326.948 541.208 292.464L512.213 267.139Z" fill="white"/>
</mask>
<g mask="url(#mask9_1400_4065)">
<path fill-rule="evenodd" clip-rule="evenodd" d="M504.817 350.127L506.334 353.379C506.334 353.379 518.736 359.311 524.128 360.819C524.128 360.819 524.493 357.236 516.44 354.429L504.817 350.127Z" fill="#4D1312"/>
</g>
<mask id="mask10_1400_4065" style="mask-type:luminance" maskUnits="userSpaceOnUse" x="288" y="256" width="254" height="291">
<path d="M512.213 267.139C512.213 267.139 437.111 224.659 385.404 311.257L293.875 438.039L288.792 454.717C288.792 454.717 346.394 552.443 423.003 545.738C423.003 545.738 485.411 546.201 434.658 472.188C434.658 472.188 432.097 463.652 442.332 443.977C442.332 443.977 489.641 416.176 514.222 390.603C514.222 390.603 543.186 326.948 541.208 292.464L512.213 267.139Z" fill="white"/>
</mask>
<g mask="url(#mask10_1400_4065)">
<path fill-rule="evenodd" clip-rule="evenodd" d="M450.214 320.05C450.214 320.05 460.353 325.236 473.858 335.864C473.858 335.864 477.896 339.382 480.638 334.776C480.638 334.776 457.469 317.411 450.214 320.05Z" fill="#4D1312"/>
</g>
<path fill-rule="evenodd" clip-rule="evenodd" d="M465.889 387.394C465.889 387.394 466.078 387.793 466.513 388.408C466.607 388.54 466.707 388.664 466.828 388.802C466.968 388.963 467.121 389.121 467.301 389.276C467.411 389.37 467.532 389.457 467.66 389.536C467.755 389.595 467.854 389.647 467.957 389.694C468.197 389.802 468.436 389.897 468.699 389.971C469.264 390.128 469.799 390.21 470.384 390.234C470.495 390.269 470.613 390.207 470.649 390.097C470.683 389.986 470.621 389.867 470.511 389.832C470.061 389.545 469.707 389.2 469.303 388.848C469.121 388.689 468.954 388.534 468.773 388.385C468.695 388.32 468.618 388.258 468.538 388.202C468.427 388.125 468.314 388.054 468.201 387.991C468.013 387.885 467.831 387.804 467.656 387.719C467.502 387.644 467.365 387.587 467.227 387.527C466.573 387.244 466.19 387.087 466.19 387.087C466.106 387.004 465.969 387.005 465.886 387.09C465.803 387.175 465.804 387.311 465.889 387.394Z" fill="black"/>
<mask id="mask11_1400_4065" style="mask-type:luminance" maskUnits="userSpaceOnUse" x="213" y="431" width="364" height="311">
<path d="M332.622 458.467C332.622 458.467 332.017 432.517 387.071 431.518C387.071 431.518 393.437 448.622 394.554 460.885C394.554 460.885 426.118 505.215 435.456 531.201C435.456 531.201 456.269 525.111 463.704 498.017C463.704 498.017 507.936 503.94 532.371 571.786C532.371 571.786 571.139 658.519 576.069 724.72L574.378 740.054L261.175 741.572C261.175 741.572 252.753 611.801 226.708 544.066C226.708 544.066 194.754 476.465 229.51 453.525C229.51 453.525 248.466 434.642 269.421 441.477L272.508 431.983C306.509 434.361 347.799 503.398 347.799 503.398C349.429 504.494 351.399 505.525 354.857 508.414C351.691 492.361 344.064 475.851 332.622 458.467Z" fill="white"/>
</mask>
<g mask="url(#mask11_1400_4065)">
<path fill-rule="evenodd" clip-rule="evenodd" d="M332.622 458.467C332.622 458.467 332.017 432.517 387.071 431.518C387.071 431.518 393.437 448.622 394.554 460.885C394.554 460.885 426.118 505.215 435.456 531.201C435.456 531.201 456.269 525.111 463.704 498.017C463.704 498.017 507.936 503.94 532.371 571.786C532.371 571.786 571.139 658.519 576.069 724.72L574.378 740.054L261.175 741.572C261.175 741.572 252.753 611.801 226.708 544.066C226.708 544.066 194.754 476.465 229.51 453.525C229.51 453.525 248.466 434.642 269.421 441.477L272.508 431.983C306.509 434.361 347.799 503.398 347.799 503.398C349.429 504.494 351.399 505.525 354.857 508.414C351.691 492.361 344.064 475.851 332.622 458.467Z" fill="#D7DAE1"/>
</g>
<mask id="mask12_1400_4065" style="mask-type:luminance" maskUnits="userSpaceOnUse" x="213" y="431" width="364" height="311">
<path d="M332.622 458.467C332.622 458.467 332.017 432.517 387.071 431.518C387.071 431.518 393.437 448.622 394.554 460.885C394.554 460.885 426.118 505.215 435.456 531.201C435.456 531.201 456.269 525.111 463.704 498.017C463.704 498.017 507.936 503.94 532.371 571.786C532.371 571.786 571.139 658.519 576.069 724.72L574.378 740.054L261.175 741.572C261.175 741.572 252.753 611.801 226.708 544.066C226.708 544.066 194.754 476.465 229.51 453.525C229.51 453.525 248.466 434.642 269.421 441.477L272.508 431.983C306.509 434.361 347.799 503.398 347.799 503.398C349.429 504.494 351.399 505.525 354.857 508.414C351.691 492.361 344.064 475.851 332.622 458.467Z" fill="white"/>
</mask>
<g mask="url(#mask12_1400_4065)">
<path fill-rule="evenodd" clip-rule="evenodd" d="M257.435 540.34C257.435 540.34 243.684 550.492 267.925 650.78C292.165 751.068 263.963 700.114 249.767 745.731L263.781 754.064L345.894 753.712L503.732 751.954C503.732 751.954 589.636 759.374 531.286 634.55C531.286 634.55 502.87 531.939 458.773 608.714C458.773 608.714 451.97 638.098 392.708 605.537L257.435 540.34Z" fill="#C9CDD4"/>
</g>
<mask id="mask13_1400_4065" style="mask-type:luminance" maskUnits="userSpaceOnUse" x="213" y="431" width="364" height="311">
<path d="M332.622 458.467C332.622 458.467 332.017 432.517 387.071 431.518C387.071 431.518 393.437 448.622 394.554 460.885C394.554 460.885 426.118 505.215 435.456 531.201C435.456 531.201 456.269 525.111 463.704 498.017C463.704 498.017 507.936 503.94 532.371 571.786C532.371 571.786 571.139 658.519 576.069 724.72L574.378 740.054L261.175 741.572C261.175 741.572 252.753 611.801 226.708 544.066C226.708 544.066 194.754 476.465 229.51 453.525C229.51 453.525 248.466 434.642 269.421 441.477L272.508 431.983C306.509 434.361 347.799 503.398 347.799 503.398C349.429 504.494 351.399 505.525 354.857 508.414C351.691 492.361 344.064 475.851 332.622 458.467Z" fill="white"/>
</mask>
<g mask="url(#mask13_1400_4065)">
<path fill-rule="evenodd" clip-rule="evenodd" d="M329.262 453.142C329.262 453.142 380.259 475.945 412.277 548.758C420.606 567.701 407.594 581.775 375.855 547.858C368.011 539.477 355.068 532.629 341.453 521.421C341.453 521.421 238.564 444.597 329.262 453.142Z" fill="#CDD1DC"/>
</g>
<mask id="mask14_1400_4065" style="mask-type:luminance" maskUnits="userSpaceOnUse" x="213" y="431" width="364" height="311">
<path d="M332.622 458.467C332.622 458.467 332.017 432.517 387.071 431.518C387.071 431.518 393.437 448.622 394.554 460.885C394.554 460.885 426.118 505.215 435.456 531.201C435.456 531.201 456.269 525.111 463.704 498.017C463.704 498.017 507.936 503.94 532.371 571.786C532.371 571.786 571.139 658.519 576.069 724.72L574.378 740.054L261.175 741.572C261.175 741.572 252.753 611.801 226.708 544.066C226.708 544.066 194.754 476.465 229.51 453.525C229.51 453.525 248.466 434.642 269.421 441.477L272.508 431.983C306.509 434.361 347.799 503.398 347.799 503.398C349.429 504.494 351.399 505.525 354.857 508.414C351.691 492.361 344.064 475.851 332.622 458.467Z" fill="white"/>
</mask>
<g mask="url(#mask14_1400_4065)">
<path fill-rule="evenodd" clip-rule="evenodd" d="M206.745 486.798C206.745 486.798 227.623 481.482 256.64 626.353C256.64 626.353 296.227 764.477 246.753 711.368L240.361 630.735C240.361 630.735 202.543 528.518 206.745 486.798Z" fill="#E8E9ED"/>
</g>
<mask id="mask15_1400_4065" style="mask-type:luminance" maskUnits="userSpaceOnUse" x="213" y="431" width="364" height="311">
<path d="M332.622 458.467C332.622 458.467 332.017 432.517 387.071 431.518C387.071 431.518 393.437 448.622 394.554 460.885C394.554 460.885 426.118 505.215 435.456 531.201C435.456 531.201 456.269 525.111 463.704 498.017C463.704 498.017 507.936 503.94 532.371 571.786C532.371 571.786 571.139 658.519 576.069 724.72L574.378 740.054L261.175 741.572C261.175 741.572 252.753 611.801 226.708 544.066C226.708 544.066 194.754 476.465 229.51 453.525C229.51 453.525 248.466 434.642 269.421 441.477L272.508 431.983C306.509 434.361 347.799 503.398 347.799 503.398C349.429 504.494 351.399 505.525 354.857 508.414C351.691 492.361 344.064 475.851 332.622 458.467Z" fill="white"/>
</mask>
<g mask="url(#mask15_1400_4065)">
<path fill-rule="evenodd" clip-rule="evenodd" d="M210.481 478.114C210.481 478.114 244.615 447.823 282.017 472.993C282.017 472.993 323.135 505.093 326.33 490.949C326.33 490.949 302.093 469.52 295.021 458.192C295.021 458.192 248.017 407.146 210.481 478.114Z" fill="#E8E9ED"/>
</g>
<mask id="mask16_1400_4065" style="mask-type:luminance" maskUnits="userSpaceOnUse" x="213" y="431" width="364" height="311">
<path d="M332.622 458.467C332.622 458.467 332.017 432.517 387.071 431.518C387.071 431.518 393.437 448.622 394.554 460.885C394.554 460.885 426.118 505.215 435.456 531.201C435.456 531.201 456.269 525.111 463.704 498.017C463.704 498.017 507.936 503.94 532.371 571.786C532.371 571.786 571.139 658.519 576.069 724.72L574.378 740.054L261.175 741.572C261.175 741.572 252.753 611.801 226.708 544.066C226.708 544.066 194.754 476.465 229.51 453.525C229.51 453.525 248.466 434.642 269.421 441.477L272.508 431.983C306.509 434.361 347.799 503.398 347.799 503.398C349.429 504.494 351.399 505.525 354.857 508.414C351.691 492.361 344.064 475.851 332.622 458.467Z" fill="white"/>
</mask>
<g mask="url(#mask16_1400_4065)">
<path fill-rule="evenodd" clip-rule="evenodd" d="M389.143 452.037C389.143 452.037 376.066 448.936 394.955 479.638C394.955 479.638 440.263 546.804 443.618 576.252C443.618 576.252 457.336 572.961 440.998 541.01C440.998 541.01 397.682 458.302 389.143 452.037Z" fill="#E8E9ED"/>
</g>
<mask id="mask17_1400_4065" style="mask-type:luminance" maskUnits="userSpaceOnUse" x="213" y="431" width="364" height="311">
<path d="M332.622 458.467C332.622 458.467 332.017 432.517 387.071 431.518C387.071 431.518 393.437 448.622 394.554 460.885C394.554 460.885 426.118 505.215 435.456 531.201C435.456 531.201 456.269 525.111 463.704 498.017C463.704 498.017 507.936 503.94 532.371 571.786C532.371 571.786 571.139 658.519 576.069 724.72L574.378 740.054L261.175 741.572C261.175 741.572 252.753 611.801 226.708 544.066C226.708 544.066 194.754 476.465 229.51 453.525C229.51 453.525 248.466 434.642 269.421 441.477L272.508 431.983C306.509 434.361 347.799 503.398 347.799 503.398C349.429 504.494 351.399 505.525 354.857 508.414C351.691 492.361 344.064 475.851 332.622 458.467Z" fill="white"/>
</mask>
<g mask="url(#mask17_1400_4065)">
<path fill-rule="evenodd" clip-rule="evenodd" d="M479.289 567.201C479.289 567.201 487.99 580.016 501.094 598.305C514.198 616.594 524.487 621.734 521.834 646.137C521.834 646.137 519.925 655.116 524.937 647.026C524.937 647.026 537.681 631.587 528.8 614.904C528.8 614.904 499.26 569.945 479.289 567.201Z" fill="#E8E9ED"/>
</g>
<mask id="mask18_1400_4065" style="mask-type:luminance" maskUnits="userSpaceOnUse" x="213" y="431" width="364" height="311">
<path d="M332.622 458.467C332.622 458.467 332.017 432.517 387.071 431.518C387.071 431.518 393.437 448.622 394.554 460.885C394.554 460.885 426.118 505.215 435.456 531.201C435.456 531.201 456.269 525.111 463.704 498.017C463.704 498.017 507.936 503.94 532.371 571.786C532.371 571.786 571.139 658.519 576.069 724.72L574.378 740.054L261.175 741.572C261.175 741.572 252.753 611.801 226.708 544.066C226.708 544.066 194.754 476.465 229.51 453.525C229.51 453.525 248.466 434.642 269.421 441.477L272.508 431.983C306.509 434.361 347.799 503.398 347.799 503.398C349.429 504.494 351.399 505.525 354.857 508.414C351.691 492.361 344.064 475.851 332.622 458.467Z" fill="white"/>
</mask>
<g mask="url(#mask18_1400_4065)">
<path fill-rule="evenodd" clip-rule="evenodd" d="M560.962 625.899C560.962 625.899 546.891 618.932 558.155 689.548L564.799 729.546L582.721 727.348L560.962 625.899Z" fill="#E8E9ED"/>
</g>
<mask id="mask19_1400_4065" style="mask-type:luminance" maskUnits="userSpaceOnUse" x="213" y="431" width="364" height="311">
<path d="M332.622 458.467C332.622 458.467 332.017 432.517 387.071 431.518C387.071 431.518 393.437 448.622 394.554 460.885C394.554 460.885 426.118 505.215 435.456 531.201C435.456 531.201 456.269 525.111 463.704 498.017C463.704 498.017 507.936 503.94 532.371 571.786C532.371 571.786 571.139 658.519 576.069 724.72L574.378 740.054L261.175 741.572C261.175 741.572 252.753 611.801 226.708 544.066C226.708 544.066 194.754 476.465 229.51 453.525C229.51 453.525 248.466 434.642 269.421 441.477L272.508 431.983C306.509 434.361 347.799 503.398 347.799 503.398C349.429 504.494 351.399 505.525 354.857 508.414C351.691 492.361 344.064 475.851 332.622 458.467Z" fill="white"/>
</mask>
<g mask="url(#mask19_1400_4065)">
<path fill-rule="evenodd" clip-rule="evenodd" d="M292.16 539.716C292.16 539.716 337.801 588.416 399 582.17C399 582.17 418.299 584.928 440.018 567.614C440.018 567.614 451.511 560.618 444.162 547.189L436.568 530.514C436.568 530.514 451.524 526.286 455.596 512.077L458.936 557.386C458.936 557.386 498.447 545.918 522.377 577.717C522.377 577.717 561.422 622.688 525.991 680.945C525.991 680.945 519.436 693.258 521.891 713.023C521.891 713.023 550.246 723.28 579.05 714.791L581.483 733.533L512.175 737.253C512.175 737.253 502.577 730.648 505.778 689.058L499.567 674.465C499.567 674.465 469.375 679.59 494.526 662.434C494.526 662.434 532.765 644.101 523.843 623.661C523.843 623.661 520.045 606.268 497.121 585.202L496.014 597.184C496.014 597.184 469.328 598.876 451.804 579.93C451.804 579.93 434.141 631.066 335.255 602.655C335.255 602.655 271.458 595.897 252.684 573.384C252.684 573.384 231.072 489.837 292.16 539.716Z" fill="#B7B9C6"/>
</g>
<mask id="mask20_1400_4065" style="mask-type:luminance" maskUnits="userSpaceOnUse" x="213" y="431" width="364" height="311">
<path d="M332.622 458.467C332.622 458.467 332.017 432.517 387.071 431.518C387.071 431.518 393.437 448.622 394.554 460.885C394.554 460.885 426.118 505.215 435.456 531.201C435.456 531.201 456.269 525.111 463.704 498.017C463.704 498.017 507.936 503.94 532.371 571.786C532.371 571.786 571.139 658.519 576.069 724.72L574.378 740.054L261.175 741.572C261.175 741.572 252.753 611.801 226.708 544.066C226.708 544.066 194.754 476.465 229.51 453.525C229.51 453.525 248.466 434.642 269.421 441.477L272.508 431.983C306.509 434.361 347.799 503.398 347.799 503.398C349.429 504.494 351.399 505.525 354.857 508.414C351.691 492.361 344.064 475.851 332.622 458.467Z" fill="white"/>
</mask>
<g mask="url(#mask20_1400_4065)">
<path fill-rule="evenodd" clip-rule="evenodd" d="M355.712 647.74C355.712 647.74 374.514 646.433 408.635 632.91C442.753 619.387 452.527 641.775 481.114 653.784C481.114 653.784 498.155 664.6 459.099 651.373C420.042 638.147 404.92 657.497 404.92 657.497C404.92 657.497 385.59 678.367 344.262 655.295C302.933 632.223 342.53 644.695 355.712 647.74Z" fill="#B7B9C6"/>
</g>
<mask id="mask21_1400_4065" style="mask-type:luminance" maskUnits="userSpaceOnUse" x="213" y="431" width="364" height="311">
<path d="M332.622 458.467C332.622 458.467 332.017 432.517 387.071 431.518C387.071 431.518 393.437 448.622 394.554 460.885C394.554 460.885 426.118 505.215 435.456 531.201C435.456 531.201 456.269 525.111 463.704 498.017C463.704 498.017 507.936 503.94 532.371 571.786C532.371 571.786 571.139 658.519 576.069 724.72L574.378 740.054L261.175 741.572C261.175 741.572 252.753 611.801 226.708 544.066C226.708 544.066 194.754 476.465 229.51 453.525C229.51 453.525 248.466 434.642 269.421 441.477L272.508 431.983C306.509 434.361 347.799 503.398 347.799 503.398C349.429 504.494 351.399 505.525 354.857 508.414C351.691 492.361 344.064 475.851 332.622 458.467Z" fill="white"/>
</mask>
<g mask="url(#mask21_1400_4065)">
<path fill-rule="evenodd" clip-rule="evenodd" d="M425.578 688.013C433.907 691.507 459.484 694.644 489.975 699.993C498.273 701.449 523.778 701.083 470.443 683.487C454.217 678.133 377.999 668.056 425.578 688.013Z" fill="#B7B9C6"/>
</g>
<mask id="mask22_1400_4065" style="mask-type:luminance" maskUnits="userSpaceOnUse" x="213" y="431" width="364" height="311">
<path d="M332.622 458.467C332.622 458.467 332.017 432.517 387.071 431.518C387.071 431.518 393.437 448.622 394.554 460.885C394.554 460.885 426.118 505.215 435.456 531.201C435.456 531.201 456.269 525.111 463.704 498.017C463.704 498.017 507.936 503.94 532.371 571.786C532.371 571.786 571.139 658.519 576.069 724.72L574.378 740.054L261.175 741.572C261.175 741.572 252.753 611.801 226.708 544.066C226.708 544.066 194.754 476.465 229.51 453.525C229.51 453.525 248.466 434.642 269.421 441.477L272.508 431.983C306.509 434.361 347.799 503.398 347.799 503.398C349.429 504.494 351.399 505.525 354.857 508.414C351.691 492.361 344.064 475.851 332.622 458.467Z" fill="white"/>
</mask>
<g mask="url(#mask22_1400_4065)">
<path fill-rule="evenodd" clip-rule="evenodd" d="M361.558 715.491C361.002 709.555 400.668 705.363 438.136 706.759C438.136 706.759 501.816 708.616 502.638 719.978C502.967 724.527 464.897 718.524 438.928 717.74C427.394 717.392 362.189 722.23 361.558 715.491Z" fill="#B7B9C6"/>
</g>
<mask id="mask23_1400_4065" style="mask-type:luminance" maskUnits="userSpaceOnUse" x="213" y="431" width="364" height="311">
<path d="M332.622 458.467C332.622 458.467 332.017 432.517 387.071 431.518C387.071 431.518 393.437 448.622 394.554 460.885C394.554 460.885 426.118 505.215 435.456 531.201C435.456 531.201 456.269 525.111 463.704 498.017C463.704 498.017 507.936 503.94 532.371 571.786C532.371 571.786 571.139 658.519 576.069 724.72L574.378 740.054L261.175 741.572C261.175 741.572 252.753 611.801 226.708 544.066C226.708 544.066 194.754 476.465 229.51 453.525C229.51 453.525 248.466 434.642 269.421 441.477L272.508 431.983C306.509 434.361 347.799 503.398 347.799 503.398C349.429 504.494 351.399 505.525 354.857 508.414C351.691 492.361 344.064 475.851 332.622 458.467Z" fill="white"/>
</mask>
<g mask="url(#mask23_1400_4065)">
<path fill-rule="evenodd" clip-rule="evenodd" d="M331.436 445.286C331.436 445.286 366.724 457.746 367.485 512.537C367.485 512.537 425.618 539.539 432.489 561.244C432.489 561.244 418.672 560.652 384.031 532.206C384.031 532.206 412.587 592.239 368.957 525.643C368.957 525.643 348.724 505.832 333.433 497.344C333.433 497.344 289.044 451.866 280.417 446.811C274.838 443.542 270.972 441.844 266.476 440.509L268.62 428.234C268.62 428.234 317.971 443.557 331.436 445.286Z" fill="#B7B9C6"/>
</g>
<path fill-rule="evenodd" clip-rule="evenodd" d="M147.434 741.701C147.434 741.701 57.3018 793.115 351.032 804.328C644.763 815.543 955.859 809.486 837.087 729.784L147.434 741.701Z" fill="#B49D7A"/>
<path fill-rule="evenodd" clip-rule="evenodd" d="M148.189 741.47C148.189 741.47 197.345 741.061 269.057 740.417C293.626 740.196 320.842 739.946 349.636 739.671C371.28 739.464 393.814 739.245 416.785 739.008C438.897 738.779 461.415 738.539 483.933 738.283C529.842 737.761 575.75 737.2 618.226 736.679C731.062 735.298 819.666 734.153 819.666 734.153C819.983 734.149 820.236 733.889 820.233 733.573C820.229 733.257 819.97 733.003 819.653 733.006C819.653 733.006 731.046 733.816 618.207 734.926C575.731 735.343 529.82 735.795 483.91 736.286C461.393 736.527 438.876 736.783 416.763 737.043C393.792 737.313 371.259 737.591 349.617 737.862C320.824 738.222 293.609 738.573 269.041 738.894C197.331 739.832 148.178 740.509 148.178 740.509C147.914 740.511 147.7 740.73 147.703 740.994C147.706 741.26 147.924 741.473 148.189 741.47Z" fill="black"/>
<mask id="mask24_1400_4065" style="mask-type:luminance" maskUnits="userSpaceOnUse" x="334" y="203" width="236" height="386">
<path d="M503.509 281.128C503.509 281.128 504.547 288.62 457.688 292.35C457.688 292.35 415.923 297.557 388.811 334.944C388.811 334.944 396.064 379.271 351.963 386.525C351.963 386.525 322.546 394.984 339.008 360.063C339.008 360.063 348.037 339.375 356.151 317.427C364.264 295.479 390.347 238.681 426.352 217.59C462.357 196.499 480.159 202.329 501.199 211.255C522.241 220.182 528.103 233.071 528.103 233.071C528.103 233.071 541.492 229.365 554.674 262.041C567.855 294.718 570.376 309.056 568.561 349.263C566.745 389.469 567.128 395.414 567.371 423.804C567.454 433.482 558.269 466.387 558.411 495.159C558.458 504.757 555.997 558.155 522.506 560.933C512.291 561.781 477.405 569.505 490.376 588.466C490.376 588.466 436.493 583.366 452.629 544.415C454.867 539.012 460.065 513.398 445.687 492.005C440.296 483.983 437.56 479.263 433.963 473.733C433.963 473.733 433.218 460.425 441.647 443.128C441.647 443.128 480.47 419.835 499.499 404.211C505.813 399.027 509.781 394.29 512.963 388.358C512.963 388.358 534.343 334.213 538.221 318.303L522.624 294.86C522.624 294.86 506.105 289.458 503.509 281.128Z" fill="white"/>
</mask>
<g mask="url(#mask24_1400_4065)">
<path fill-rule="evenodd" clip-rule="evenodd" d="M503.509 281.128C503.509 281.128 504.547 288.62 457.688 292.35C457.688 292.35 415.923 297.557 388.811 334.944C388.811 334.944 396.064 379.271 351.963 386.525C351.963 386.525 322.546 394.984 339.008 360.063C339.008 360.063 348.037 339.375 356.151 317.427C364.264 295.479 390.347 238.681 426.352 217.59C462.357 196.499 480.159 202.329 501.199 211.255C522.241 220.182 528.103 233.071 528.103 233.071C528.103 233.071 541.492 229.365 554.674 262.041C567.855 294.718 570.376 309.056 568.561 349.263C566.745 389.469 567.128 395.414 567.371 423.804C567.454 433.482 558.269 466.387 558.411 495.159C558.458 504.757 555.997 558.155 522.506 560.933C512.291 561.781 477.405 569.505 490.376 588.466C490.376 588.466 436.493 583.366 452.629 544.415C454.867 539.012 460.065 513.398 445.687 492.005C440.296 483.983 437.56 479.263 433.963 473.733C433.963 473.733 433.218 460.425 441.647 443.128C441.647 443.128 480.47 419.835 499.499 404.211C505.813 399.027 509.781 394.29 512.963 388.358C512.963 388.358 534.343 334.213 538.221 318.303L522.624 294.86C522.624 294.86 506.105 289.458 503.509 281.128Z" fill="#8C4646"/>
</g>
<mask id="mask25_1400_4065" style="mask-type:luminance" maskUnits="userSpaceOnUse" x="334" y="203" width="236" height="386">
<path d="M503.509 281.128C503.509 281.128 504.547 288.62 457.688 292.35C457.688 292.35 415.923 297.557 388.811 334.944C388.811 334.944 396.064 379.271 351.963 386.525C351.963 386.525 322.546 394.984 339.008 360.063C339.008 360.063 348.037 339.375 356.151 317.427C364.264 295.479 390.347 238.681 426.352 217.59C462.357 196.499 480.159 202.329 501.199 211.255C522.241 220.182 528.103 233.071 528.103 233.071C528.103 233.071 541.492 229.365 554.674 262.041C567.855 294.718 570.376 309.056 568.561 349.263C566.745 389.469 567.128 395.414 567.371 423.804C567.454 433.482 558.269 466.387 558.411 495.159C558.458 504.757 555.997 558.155 522.506 560.933C512.291 561.781 477.405 569.505 490.376 588.466C490.376 588.466 436.493 583.366 452.629 544.415C454.867 539.012 460.065 513.398 445.687 492.005C440.296 483.983 437.56 479.263 433.963 473.733C433.963 473.733 433.218 460.425 441.647 443.128C441.647 443.128 480.47 419.835 499.499 404.211C505.813 399.027 509.781 394.29 512.963 388.358C512.963 388.358 534.343 334.213 538.221 318.303L522.624 294.86C522.624 294.86 506.105 289.458 503.509 281.128Z" fill="white"/>
</mask>
<g mask="url(#mask25_1400_4065)">
<path fill-rule="evenodd" clip-rule="evenodd" d="M477.212 298.211C477.212 298.211 586.842 225.424 551.85 410.093C551.85 410.093 547.171 457.206 488.599 510.801C488.599 510.801 449.37 554.501 491.027 593.664C491.027 593.664 405.144 596.513 436.833 470.748C436.833 470.748 535.089 368.201 477.212 298.211Z" fill="#7E3030"/>
</g>
<mask id="mask26_1400_4065" style="mask-type:luminance" maskUnits="userSpaceOnUse" x="334" y="203" width="236" height="386">
<path d="M503.509 281.128C503.509 281.128 504.547 288.62 457.688 292.35C457.688 292.35 415.923 297.557 388.811 334.944C388.811 334.944 396.064 379.271 351.963 386.525C351.963 386.525 322.546 394.984 339.008 360.063C339.008 360.063 348.037 339.375 356.151 317.427C364.264 295.479 390.347 238.681 426.352 217.59C462.357 196.499 480.159 202.329 501.199 211.255C522.241 220.182 528.103 233.071 528.103 233.071C528.103 233.071 541.492 229.365 554.674 262.041C567.855 294.718 570.376 309.056 568.561 349.263C566.745 389.469 567.128 395.414 567.371 423.804C567.454 433.482 558.269 466.387 558.411 495.159C558.458 504.757 555.997 558.155 522.506 560.933C512.291 561.781 477.405 569.505 490.376 588.466C490.376 588.466 436.493 583.366 452.629 544.415C454.867 539.012 460.065 513.398 445.687 492.005C440.296 483.983 437.56 479.263 433.963 473.733C433.963 473.733 433.218 460.425 441.647 443.128C441.647 443.128 480.47 419.835 499.499 404.211C505.813 399.027 509.781 394.29 512.963 388.358C512.963 388.358 534.343 334.213 538.221 318.303L522.624 294.86C522.624 294.86 506.105 289.458 503.509 281.128Z" fill="white"/>
</mask>
<g mask="url(#mask26_1400_4065)">
<path fill-rule="evenodd" clip-rule="evenodd" d="M347.213 397.077C347.213 397.077 374.717 371.12 379.029 348.791C379.029 348.791 368.251 319.532 406.568 298.794C406.568 298.794 425.947 287.181 485.283 280.431C485.283 280.431 511.341 267.566 528.467 282.176C528.467 282.176 562.704 295.502 546.586 381.606L548.027 418.245L539.449 405.234C539.449 405.234 532.919 431.361 529.563 445.292C529.563 445.292 522.421 473.255 521.728 432.404C521.728 432.404 520.226 419.345 538.5 378.531C538.5 378.531 541.895 369.915 540.134 359.519C540.134 359.519 527.072 394.837 503.115 418.439C503.115 418.439 463.153 455.591 457.772 496.644C457.772 496.644 456.54 518.34 447.666 538.035L443.409 497.195L431.418 477.712L436.834 439.721L468.93 413.769L506.454 384.763L532.932 321.923L497.928 294.277L446.933 305.572L402.839 335.467C402.838 335.467 406.841 370.694 347.213 397.077Z" fill="#4E1212"/>
</g>
<mask id="mask27_1400_4065" style="mask-type:luminance" maskUnits="userSpaceOnUse" x="334" y="203" width="236" height="386">
<path d="M503.509 281.128C503.509 281.128 504.547 288.62 457.688 292.35C457.688 292.35 415.923 297.557 388.811 334.944C388.811 334.944 396.064 379.271 351.963 386.525C351.963 386.525 322.546 394.984 339.008 360.063C339.008 360.063 348.037 339.375 356.151 317.427C364.264 295.479 390.347 238.681 426.352 217.59C462.357 196.499 480.159 202.329 501.199 211.255C522.241 220.182 528.103 233.071 528.103 233.071C528.103 233.071 541.492 229.365 554.674 262.041C567.855 294.718 570.376 309.056 568.561 349.263C566.745 389.469 567.128 395.414 567.371 423.804C567.454 433.482 558.269 466.387 558.411 495.159C558.458 504.757 555.997 558.155 522.506 560.933C512.291 561.781 477.405 569.505 490.376 588.466C490.376 588.466 436.493 583.366 452.629 544.415C454.867 539.012 460.065 513.398 445.687 492.005C440.296 483.983 437.56 479.263 433.963 473.733C433.963 473.733 433.218 460.425 441.647 443.128C441.647 443.128 480.47 419.835 499.499 404.211C505.813 399.027 509.781 394.29 512.963 388.358C512.963 388.358 534.343 334.213 538.221 318.303L522.624 294.86C522.624 294.86 506.105 289.458 503.509 281.128Z" fill="white"/>
</mask>
<g mask="url(#mask27_1400_4065)">
<path fill-rule="evenodd" clip-rule="evenodd" d="M495.837 465.424C495.837 465.424 437.28 547.905 448.919 583.387C448.919 583.387 531.491 624.328 471.533 568.686C467.934 565.346 453.277 556.919 463.567 535.364C463.567 535.364 493.195 486.05 495.837 465.424Z" fill="#4E1212"/>
</g>
<mask id="mask28_1400_4065" style="mask-type:luminance" maskUnits="userSpaceOnUse" x="334" y="203" width="236" height="386">
<path d="M503.509 281.128C503.509 281.128 504.547 288.62 457.688 292.35C457.688 292.35 415.923 297.557 388.811 334.944C388.811 334.944 396.064 379.271 351.963 386.525C351.963 386.525 322.546 394.984 339.008 360.063C339.008 360.063 348.037 339.375 356.151 317.427C364.264 295.479 390.347 238.681 426.352 217.59C462.357 196.499 480.159 202.329 501.199 211.255C522.241 220.182 528.103 233.071 528.103 233.071C528.103 233.071 541.492 229.365 554.674 262.041C567.855 294.718 570.376 309.056 568.561 349.263C566.745 389.469 567.128 395.414 567.371 423.804C567.454 433.482 558.269 466.387 558.411 495.159C558.458 504.757 555.997 558.155 522.506 560.933C512.291 561.781 477.405 569.505 490.376 588.466C490.376 588.466 436.493 583.366 452.629 544.415C454.867 539.012 460.065 513.398 445.687 492.005C440.296 483.983 437.56 479.263 433.963 473.733C433.963 473.733 433.218 460.425 441.647 443.128C441.647 443.128 480.47 419.835 499.499 404.211C505.813 399.027 509.781 394.29 512.963 388.358C512.963 388.358 534.343 334.213 538.221 318.303L522.624 294.86C522.624 294.86 506.105 289.458 503.509 281.128Z" fill="white"/>
</mask>
<g mask="url(#mask28_1400_4065)">
<path fill-rule="evenodd" clip-rule="evenodd" d="M539.675 458.285C538.972 467.054 539.539 495.205 509.392 519.546C509.392 519.546 485.033 538.245 493.394 551.843C493.394 551.843 504.376 551.17 522.627 530.731C522.627 530.731 547.99 506.817 547.365 468.483C547.257 461.872 542.07 428.406 539.675 458.285Z" fill="#4E1212"/>
</g>
<mask id="mask29_1400_4065" style="mask-type:luminance" maskUnits="userSpaceOnUse" x="334" y="203" width="236" height="386">
<path d="M503.509 281.128C503.509 281.128 504.547 288.62 457.688 292.35C457.688 292.35 415.923 297.557 388.811 334.944C388.811 334.944 396.064 379.271 351.963 386.525C351.963 386.525 322.546 394.984 339.008 360.063C339.008 360.063 348.037 339.375 356.151 317.427C364.264 295.479 390.347 238.681 426.352 217.59C462.357 196.499 480.159 202.329 501.199 211.255C522.241 220.182 528.103 233.071 528.103 233.071C528.103 233.071 541.492 229.365 554.674 262.041C567.855 294.718 570.376 309.056 568.561 349.263C566.745 389.469 567.128 395.414 567.371 423.804C567.454 433.482 558.269 466.387 558.411 495.159C558.458 504.757 555.997 558.155 522.506 560.933C512.291 561.781 477.405 569.505 490.376 588.466C490.376 588.466 436.493 583.366 452.629 544.415C454.867 539.012 460.065 513.398 445.687 492.005C440.296 483.983 437.56 479.263 433.963 473.733C433.963 473.733 433.218 460.425 441.647 443.128C441.647 443.128 480.47 419.835 499.499 404.211C505.813 399.027 509.781 394.29 512.963 388.358C512.963 388.358 534.343 334.213 538.221 318.303L522.624 294.86C522.624 294.86 506.105 289.458 503.509 281.128Z" fill="white"/>
</mask>
<g mask="url(#mask29_1400_4065)">
<path fill-rule="evenodd" clip-rule="evenodd" d="M462.647 246.78C462.647 246.78 417.064 250.895 384.415 294.19C384.415 294.19 350.987 338.816 333.148 356.809L328.984 367.43C328.984 367.43 343.138 362.661 375.356 316.815C375.356 316.815 396.682 280.125 447.138 256.802C447.138 256.802 489.903 243.495 462.647 246.78Z" fill="#4E1212"/>
</g>
<mask id="mask30_1400_4065" style="mask-type:luminance" maskUnits="userSpaceOnUse" x="334" y="203" width="236" height="386">
<path d="M503.509 281.128C503.509 281.128 504.547 288.62 457.688 292.35C457.688 292.35 415.923 297.557 388.811 334.944C388.811 334.944 396.064 379.271 351.963 386.525C351.963 386.525 322.546 394.984 339.008 360.063C339.008 360.063 348.037 339.375 356.151 317.427C364.264 295.479 390.347 238.681 426.352 217.59C462.357 196.499 480.159 202.329 501.199 211.255C522.241 220.182 528.103 233.071 528.103 233.071C528.103 233.071 541.492 229.365 554.674 262.041C567.855 294.718 570.376 309.056 568.561 349.263C566.745 389.469 567.128 395.414 567.371 423.804C567.454 433.482 558.269 466.387 558.411 495.159C558.458 504.757 555.997 558.155 522.506 560.933C512.291 561.781 477.405 569.505 490.376 588.466C490.376 588.466 436.493 583.366 452.629 544.415C454.867 539.012 460.065 513.398 445.687 492.005C440.296 483.983 437.56 479.263 433.963 473.733C433.963 473.733 433.218 460.425 441.647 443.128C441.647 443.128 480.47 419.835 499.499 404.211C505.813 399.027 509.781 394.29 512.963 388.358C512.963 388.358 534.343 334.213 538.221 318.303L522.624 294.86C522.624 294.86 506.105 289.458 503.509 281.128Z" fill="white"/>
</mask>
<g mask="url(#mask30_1400_4065)">
<path fill-rule="evenodd" clip-rule="evenodd" d="M498.259 205.901C498.259 205.901 488.518 218.237 525.932 236.651C525.932 236.651 546.866 244.463 537.254 230.776L498.259 205.901Z" fill="#B8797A"/>
</g>
<mask id="mask31_1400_4065" style="mask-type:luminance" maskUnits="userSpaceOnUse" x="334" y="203" width="236" height="386">
<path d="M503.509 281.128C503.509 281.128 504.547 288.62 457.688 292.35C457.688 292.35 415.923 297.557 388.811 334.944C388.811 334.944 396.064 379.271 351.963 386.525C351.963 386.525 322.546 394.984 339.008 360.063C339.008 360.063 348.037 339.375 356.151 317.427C364.264 295.479 390.347 238.681 426.352 217.59C462.357 196.499 480.159 202.329 501.199 211.255C522.241 220.182 528.103 233.071 528.103 233.071C528.103 233.071 541.492 229.365 554.674 262.041C567.855 294.718 570.376 309.056 568.561 349.263C566.745 389.469 567.128 395.414 567.371 423.804C567.454 433.482 558.269 466.387 558.411 495.159C558.458 504.757 555.997 558.155 522.506 560.933C512.291 561.781 477.405 569.505 490.376 588.466C490.376 588.466 436.493 583.366 452.629 544.415C454.867 539.012 460.065 513.398 445.687 492.005C440.296 483.983 437.56 479.263 433.963 473.733C433.963 473.733 433.218 460.425 441.647 443.128C441.647 443.128 480.47 419.835 499.499 404.211C505.813 399.027 509.781 394.29 512.963 388.358C512.963 388.358 534.343 334.213 538.221 318.303L522.624 294.86C522.624 294.86 506.105 289.458 503.509 281.128Z" fill="white"/>
</mask>
<g mask="url(#mask31_1400_4065)">
<path fill-rule="evenodd" clip-rule="evenodd" d="M549.514 245.601C549.514 245.601 529.381 239.718 560.509 275.2C560.509 275.2 558.809 260.751 549.514 245.601Z" fill="#B8797A"/>
</g>
<mask id="mask32_1400_4065" style="mask-type:luminance" maskUnits="userSpaceOnUse" x="334" y="203" width="236" height="386">
<path d="M503.509 281.128C503.509 281.128 504.547 288.62 457.688 292.35C457.688 292.35 415.923 297.557 388.811 334.944C388.811 334.944 396.064 379.271 351.963 386.525C351.963 386.525 322.546 394.984 339.008 360.063C339.008 360.063 348.037 339.375 356.151 317.427C364.264 295.479 390.347 238.681 426.352 217.59C462.357 196.499 480.159 202.329 501.199 211.255C522.241 220.182 528.103 233.071 528.103 233.071C528.103 233.071 541.492 229.365 554.674 262.041C567.855 294.718 570.376 309.056 568.561 349.263C566.745 389.469 567.128 395.414 567.371 423.804C567.454 433.482 558.269 466.387 558.411 495.159C558.458 504.757 555.997 558.155 522.506 560.933C512.291 561.781 477.405 569.505 490.376 588.466C490.376 588.466 436.493 583.366 452.629 544.415C454.867 539.012 460.065 513.398 445.687 492.005C440.296 483.983 437.56 479.263 433.963 473.733C433.963 473.733 433.218 460.425 441.647 443.128C441.647 443.128 480.47 419.835 499.499 404.211C505.813 399.027 509.781 394.29 512.963 388.358C512.963 388.358 534.343 334.213 538.221 318.303L522.624 294.86C522.624 294.86 506.105 289.458 503.509 281.128Z" fill="white"/>
</mask>
<g mask="url(#mask32_1400_4065)">
<path fill-rule="evenodd" clip-rule="evenodd" d="M359.864 292.795C359.864 292.795 367.474 304.925 401.619 251.981C435.763 199.038 470.49 222.475 479.307 210.65L491.11 203.368C491.11 203.368 439.983 192.185 406.23 228.319C406.23 228.319 366.428 269.941 359.864 292.795Z" fill="#4D1312"/>
</g>
<mask id="mask33_1400_4065" style="mask-type:luminance" maskUnits="userSpaceOnUse" x="414" y="517" width="471" height="261">
<path d="M584.967 724.501L414.88 738.427L418.482 752.716L577.476 777.898L880.293 760.694L884.884 525.246L656.636 517.053C656.636 517.053 636.584 515.051 630.874 544.366L584.967 724.501Z" fill="white"/>
</mask>
<g mask="url(#mask33_1400_4065)">
<path fill-rule="evenodd" clip-rule="evenodd" d="M584.967 724.501L414.88 738.427L418.482 752.716L577.476 777.898L880.293 760.694L884.884 525.246L656.636 517.053C656.636 517.053 636.584 515.051 630.874 544.366L584.967 724.501Z" fill="#DFDFE7"/>
</g>
<mask id="mask34_1400_4065" style="mask-type:luminance" maskUnits="userSpaceOnUse" x="414" y="517" width="471" height="261">
<path d="M584.967 724.501L414.88 738.427L418.482 752.716L577.476 777.898L880.293 760.694L884.884 525.246L656.636 517.053C656.636 517.053 636.584 515.051 630.874 544.366L584.967 724.501Z" fill="white"/>
</mask>
<g mask="url(#mask34_1400_4065)">
<path fill-rule="evenodd" clip-rule="evenodd" d="M620.471 789.004C620.471 789.004 639.007 694.95 770.322 609.667C770.322 609.667 823.173 577.808 822.119 519.584L899.286 511.652L895.846 779.795L620.471 789.004Z" fill="#E7E7E7"/>
</g>
<mask id="mask35_1400_4065" style="mask-type:luminance" maskUnits="userSpaceOnUse" x="285" y="371" width="87" height="89">
<path d="M333.172 457.955C333.172 457.955 319.383 466.617 291.142 437.883L285.477 423.679C285.477 423.679 285.07 417.611 295.536 415.094L296.71 411.75C296.71 411.75 293.956 405.871 297.503 399.701C297.503 399.701 299.521 393.964 307.904 389.927L312.781 380.714L319.702 380.255C319.702 380.255 322.653 373.424 331.205 375.295C331.205 375.295 337.787 368.293 347.443 372.698C347.443 372.698 349.626 372.741 353.124 375.874C353.124 375.874 367.562 387.246 371.014 411.782C371.014 411.782 370.275 425.658 371.323 433.475C350.27 436.085 335.897 443.143 333.172 457.955Z" fill="white"/>
</mask>
<g mask="url(#mask35_1400_4065)">
<path fill-rule="evenodd" clip-rule="evenodd" d="M333.173 457.955C333.173 457.955 319.383 466.617 291.142 437.883L285.477 423.679C285.477 423.679 285.071 417.611 295.536 415.094L296.711 411.75C296.711 411.75 293.956 405.871 297.503 399.701C297.503 399.701 299.521 393.964 307.904 389.927L312.782 380.714L319.702 380.255C319.702 380.255 322.653 373.424 331.205 375.295C331.205 375.295 337.788 368.293 347.443 372.698C347.443 372.698 349.626 372.741 353.124 375.874C353.124 375.874 367.562 387.246 371.014 411.782C371.014 411.782 370.275 425.658 371.324 433.475C350.27 436.085 335.897 443.143 333.173 457.955Z" fill="#F9D49D"/>
</g>
<mask id="mask36_1400_4065" style="mask-type:luminance" maskUnits="userSpaceOnUse" x="285" y="371" width="87" height="89">
<path d="M333.172 457.955C333.172 457.955 319.383 466.617 291.142 437.883L285.477 423.679C285.477 423.679 285.07 417.611 295.536 415.094L296.71 411.75C296.71 411.75 293.956 405.871 297.503 399.701C297.503 399.701 299.521 393.964 307.904 389.927L312.781 380.714L319.702 380.255C319.702 380.255 322.653 373.424 331.205 375.295C331.205 375.295 337.787 368.293 347.443 372.698C347.443 372.698 349.626 372.741 353.124 375.874C353.124 375.874 367.562 387.246 371.014 411.782C371.014 411.782 370.275 425.658 371.323 433.475C350.27 436.085 335.897 443.143 333.172 457.955Z" fill="white"/>
</mask>
<g mask="url(#mask36_1400_4065)">
<path fill-rule="evenodd" clip-rule="evenodd" d="M299.76 389.16C299.76 389.16 304.145 411.868 334.226 424.728C364.306 437.587 349.626 439.665 361.312 454.449L342.105 462.976C342.105 462.976 284.941 468.397 279.491 417.557C279.491 417.557 278.004 392.213 299.76 389.16Z" fill="#F9CB88"/>
</g>
<mask id="mask37_1400_4065" style="mask-type:luminance" maskUnits="userSpaceOnUse" x="285" y="371" width="87" height="89">
<path d="M333.172 457.955C333.172 457.955 319.383 466.617 291.142 437.883L285.477 423.679C285.477 423.679 285.07 417.611 295.536 415.094L296.71 411.75C296.71 411.75 293.956 405.871 297.503 399.701C297.503 399.701 299.521 393.964 307.904 389.927L312.781 380.714L319.702 380.255C319.702 380.255 322.653 373.424 331.205 375.295C331.205 375.295 337.787 368.293 347.443 372.698C347.443 372.698 349.626 372.741 353.124 375.874C353.124 375.874 367.562 387.246 371.014 411.782C371.014 411.782 370.275 425.658 371.323 433.475C350.27 436.085 335.897 443.143 333.172 457.955Z" fill="white"/>
</mask>
<g mask="url(#mask37_1400_4065)">
<path fill-rule="evenodd" clip-rule="evenodd" d="M278.957 423.064C278.957 423.064 283.754 415.935 304.953 442.204C304.953 442.204 309.878 450.314 323.847 449.415L337.648 446.532L343.221 449.7L333.893 465.001L304.378 456.516L286.534 440.42L278.957 423.064Z" fill="#F2B15F"/>
</g>
<mask id="mask38_1400_4065" style="mask-type:luminance" maskUnits="userSpaceOnUse" x="285" y="371" width="87" height="89">
<path d="M333.172 457.955C333.172 457.955 319.383 466.617 291.142 437.883L285.477 423.679C285.477 423.679 285.07 417.611 295.536 415.094L296.71 411.75C296.71 411.75 293.956 405.871 297.503 399.701C297.503 399.701 299.521 393.964 307.904 389.927L312.781 380.714L319.702 380.255C319.702 380.255 322.653 373.424 331.205 375.295C331.205 375.295 337.787 368.293 347.443 372.698C347.443 372.698 349.626 372.741 353.124 375.874C353.124 375.874 367.562 387.246 371.014 411.782C371.014 411.782 370.275 425.658 371.323 433.475C350.27 436.085 335.897 443.143 333.172 457.955Z" fill="white"/>
</mask>
<g mask="url(#mask38_1400_4065)">
<path fill-rule="evenodd" clip-rule="evenodd" d="M368.244 437.587C368.244 437.587 358.95 423.6 355.476 414.658C355.476 414.658 353.523 411.846 359.075 407.158C359.075 407.158 348.961 387.361 363.167 382.893C363.167 382.893 386.048 413.673 368.244 437.587Z" fill="#F2B15F"/>
</g>
<mask id="mask39_1400_4065" style="mask-type:luminance" maskUnits="userSpaceOnUse" x="285" y="371" width="87" height="89">
<path d="M333.172 457.955C333.172 457.955 319.383 466.617 291.142 437.883L285.477 423.679C285.477 423.679 285.07 417.611 295.536 415.094L296.71 411.75C296.71 411.75 293.956 405.871 297.503 399.701C297.503 399.701 299.521 393.964 307.904 389.927L312.781 380.714L319.702 380.255C319.702 380.255 322.653 373.424 331.205 375.295C331.205 375.295 337.787 368.293 347.443 372.698C347.443 372.698 349.626 372.741 353.124 375.874C353.124 375.874 367.562 387.246 371.014 411.782C371.014 411.782 370.275 425.658 371.323 433.475C350.27 436.085 335.897 443.143 333.172 457.955Z" fill="white"/>
</mask>
<g mask="url(#mask39_1400_4065)">
<path fill-rule="evenodd" clip-rule="evenodd" d="M357.086 377.049C357.086 377.049 343.961 369.533 330.007 381.794C330.007 381.794 312.989 392.936 311.575 378.166L317.622 375.792L323.384 371.924L330.915 371.157L342.41 367.065C342.41 367.065 348.102 367.378 357.086 377.049Z" fill="#FEE4C1"/>
</g>
<mask id="mask40_1400_4065" style="mask-type:luminance" maskUnits="userSpaceOnUse" x="285" y="371" width="87" height="89">
<path d="M333.172 457.955C333.172 457.955 319.383 466.617 291.142 437.883L285.477 423.679C285.477 423.679 285.07 417.611 295.536 415.094L296.71 411.75C296.71 411.75 293.956 405.871 297.503 399.701C297.503 399.701 299.521 393.964 307.904 389.927L312.781 380.714L319.702 380.255C319.702 380.255 322.653 373.424 331.205 375.295C331.205 375.295 337.787 368.293 347.443 372.698C347.443 372.698 349.626 372.741 353.124 375.874C353.124 375.874 367.562 387.246 371.014 411.782C371.014 411.782 370.275 425.658 371.323 433.475C350.27 436.085 335.897 443.143 333.172 457.955Z" fill="white"/>
</mask>
<g mask="url(#mask40_1400_4065)">
<path fill-rule="evenodd" clip-rule="evenodd" d="M297.517 393.626C297.517 393.626 311.284 409.278 292.326 414.29C292.326 414.29 287.157 404.258 297.517 393.626Z" fill="#F2B15F"/>
</g>
<path fill-rule="evenodd" clip-rule="evenodd" d="M447.899 335.081C447.899 335.081 448.717 337.31 451.313 339.901C451.868 340.455 452.506 341.018 453.238 341.576C454.068 342.212 455.017 342.841 456.1 343.422C456.737 343.764 457.422 344.086 458.155 344.382C458.663 344.588 459.197 344.779 459.754 344.955C460.927 345.324 462.202 345.638 463.587 345.869C466.025 346.275 468.787 346.432 471.922 346.291C472.038 346.291 472.132 346.197 472.133 346.081C472.134 345.964 472.04 345.87 471.924 345.869C470.168 345.761 468.548 345.557 467.036 345.3C465.302 345.005 463.731 344.619 462.292 344.183C461.202 343.853 460.196 343.482 459.257 343.108C458.195 342.685 457.224 342.245 456.337 341.79C454.917 341.061 453.712 340.303 452.705 339.549C449.523 337.168 448.292 334.905 448.292 334.905C448.243 334.797 448.116 334.749 448.007 334.797C447.899 334.845 447.85 334.973 447.899 335.081Z" fill="#563D1F"/>
<path fill-rule="evenodd" clip-rule="evenodd" d="M496.553 361.44C496.553 361.44 497.428 363.304 499.101 365.667C499.488 366.213 499.918 366.78 500.394 367.355C500.974 368.056 501.614 368.768 502.321 369.452C502.772 369.888 503.251 370.311 503.755 370.712C504.128 371.009 504.515 371.292 504.915 371.56C505.844 372.181 506.829 372.734 507.865 373.175C510.043 374.102 512.41 374.561 514.887 374.237C515.003 374.229 515.091 374.129 515.083 374.013C515.075 373.897 514.975 373.809 514.858 373.817C513.298 373.823 511.836 373.496 510.449 372.974C509.047 372.447 507.751 371.693 506.533 370.836C505.793 370.316 505.092 369.751 504.412 369.181C503.703 368.588 503.021 367.989 502.383 367.387C501.535 366.586 500.76 365.797 500.077 365.055C498.111 362.921 496.926 361.226 496.926 361.226C496.866 361.123 496.735 361.088 496.632 361.147C496.529 361.206 496.493 361.338 496.553 361.44Z" fill="#563D1F"/>
<path fill-rule="evenodd" clip-rule="evenodd" d="M487.29 377.227C487.29 377.227 486.54 380.065 485.257 383.636C484.829 384.826 484.344 386.095 483.815 387.373C483.479 388.188 483.141 389.011 482.763 389.807C482.29 390.894 481.825 391.696 481.334 392.269C480.905 392.771 480.476 393.098 479.993 393.257C479.203 393.518 478.326 393.404 477.287 393.122C476.05 392.786 474.621 392.229 472.911 391.681C472.803 391.638 472.681 391.693 472.639 391.801C472.597 391.91 472.651 392.032 472.76 392.074C474.769 392.984 476.364 393.865 477.751 394.295C478.686 394.584 479.533 394.656 480.333 394.468C481.182 394.269 481.981 393.756 482.768 392.804C483.25 392.221 483.72 391.454 484.206 390.48C484.588 389.646 484.954 388.795 485.266 387.935C485.75 386.601 486.142 385.26 486.46 384.003C487.401 380.274 487.713 377.303 487.713 377.303C487.735 377.186 487.657 377.075 487.541 377.053C487.423 377.032 487.311 377.11 487.29 377.227Z" fill="#563D1F"/>
<path fill-rule="evenodd" clip-rule="evenodd" d="M429.705 392.184C429.705 392.184 433.35 392.71 438.195 394.833C439.282 395.31 440.426 395.867 441.61 396.509C443.331 397.443 445.12 398.575 446.911 399.929C447.727 400.545 448.545 401.204 449.358 401.911C450.102 402.56 450.848 403.242 451.575 403.98C451.721 404.243 452.108 404.758 453.082 405.327C453.861 405.783 455.078 406.31 456.975 406.778C457.505 407.11 460.142 408.801 462.575 411.072C463.75 412.169 464.882 413.395 465.697 414.677C465.756 414.777 465.885 414.811 465.986 414.752C466.086 414.693 466.12 414.564 466.061 414.463C465.315 413.086 464.248 411.74 463.115 410.531C460.498 407.739 457.55 405.694 457.55 405.694C457.497 405.659 457.437 405.633 457.375 405.616C456.271 405.287 455.422 404.949 454.765 404.632C453.173 403.865 452.906 403.307 452.906 403.307C452.871 403.205 452.815 403.112 452.741 403.034C451.98 402.209 451.206 401.432 450.411 400.72C449.573 399.968 448.719 399.281 447.856 398.655C445.969 397.285 444.059 396.187 442.227 395.305C440.517 394.483 438.875 393.856 437.376 393.371C432.92 391.931 429.748 391.757 429.748 391.757C429.63 391.746 429.524 391.831 429.513 391.95C429.501 392.067 429.587 392.172 429.705 392.184Z" fill="#563D1F"/>
<path fill-rule="evenodd" clip-rule="evenodd" d="M443.162 409.172C443.162 409.172 444.371 409.326 446.24 410.192C446.815 410.459 447.442 410.798 448.138 411.203C448.572 411.457 449.028 411.737 449.513 412.04C449.948 412.312 450.408 412.592 450.882 412.911C451.521 413.341 452.186 413.814 452.874 414.368C453.49 414.865 454.122 415.395 454.766 416.012C454.841 416.101 454.974 416.113 455.062 416.038C455.152 415.963 455.163 415.83 455.088 415.741C454.189 414.422 453.296 413.32 452.381 412.401C451.871 411.89 451.36 411.448 450.853 411.056C450.614 410.872 450.376 410.703 450.137 410.549C449.795 410.328 449.455 410.134 449.12 409.966C448.551 409.682 448.005 409.465 447.491 409.294C447.037 409.143 446.613 409.028 446.216 408.945C444.3 408.547 443.147 408.742 443.147 408.742C443.029 408.746 442.936 408.845 442.94 408.964C442.944 409.083 443.043 409.176 443.162 409.172Z" fill="#563D1F"/>
<path fill-rule="evenodd" clip-rule="evenodd" d="M230.17 452.482C230.17 452.482 217.293 459.565 213.419 479.453C211.206 490.813 211.936 506.367 219.719 527.178C219.72 527.181 219.721 527.183 219.723 527.186C219.723 527.186 230.334 554.511 238.642 585.6C242.182 598.85 245.318 612.782 247.003 625.579C247.004 625.587 247.005 625.597 247.007 625.606C247.007 625.606 249.322 640.422 252.074 659.93C253.573 670.547 255.207 682.553 256.647 694.321C258.816 712.053 260.563 729.241 260.734 740.299C260.737 740.567 260.847 740.822 261.039 741.009C261.231 741.196 261.489 741.299 261.757 741.296C261.757 741.296 289.623 740.813 321.227 740.233C362.623 739.473 410.43 738.553 410.43 738.553C410.604 738.551 410.744 738.407 410.741 738.232C410.739 738.058 410.595 737.918 410.422 737.92C410.422 737.92 362.607 738.318 321.205 738.7C293.13 738.959 268.004 739.213 262.739 739.267C262.553 728.133 260.971 711.345 258.933 694.046C257.545 682.256 255.951 670.227 254.455 659.595C251.749 640.365 249.382 625.7 249.31 625.251C247.541 612.378 244.33 598.364 240.669 585.051C232.139 554.026 221.247 526.8 221.173 526.616C213.281 506.187 212.382 490.868 214.435 479.645C218.002 460.142 230.485 453.045 230.485 453.045C230.64 452.959 230.695 452.761 230.609 452.607C230.522 452.451 230.326 452.396 230.17 452.482Z" fill="#563D1F"/>
<path fill-rule="evenodd" clip-rule="evenodd" d="M258.581 555.035C258.581 555.035 301.834 574.016 344.569 586.438C354.685 589.378 364.774 591.944 374.252 593.806C385.643 596.046 396.16 597.256 404.8 596.916C404.808 596.916 404.815 596.916 404.822 596.915C404.822 596.915 414.256 596.365 424.418 592.87C430.585 590.75 437.01 587.542 441.795 582.769C449.584 574.998 453.19 563.086 444.23 544.885C444.226 544.876 444.221 544.866 444.217 544.858C444.217 544.858 422.002 503.09 403.477 473.22C394.903 459.394 387.104 448.12 382.682 444.659C382.545 444.551 382.346 444.574 382.238 444.71C382.13 444.847 382.153 445.046 382.29 445.155C386.634 448.649 394.194 459.965 402.537 473.795C420.454 503.497 441.897 544.806 442.405 545.786C450.627 562.82 447.453 573.905 440.149 581.111C435.591 585.609 429.483 588.597 423.638 590.601C414.022 593.897 405.091 594.519 404.692 594.545C396.201 594.926 385.871 593.759 374.668 591.646C365.232 589.865 355.181 587.406 345.091 584.601C302.292 572.7 258.835 554.442 258.835 554.442C258.671 554.372 258.482 554.448 258.411 554.611C258.342 554.775 258.417 554.964 258.581 555.035Z" fill="#563D1F"/>
<path fill-rule="evenodd" clip-rule="evenodd" d="M355.519 508.501C355.519 508.501 351.616 492.301 344.532 476.818C341.365 469.898 337.547 463.133 333.202 457.989C334.324 455.412 335.938 450.381 341.215 445.498C343.366 443.507 346.124 441.538 349.709 439.762C353.582 437.842 358.41 436.148 364.467 434.894C370.744 433.595 378.328 432.756 387.523 432.639C388.011 433.957 389.869 439.123 391.588 445.87C392.661 450.085 393.683 454.917 394.278 459.817C394.291 459.932 394.395 460.015 394.51 460.003C394.626 459.99 394.709 459.886 394.696 459.77C394.201 454.835 393.278 449.958 392.284 445.7C390.431 437.753 388.333 431.963 388.333 431.963C388.26 431.767 388.073 431.638 387.865 431.638C378.422 431.587 370.633 432.301 364.197 433.541C357.973 434.74 353.005 436.425 349.022 438.361C345.262 440.188 342.372 442.24 340.126 444.323C334.316 449.712 332.811 455.288 331.643 457.795C331.516 458.064 331.562 458.384 331.758 458.608C336.232 463.642 340.155 470.409 343.47 477.315C350.807 492.596 355.102 508.607 355.102 508.607C355.131 508.722 355.249 508.791 355.363 508.762C355.479 508.733 355.548 508.616 355.519 508.501Z" fill="#563D1F"/>
<path fill-rule="evenodd" clip-rule="evenodd" d="M247.477 441.889C247.477 441.889 256.221 437.749 270.171 442.858C274.722 444.525 279.822 447.179 285.366 451.271C289.465 454.297 293.811 458.102 298.343 462.891C298.552 463.132 303.305 468.572 310.403 475.661C315.868 481.119 322.73 487.546 329.911 493.383C338.277 500.183 347.098 506.158 354.679 508.884C355.1 509.168 358.412 511.412 362.974 514.872C365.39 516.706 368.157 518.879 371.029 521.285C371.117 521.361 371.251 521.35 371.327 521.262C371.402 521.174 371.392 521.041 371.303 520.966C368.476 518.493 365.749 516.256 363.363 514.369C358.53 510.547 355.104 508.162 355.104 508.162C355.076 508.143 355.045 508.127 355.013 508.116C347.557 505.301 338.954 499.198 330.761 492.353C323.696 486.451 316.955 479.976 311.534 474.533C304.332 467.301 299.475 461.878 299.475 461.878C299.468 461.87 299.461 461.863 299.454 461.855C294.79 457.05 290.337 453.231 286.125 450.226C280.414 446.15 275.159 443.556 270.491 441.955C256.134 437.033 247.289 441.502 247.289 441.502C247.182 441.554 247.138 441.684 247.19 441.79C247.242 441.897 247.371 441.941 247.477 441.889Z" fill="#563D1F"/>
<path fill-rule="evenodd" clip-rule="evenodd" d="M376.329 524.273C376.329 524.273 381.41 526.921 388.834 531.255C391.332 532.712 394.093 534.36 397.024 536.152C399.193 537.478 401.451 538.89 403.768 540.353C405.959 541.736 408.203 543.163 410.453 544.642C414.108 547.047 417.783 549.576 421.312 552.21C424.938 554.918 428.417 557.716 431.556 560.596C431.64 560.676 431.773 560.674 431.854 560.59C431.935 560.507 431.931 560.373 431.848 560.293C427.351 555.786 422.124 551.385 416.684 547.312C414.176 545.435 411.625 543.629 409.083 541.912C407.969 541.159 406.855 540.426 405.746 539.715C404.224 538.738 402.711 537.8 401.223 536.903C398.836 535.467 396.511 534.136 394.307 532.91C392.458 531.881 390.693 530.93 389.04 530.062C381.604 526.156 376.515 523.886 376.515 523.886C376.409 523.834 376.28 523.879 376.228 523.986C376.177 524.092 376.222 524.221 376.329 524.273Z" fill="#563D1F"/>
<path fill-rule="evenodd" clip-rule="evenodd" d="M369.566 526.697C369.566 526.697 370.959 529.329 373.169 533.098C373.668 533.949 374.209 534.853 374.791 535.797C375.491 536.934 376.24 538.128 377.04 539.343C377.545 540.11 378.073 540.883 378.617 541.657C379.017 542.227 379.429 542.795 379.848 543.359C380.825 544.676 381.833 545.979 382.852 547.239C385.274 550.232 387.739 552.964 389.939 555.011C390.021 555.094 390.155 555.095 390.238 555.013C390.32 554.931 390.321 554.797 390.239 554.715C388.232 552.516 386.064 549.589 383.869 546.471C382.759 544.894 381.656 543.265 380.556 541.661C379.811 540.575 379.065 539.504 378.337 538.46C377.766 537.641 377.199 536.845 376.652 536.071C375.749 534.793 374.898 533.586 374.122 532.484C371.612 528.924 369.934 526.475 369.934 526.475C369.873 526.373 369.741 526.341 369.639 526.402C369.537 526.463 369.505 526.596 369.566 526.697Z" fill="#563D1F"/>
<path fill-rule="evenodd" clip-rule="evenodd" d="M281.651 564.472C281.651 564.472 280.353 565.875 278.198 568.77C277.767 569.348 277.308 569.985 276.821 570.687C276.272 571.481 275.685 572.35 275.08 573.307C274.723 573.873 274.36 574.471 273.996 575.101C273.74 575.542 273.486 576 273.231 576.472C272.68 577.493 272.121 578.579 271.554 579.733C270.497 581.891 269.427 584.274 268.302 586.876C268.25 586.98 268.293 587.107 268.397 587.159C268.501 587.211 268.628 587.168 268.679 587.064C269.563 585.523 270.428 584.079 271.254 582.7C271.856 581.695 272.436 580.736 272.997 579.813C273.608 578.805 274.199 577.852 274.752 576.94C275.155 576.275 275.539 575.634 275.902 575.015C276.404 574.159 276.865 573.347 277.303 572.589C277.632 572.02 277.94 571.479 278.233 570.968C279.196 569.288 279.989 567.942 280.604 566.936C281.496 565.476 281.988 564.739 281.988 564.739C282.062 564.646 282.046 564.51 281.953 564.437C281.86 564.363 281.724 564.379 281.651 564.472Z" fill="#563D1F"/>
<path fill-rule="evenodd" clip-rule="evenodd" d="M495.546 569.084C495.546 569.084 507.012 579.413 517.278 596.901C520.07 601.656 522.773 606.94 525.142 612.692C527.266 617.852 529.127 623.385 530.512 629.258C530.436 630.259 529.753 636.808 524.48 647.098C521.116 653.664 515.939 661.751 507.82 670.854C507.561 671.141 507.489 671.551 507.634 671.909C507.634 671.909 511.203 680.521 512.152 692.669C512.647 699.028 512.436 706.353 510.606 713.925C510.583 714.015 510.584 714.11 510.609 714.199C510.609 714.199 511.577 717.507 511.987 722.211C512.199 724.644 512.264 727.449 511.966 730.365C511.946 730.539 512.071 730.696 512.244 730.715C512.418 730.736 512.575 730.611 512.595 730.438C512.977 727.481 512.99 724.627 512.839 722.148C512.58 717.903 511.842 714.756 511.668 714.058C513.689 706.432 514.089 699.02 513.729 692.564C513.139 681.974 510.516 673.957 509.728 671.756C517.892 662.762 523.207 654.766 526.608 648.193C532.707 636.406 532.821 629.194 532.821 629.194C532.824 629.092 532.814 628.989 532.789 628.89C531.282 622.855 529.302 617.173 527.016 611.9C524.505 606.108 521.638 600.806 518.684 596.051C507.882 578.664 495.97 568.599 495.97 568.599C495.836 568.482 495.632 568.496 495.515 568.63C495.399 568.764 495.412 568.967 495.546 569.084Z" fill="#563D1F"/>
<path fill-rule="evenodd" clip-rule="evenodd" d="M526.959 560.679C526.959 560.679 533.15 574.52 541.11 595.06C543.841 602.108 546.78 609.944 549.766 618.276C552.011 624.538 554.271 631.084 556.503 637.782C558.651 644.225 560.774 650.808 562.769 657.436C566.12 668.568 569.131 679.816 571.42 690.691C573.954 702.722 575.638 714.284 575.942 724.711C575.944 724.886 576.088 725.025 576.263 725.022C576.437 725.02 576.577 724.875 576.574 724.7C576.543 714.214 575.196 702.541 572.927 690.391C570.878 679.414 568.1 668.046 564.895 656.813C562.988 650.13 560.938 643.492 558.783 637.022C556.546 630.301 554.197 623.76 551.856 617.509C548.743 609.201 545.624 601.412 542.713 594.416C534.238 574.044 527.543 560.406 527.543 560.406C527.467 560.244 527.275 560.175 527.114 560.25C526.954 560.327 526.884 560.518 526.959 560.679Z" fill="#563D1F"/>
<path fill-rule="evenodd" clip-rule="evenodd" d="M326.144 643.717C326.144 643.717 334.27 650.888 346.218 657.266C350.714 659.666 355.75 661.953 361.094 663.698C366.2 665.366 371.588 666.547 377.048 666.866C380.659 667.076 384.302 666.897 387.915 666.262C388.312 666.212 392.928 665.591 398.111 662.873C400.95 661.384 403.959 659.266 406.54 656.281C407.016 655.861 412.781 650.904 422.295 648.454C427.268 647.174 433.258 646.572 440.056 647.652C440.171 647.672 440.28 647.595 440.299 647.48C440.319 647.365 440.242 647.256 440.128 647.236C433.257 645.971 427.165 646.432 422.089 647.615C411.797 650.014 405.675 655.373 405.675 655.373C405.656 655.391 405.638 655.408 405.621 655.428C403.105 658.245 400.189 660.214 397.454 661.597C392.266 664.219 387.713 664.708 387.713 664.708C387.697 664.71 387.68 664.712 387.664 664.715C384.163 665.322 380.636 665.463 377.138 665.273C371.804 664.985 366.535 663.901 361.523 662.351C356.222 660.712 351.209 658.565 346.718 656.304C334.703 650.252 326.424 643.39 326.424 643.39C326.333 643.313 326.198 643.324 326.121 643.414C326.044 643.504 326.054 643.64 326.144 643.717Z" fill="#563D1F"/>
<path fill-rule="evenodd" clip-rule="evenodd" d="M410.774 678.508C410.774 678.508 416.036 684.394 429.987 689.479C433.316 690.692 437.141 691.855 441.507 692.869C443.953 693.437 446.568 693.957 449.362 694.409C451.463 694.75 453.665 695.052 455.97 695.303C458.079 695.533 460.277 695.715 462.562 695.865C463.149 695.983 468.177 696.992 474.601 697.991C478.385 698.579 482.653 699.162 486.78 699.568C493.509 700.228 499.861 700.409 503.152 699.392C503.263 699.36 503.327 699.242 503.295 699.131C503.262 699.019 503.145 698.955 503.034 698.987C499.757 699.888 493.502 699.482 486.886 698.636C482.792 698.112 478.563 697.414 474.811 696.739C468.034 695.52 462.822 694.368 462.822 694.368C462.787 694.361 462.752 694.356 462.717 694.353C460.439 694.179 458.251 693.958 456.148 693.718C453.868 693.459 451.69 693.167 449.61 692.847C446.846 692.421 444.255 691.945 441.829 691.429C437.5 690.507 433.698 689.456 430.378 688.356C416.497 683.75 411.088 678.215 411.088 678.215C411.007 678.128 410.871 678.123 410.784 678.204C410.697 678.285 410.693 678.421 410.774 678.508Z" fill="#563D1F"/>
<path fill-rule="evenodd" clip-rule="evenodd" d="M273.049 432.036C273.049 432.036 281.591 432.938 295.963 443.778C299.907 446.754 304.286 450.476 309.074 455.114C311.943 457.894 314.958 461.003 318.119 464.473C320.856 467.478 323.709 470.745 326.654 474.321C330.475 478.96 334.462 484.106 338.593 489.825C342.171 494.779 345.864 500.152 349.647 506.001C349.709 506.099 349.839 506.129 349.937 506.068C350.036 506.005 350.066 505.875 350.004 505.776C346.379 499.814 342.842 494.321 339.383 489.269C335.382 483.424 331.5 478.164 327.748 473.436C324.85 469.784 322.034 466.445 319.296 463.408C316.125 459.892 313.065 456.773 310.14 454.001C305.251 449.369 300.739 445.706 296.683 442.799C281.842 432.16 273.084 431.607 273.084 431.607C272.966 431.597 272.862 431.685 272.852 431.803C272.843 431.922 272.93 432.026 273.049 432.036Z" fill="#563D1F"/>
<path fill-rule="evenodd" clip-rule="evenodd" d="M386.33 368.27C386.33 368.27 389.358 382.075 395.377 398.067C396.332 400.604 397.366 403.194 398.479 405.79C400.105 409.584 401.888 413.399 403.846 417.076C406.075 421.264 408.524 425.276 411.166 428.91C415.666 435.096 420.743 440.17 426.297 443.155C426.793 443.612 429.962 446.222 436.465 445.011C440.042 444.345 444.665 442.506 450.438 438.43C450.535 438.364 450.559 438.233 450.494 438.137C450.428 438.041 450.296 438.017 450.2 438.082C444.426 441.927 439.849 443.62 436.321 444.181C429.813 445.218 427.017 442.324 427.017 442.324C426.979 442.283 426.935 442.249 426.886 442.223C422.346 439.681 418.201 435.654 414.421 430.785C412.389 428.168 410.467 425.304 408.646 422.293C407.475 420.356 406.345 418.358 405.255 416.324C403.306 412.688 401.493 408.935 399.828 405.2C398.685 402.638 397.609 400.087 396.601 397.59C390.228 381.804 386.749 368.17 386.749 368.17C386.721 368.055 386.605 367.983 386.49 368.011C386.374 368.038 386.302 368.154 386.33 368.27Z" fill="#563D1F"/>
<path fill-rule="evenodd" clip-rule="evenodd" d="M414.296 737.439L418.411 752.55C418.44 752.653 418.526 752.731 418.632 752.748C418.632 752.748 469.315 761.012 513.206 768.125C546.715 773.555 576.265 778.31 576.265 778.31C576.318 778.318 576.372 778.321 576.426 778.318C576.426 778.318 601.489 776.932 637.218 774.864C655.359 773.814 676.248 772.575 698.003 771.279C728.416 769.467 760.521 767.528 789.173 765.795C840.241 762.704 880.34 760.246 880.34 760.246C880.456 760.239 880.545 760.139 880.539 760.023C880.532 759.907 880.432 759.818 880.316 759.825C880.316 759.825 840.2 761.995 789.115 764.799C760.454 766.372 728.339 768.138 697.919 769.837C676.159 771.052 655.267 772.224 637.125 773.267C602.558 775.254 577.98 776.729 576.419 776.824C574.699 776.553 545.914 772.024 513.393 766.945C470.953 760.315 422.153 752.74 418.891 752.235L414.71 737.325C414.678 737.21 414.56 737.143 414.445 737.175C414.332 737.206 414.264 737.325 414.296 737.439Z" fill="#563D1F"/>
<path fill-rule="evenodd" clip-rule="evenodd" d="M419.402 738.321C419.402 738.321 433.866 737.325 454.251 735.862C458.95 735.524 463.961 735.16 469.184 734.772C475.569 734.298 482.269 733.798 489.09 733.268C493.479 732.928 497.917 732.574 502.355 732.212C505.679 731.941 509.001 731.663 512.302 731.382C520.261 730.706 528.095 730.027 535.505 729.375C563.354 726.928 585.214 724.935 585.214 724.935C585.33 724.927 585.416 724.825 585.407 724.709C585.398 724.593 585.296 724.506 585.18 724.515C585.18 724.515 563.283 726.055 535.402 728.105C527.984 728.65 520.143 729.236 512.178 729.844C508.874 730.097 505.55 730.355 502.227 730.62C497.788 730.975 493.349 731.337 488.963 731.705C482.145 732.277 475.453 732.857 469.074 733.413C463.857 733.868 458.852 734.311 454.16 734.732C433.804 736.557 419.368 737.893 419.368 737.893C419.249 737.902 419.161 738.006 419.171 738.124C419.181 738.242 419.285 738.33 419.402 738.321Z" fill="#563D1F"/>
<path fill-rule="evenodd" clip-rule="evenodd" d="M423.08 739.866L573.828 763.692C574.286 763.763 574.723 763.476 574.84 763.028C574.84 763.028 582.709 733.399 592.678 695.654C598.272 674.476 604.532 650.745 610.437 628.258C614.661 612.173 618.7 596.725 622.202 583.309C629.097 556.884 633.9 538.342 633.9 538.342C633.906 538.321 633.911 538.3 633.915 538.279C633.915 538.279 635.543 530.117 642.253 524.461C645.755 521.51 650.646 519.254 657.412 519.184C658.533 519.216 700.64 520.401 748.312 521.706C811.6 523.441 884.693 525.395 884.693 525.395C884.868 525.401 885.014 525.264 885.019 525.089C885.025 524.915 884.887 524.769 884.713 524.763C884.713 524.763 811.636 522.257 748.361 520.129C700.052 518.503 657.457 517.101 657.457 517.101C657.443 517.101 657.431 517.101 657.418 517.101C650.034 517.138 644.696 519.604 640.864 522.806C633.793 528.717 631.87 537.193 631.739 537.806C631.543 538.545 626.701 556.839 619.903 582.706C616.377 596.117 612.326 611.562 608.124 627.652C602.249 650.146 596.072 673.9 590.567 695.101C581.688 729.296 574.567 756.854 573.293 761.784L423.178 739.228C423.002 739.201 422.837 739.322 422.81 739.497C422.783 739.673 422.904 739.838 423.08 739.866Z" fill="#563D1F"/>
<path fill-rule="evenodd" clip-rule="evenodd" d="M359.496 415.68C359.496 415.68 360.209 417.305 361.361 419.588C361.623 420.11 361.91 420.66 362.222 421.232C362.599 421.927 363.003 422.653 363.442 423.385C363.722 423.851 364.017 424.318 364.323 424.78C364.551 425.124 364.787 425.464 365.029 425.799C365.602 426.596 366.193 427.372 366.787 428.103C368.377 430.06 369.948 431.689 371.175 432.545C371.266 432.617 371.398 432.603 371.471 432.512C371.544 432.422 371.53 432.289 371.439 432.216C370.684 431.51 369.842 430.389 368.936 429.056C368.361 428.211 367.777 427.283 367.171 426.324C366.599 425.417 366.025 424.479 365.441 423.564C365.156 423.12 364.862 422.688 364.573 422.261C364.118 421.587 363.673 420.936 363.245 420.317C362.477 419.206 361.777 418.216 361.219 417.413C360.388 416.216 359.871 415.471 359.871 415.471C359.813 415.367 359.682 415.33 359.578 415.388C359.475 415.445 359.438 415.577 359.496 415.68Z" fill="#563D1F"/>
<path fill-rule="evenodd" clip-rule="evenodd" d="M350.088 373.613C350.088 373.613 354.784 377.147 359.602 383.816C361.251 386.099 362.91 388.749 364.417 391.75C365.723 394.349 366.906 397.211 367.864 400.333C368.261 401.631 368.628 402.97 368.944 404.355C369.628 407.352 370.097 410.558 370.221 413.983C370.209 414.47 370.075 420.199 370.328 425.447C370.478 428.552 370.766 431.486 371.275 433.082C371.308 433.194 371.425 433.258 371.537 433.225C371.648 433.192 371.712 433.075 371.679 432.963C371.254 431.374 371.119 428.48 371.106 425.427C371.083 419.969 371.471 414.008 371.471 414.008C371.472 413.995 371.472 413.98 371.472 413.967C371.448 410.442 371.087 407.125 370.45 404.028C370.155 402.593 369.802 401.203 369.392 399.865C368.407 396.649 367.139 393.714 365.729 391.07C364.111 388.037 362.302 385.389 360.515 383.127C355.331 376.567 350.336 373.262 350.336 373.262C350.239 373.194 350.105 373.217 350.036 373.314C349.968 373.41 349.991 373.545 350.088 373.613Z" fill="#563D1F"/>
<path fill-rule="evenodd" clip-rule="evenodd" d="M332.784 457.62C332.784 457.62 330.798 459.873 324.377 458.803C321.288 458.29 317.193 457.017 311.821 454.368C311.643 454.267 307.761 452.054 303.231 448.8C301.478 447.539 299.627 446.124 297.853 444.616C294.841 442.058 292.045 439.234 290.433 436.355C290.432 436.354 285.916 423.456 285.916 423.456C285.985 422.926 286.452 420.343 289.049 418.163C290.39 417.038 292.283 416.021 294.962 415.429C295.075 415.406 295.15 415.296 295.127 415.181C295.104 415.067 294.993 414.993 294.879 415.016C292.067 415.521 290.057 416.509 288.616 417.626C285.304 420.194 284.968 423.467 284.968 423.467C284.962 423.531 284.97 423.596 284.99 423.658L289.147 436.854C289.16 436.893 289.176 436.931 289.195 436.966C290.822 440.03 293.664 443.109 296.815 445.827C298.616 447.38 300.517 448.815 302.324 450.078C307.082 453.403 311.187 455.547 311.187 455.547C311.198 455.553 311.21 455.559 311.222 455.564C316.828 458.076 321.072 459.232 324.256 459.629C331.125 460.485 333.117 457.892 333.117 457.892C333.191 457.801 333.179 457.665 333.086 457.59C332.995 457.515 332.859 457.528 332.784 457.62Z" fill="#563D1F"/>
<path fill-rule="evenodd" clip-rule="evenodd" d="M296.754 411.424C296.754 411.424 294.025 405.288 298.025 398.729C299.781 395.851 302.831 392.889 307.992 390.318C308.03 390.298 308.067 390.275 308.102 390.249C308.102 390.249 309.076 389.56 310.84 386.723C311.621 385.468 312.56 383.77 313.657 381.503L320.173 380.893C320.496 380.865 320.763 380.628 320.829 380.311C320.829 380.311 321.415 377.457 324.741 376.135C326.237 375.541 328.257 375.246 330.981 375.596C331.14 375.619 331.301 375.569 331.418 375.461C331.418 375.461 334.155 372.848 338.137 371.8C340.37 371.213 342.992 371.113 345.749 372.238C345.855 372.285 345.98 372.236 346.025 372.128C346.072 372.022 346.023 371.897 345.916 371.852C343.078 370.552 340.325 370.546 337.959 371.067C334.348 371.863 331.644 373.902 330.902 374.507C327.208 373.949 324.69 374.57 322.983 375.529C320.795 376.758 319.89 378.569 319.559 379.467L313.068 379.958C312.786 379.982 312.537 380.154 312.415 380.41C311.273 382.822 310.292 384.597 309.501 385.9C308.151 388.123 307.379 388.891 307.224 389.036C301.929 391.908 298.838 395.115 297.118 398.201C293.18 405.264 296.366 411.609 296.366 411.609C296.416 411.716 296.545 411.762 296.652 411.711C296.759 411.66 296.805 411.531 296.754 411.424Z" fill="#563D1F"/>
<path fill-rule="evenodd" clip-rule="evenodd" d="M256.69 267.186L278.943 325.818L304.19 318.24L323.908 359.068L309.705 302.686L285.66 309.979L266.998 249.415L256.69 267.186Z" fill="black"/>
<path fill-rule="evenodd" clip-rule="evenodd" d="M203.985 321.385L253.542 359.822L271.136 340.195L309.248 364.759L267.734 324.048L251.016 342.804L203.517 300.848L203.985 321.385Z" fill="black"/>
</svg>
