<svg width="263" height="31" viewBox="0 0 263 31" fill="none" xmlns="http://www.w3.org/2000/svg">
<path d="M4.258 30.378C3.194 30.378 2.382 30.084 1.822 29.496C1.262 28.908 0.982 28.082 0.982 27.018V3.708C0.982 2.616 1.262 1.79 1.822 1.23C2.41 0.669998 3.236 0.389998 4.3 0.389998H14.506C17.81 0.389998 20.358 1.23 22.15 2.91C23.942 4.562 24.838 6.872 24.838 9.84C24.838 12.808 23.942 15.132 22.15 16.812C20.358 18.492 17.81 19.332 14.506 19.332H7.492V27.018C7.492 28.082 7.212 28.908 6.652 29.496C6.12 30.084 5.322 30.378 4.258 30.378ZM7.492 14.292H13.414C15.094 14.292 16.368 13.914 17.236 13.158C18.132 12.402 18.58 11.296 18.58 9.84C18.58 8.384 18.132 7.292 17.236 6.564C16.368 5.836 15.094 5.472 13.414 5.472H7.492V14.292ZM34.3553 30.462C32.8433 30.462 31.4853 30.168 30.2813 29.58C29.0773 28.992 28.1393 28.194 27.4673 27.186C26.7953 26.178 26.4593 25.044 26.4593 23.784C26.4593 22.272 26.8513 21.082 27.6353 20.214C28.4193 19.318 29.6933 18.688 31.4573 18.324C33.2213 17.932 35.5593 17.736 38.4713 17.736H40.6973V21.012H38.5133C37.0853 21.012 35.9233 21.096 35.0273 21.264C34.1593 21.404 33.5293 21.656 33.1373 22.02C32.7733 22.384 32.5913 22.888 32.5913 23.532C32.5913 24.316 32.8573 24.96 33.3893 25.464C33.9493 25.968 34.7473 26.22 35.7833 26.22C36.5953 26.22 37.3093 26.038 37.9253 25.674C38.5693 25.282 39.0733 24.764 39.4373 24.12C39.8013 23.448 39.9833 22.692 39.9833 21.852V17.022C39.9833 15.79 39.7033 14.922 39.1433 14.418C38.5833 13.886 37.6313 13.62 36.2873 13.62C35.5313 13.62 34.7053 13.718 33.8093 13.914C32.9413 14.082 31.9753 14.376 30.9113 14.796C30.2953 15.076 29.7493 15.146 29.2733 15.006C28.7973 14.838 28.4333 14.558 28.1813 14.166C27.9293 13.746 27.8033 13.298 27.8033 12.822C27.8033 12.318 27.9433 11.842 28.2233 11.394C28.5033 10.918 28.9653 10.568 29.6093 10.344C30.9253 9.812 32.1573 9.448 33.3053 9.252C34.4813 9.056 35.5593 8.958 36.5393 8.958C38.6953 8.958 40.4593 9.28 41.8313 9.924C43.2313 10.54 44.2813 11.506 44.9813 12.822C45.6813 14.11 46.0313 15.776 46.0313 17.82V27.144C46.0313 28.18 45.7793 28.978 45.2753 29.538C44.7713 30.098 44.0433 30.378 43.0913 30.378C42.1393 30.378 41.3973 30.098 40.8653 29.538C40.3613 28.978 40.1093 28.18 40.1093 27.144V25.59L40.4033 25.842C40.2353 26.794 39.8713 27.62 39.3113 28.32C38.7793 28.992 38.0933 29.524 37.2533 29.916C36.4133 30.28 35.4473 30.462 34.3553 30.462ZM60.8842 30.462C58.9522 30.462 57.3282 30.14 56.0122 29.496C54.7242 28.852 53.7582 27.914 53.1142 26.682C52.4982 25.45 52.1902 23.896 52.1902 22.02V14.124H50.4262C49.6422 14.124 49.0262 13.914 48.5782 13.494C48.1582 13.074 47.9482 12.5 47.9482 11.772C47.9482 10.988 48.1582 10.4 48.5782 10.008C49.0262 9.588 49.6422 9.378 50.4262 9.378H52.1902V6.186C52.1902 5.122 52.4702 4.324 53.0302 3.792C53.5902 3.232 54.3742 2.952 55.3822 2.952C56.4182 2.952 57.2022 3.232 57.7342 3.792C58.2662 4.324 58.5322 5.122 58.5322 6.186V9.378H62.5222C63.3062 9.378 63.9082 9.588 64.3282 10.008C64.7482 10.4 64.9582 10.988 64.9582 11.772C64.9582 12.5 64.7482 13.074 64.3282 13.494C63.9082 13.914 63.3062 14.124 62.5222 14.124H58.5322V21.768C58.5322 22.944 58.7982 23.826 59.3302 24.414C59.8902 25.002 60.7722 25.296 61.9762 25.296C62.3962 25.296 62.7882 25.254 63.1522 25.17C63.5162 25.086 63.8522 25.03 64.1602 25.002C64.5522 24.974 64.8742 25.1 65.1262 25.38C65.3782 25.632 65.5042 26.206 65.5042 27.102C65.5042 27.774 65.3922 28.362 65.1682 28.866C64.9442 29.37 64.5522 29.734 63.9922 29.958C63.6282 30.098 63.1242 30.21 62.4802 30.294C61.8642 30.406 61.3322 30.462 60.8842 30.462ZM77.5756 30.462C75.3356 30.462 73.3756 30.028 71.6956 29.16C70.0436 28.264 68.7696 27.004 67.8736 25.38C66.9776 23.756 66.5296 21.838 66.5296 19.626C66.5296 17.974 66.7816 16.49 67.2856 15.174C67.7896 13.858 68.5176 12.738 69.4696 11.814C70.4496 10.89 71.6256 10.19 72.9976 9.714C74.3696 9.21 75.8956 8.958 77.5756 8.958C78.4436 8.958 79.3676 9.07 80.3476 9.294C81.3276 9.49 82.2936 9.84 83.2456 10.344C83.8056 10.596 84.1836 10.96 84.3796 11.436C84.6036 11.884 84.6876 12.36 84.6316 12.864C84.5756 13.34 84.3936 13.774 84.0856 14.166C83.8056 14.53 83.4416 14.782 82.9936 14.922C82.5456 15.034 82.0416 14.95 81.4816 14.67C80.9496 14.362 80.3896 14.138 79.8016 13.998C79.2416 13.858 78.7096 13.788 78.2056 13.788C77.3656 13.788 76.6236 13.928 75.9796 14.208C75.3356 14.46 74.7896 14.838 74.3416 15.342C73.9216 15.818 73.5856 16.42 73.3336 17.148C73.1096 17.876 72.9976 18.716 72.9976 19.668C72.9976 21.516 73.4456 22.972 74.3416 24.036C75.2656 25.072 76.5536 25.59 78.2056 25.59C78.7096 25.59 79.2416 25.534 79.8016 25.422C80.3616 25.282 80.9216 25.058 81.4816 24.75C82.0416 24.47 82.5456 24.4 82.9936 24.54C83.4416 24.68 83.7916 24.946 84.0436 25.338C84.3236 25.702 84.4776 26.136 84.5056 26.64C84.5616 27.116 84.4776 27.592 84.2536 28.068C84.0576 28.516 83.6936 28.866 83.1616 29.118C82.2096 29.594 81.2576 29.93 80.3056 30.126C79.3536 30.35 78.4436 30.462 77.5756 30.462ZM90.7862 30.378C89.7502 30.378 88.9522 30.098 88.3922 29.538C87.8602 28.978 87.5942 28.18 87.5942 27.144V3.246C87.5942 2.182 87.8602 1.384 88.3922 0.852C88.9522 0.291999 89.7502 0.0119981 90.7862 0.0119981C91.7942 0.0119981 92.5642 0.291999 93.0962 0.852C93.6562 1.384 93.9362 2.182 93.9362 3.246V13.242H93.3482C93.9922 11.87 94.9442 10.82 96.2042 10.092C97.4922 9.336 98.9482 8.958 100.572 8.958C102.224 8.958 103.582 9.28 104.646 9.924C105.71 10.54 106.508 11.492 107.04 12.78C107.572 14.04 107.838 15.65 107.838 17.61V27.144C107.838 28.18 107.558 28.978 106.998 29.538C106.466 30.098 105.682 30.378 104.646 30.378C103.638 30.378 102.854 30.098 102.294 29.538C101.762 28.978 101.496 28.18 101.496 27.144V17.904C101.496 16.476 101.23 15.454 100.698 14.838C100.194 14.194 99.4102 13.872 98.3462 13.872C97.0022 13.872 95.9242 14.292 95.1122 15.132C94.3282 15.972 93.9362 17.092 93.9362 18.492V27.144C93.9362 29.3 92.8862 30.378 90.7862 30.378Z" fill="#191919"/>
<path d="M127.873 30.378C126.921 30.378 126.193 30.112 125.689 29.58C125.185 29.048 124.933 28.306 124.933 27.354V3.036C124.933 2.084 125.199 1.342 125.731 0.809998C126.291 0.277998 127.047 0.0119981 127.999 0.0119981C128.839 0.0119981 129.497 0.179998 129.973 0.515999C130.477 0.823998 130.939 1.37 131.359 2.154L141.061 19.878H139.633L149.335 2.154C149.755 1.37 150.203 0.823998 150.679 0.515999C151.183 0.179998 151.841 0.0119981 152.653 0.0119981C153.605 0.0119981 154.333 0.277998 154.837 0.809998C155.369 1.342 155.635 2.084 155.635 3.036V27.354C155.635 28.306 155.383 29.048 154.879 29.58C154.375 30.112 153.647 30.378 152.695 30.378C151.743 30.378 151.001 30.112 150.469 29.58C149.965 29.048 149.713 28.306 149.713 27.354V10.344H150.637L142.825 24.33C142.489 24.862 142.125 25.268 141.733 25.548C141.369 25.8 140.879 25.926 140.263 25.926C139.647 25.926 139.143 25.786 138.751 25.506C138.359 25.226 138.009 24.834 137.701 24.33L129.805 10.302H130.813V27.354C130.813 28.306 130.561 29.048 130.057 29.58C129.581 30.112 128.853 30.378 127.873 30.378ZM168.066 30.462C166.554 30.462 165.196 30.168 163.992 29.58C162.788 28.992 161.85 28.194 161.178 27.186C160.506 26.178 160.17 25.044 160.17 23.784C160.17 22.272 160.562 21.082 161.346 20.214C162.13 19.318 163.404 18.688 165.168 18.324C166.932 17.932 169.27 17.736 172.182 17.736H174.408V21.012H172.224C170.796 21.012 169.634 21.096 168.738 21.264C167.87 21.404 167.24 21.656 166.848 22.02C166.484 22.384 166.302 22.888 166.302 23.532C166.302 24.316 166.568 24.96 167.1 25.464C167.66 25.968 168.458 26.22 169.494 26.22C170.306 26.22 171.02 26.038 171.636 25.674C172.28 25.282 172.784 24.764 173.148 24.12C173.512 23.448 173.694 22.692 173.694 21.852V17.022C173.694 15.79 173.414 14.922 172.854 14.418C172.294 13.886 171.342 13.62 169.998 13.62C169.242 13.62 168.416 13.718 167.52 13.914C166.652 14.082 165.686 14.376 164.622 14.796C164.006 15.076 163.46 15.146 162.984 15.006C162.508 14.838 162.144 14.558 161.892 14.166C161.64 13.746 161.514 13.298 161.514 12.822C161.514 12.318 161.654 11.842 161.934 11.394C162.214 10.918 162.676 10.568 163.32 10.344C164.636 9.812 165.868 9.448 167.016 9.252C168.192 9.056 169.27 8.958 170.25 8.958C172.406 8.958 174.17 9.28 175.542 9.924C176.942 10.54 177.992 11.506 178.692 12.822C179.392 14.11 179.742 15.776 179.742 17.82V27.144C179.742 28.18 179.49 28.978 178.986 29.538C178.482 30.098 177.754 30.378 176.802 30.378C175.85 30.378 175.108 30.098 174.576 29.538C174.072 28.978 173.82 28.18 173.82 27.144V25.59L174.114 25.842C173.946 26.794 173.582 27.62 173.022 28.32C172.49 28.992 171.804 29.524 170.964 29.916C170.124 30.28 169.158 30.462 168.066 30.462ZM187.665 30.378C186.629 30.378 185.831 30.098 185.271 29.538C184.739 28.978 184.473 28.18 184.473 27.144V12.234C184.473 11.198 184.739 10.414 185.271 9.882C185.831 9.322 186.601 9.042 187.581 9.042C188.589 9.042 189.359 9.322 189.891 9.882C190.423 10.414 190.689 11.198 190.689 12.234V14.628L190.227 13.242C190.871 11.87 191.823 10.82 193.083 10.092C194.371 9.336 195.827 8.958 197.451 8.958C199.103 8.958 200.461 9.28 201.525 9.924C202.589 10.54 203.387 11.492 203.919 12.78C204.451 14.04 204.717 15.65 204.717 17.61V27.144C204.717 28.18 204.437 28.978 203.877 29.538C203.345 30.098 202.561 30.378 201.525 30.378C200.517 30.378 199.733 30.098 199.173 29.538C198.641 28.978 198.375 28.18 198.375 27.144V17.904C198.375 16.476 198.109 15.454 197.577 14.838C197.073 14.194 196.289 13.872 195.225 13.872C193.881 13.872 192.803 14.292 191.991 15.132C191.207 15.972 190.815 17.092 190.815 18.492V27.144C190.815 29.3 189.765 30.378 187.665 30.378ZM219.574 30.462C217.642 30.462 216.018 30.14 214.702 29.496C213.414 28.852 212.448 27.914 211.804 26.682C211.188 25.45 210.88 23.896 210.88 22.02V14.124H209.116C208.332 14.124 207.716 13.914 207.268 13.494C206.848 13.074 206.638 12.5 206.638 11.772C206.638 10.988 206.848 10.4 207.268 10.008C207.716 9.588 208.332 9.378 209.116 9.378H210.88V6.186C210.88 5.122 211.16 4.324 211.72 3.792C212.28 3.232 213.064 2.952 214.072 2.952C215.108 2.952 215.892 3.232 216.424 3.792C216.956 4.324 217.222 5.122 217.222 6.186V9.378H221.212C221.996 9.378 222.598 9.588 223.018 10.008C223.438 10.4 223.648 10.988 223.648 11.772C223.648 12.5 223.438 13.074 223.018 13.494C222.598 13.914 221.996 14.124 221.212 14.124H217.222V21.768C217.222 22.944 217.488 23.826 218.02 24.414C218.58 25.002 219.462 25.296 220.666 25.296C221.086 25.296 221.478 25.254 221.842 25.17C222.206 25.086 222.542 25.03 222.85 25.002C223.242 24.974 223.564 25.1 223.816 25.38C224.068 25.632 224.194 26.206 224.194 27.102C224.194 27.774 224.082 28.362 223.858 28.866C223.634 29.37 223.242 29.734 222.682 29.958C222.318 30.098 221.814 30.21 221.17 30.294C220.554 30.406 220.022 30.462 219.574 30.462ZM229.708 30.378C228.644 30.378 227.832 30.098 227.272 29.538C226.712 28.978 226.432 28.18 226.432 27.144V12.234C226.432 11.198 226.698 10.414 227.23 9.882C227.79 9.322 228.56 9.042 229.54 9.042C230.548 9.042 231.318 9.322 231.85 9.882C232.382 10.414 232.648 11.198 232.648 12.234V14.418H232.228C232.564 12.738 233.306 11.436 234.454 10.512C235.602 9.588 237.086 9.07 238.906 8.958C239.606 8.902 240.138 9.084 240.502 9.504C240.894 9.896 241.104 10.554 241.132 11.478C241.188 12.346 241.006 13.032 240.586 13.536C240.194 14.04 239.522 14.348 238.57 14.46L237.604 14.544C236.008 14.684 234.818 15.146 234.034 15.93C233.278 16.714 232.9 17.848 232.9 19.332V27.144C232.9 28.18 232.62 28.978 232.06 29.538C231.528 30.098 230.744 30.378 229.708 30.378ZM250.508 30.462C248.996 30.462 247.638 30.168 246.434 29.58C245.23 28.992 244.292 28.194 243.62 27.186C242.948 26.178 242.612 25.044 242.612 23.784C242.612 22.272 243.004 21.082 243.788 20.214C244.572 19.318 245.846 18.688 247.61 18.324C249.374 17.932 251.712 17.736 254.624 17.736H256.85V21.012H254.666C253.238 21.012 252.076 21.096 251.18 21.264C250.312 21.404 249.682 21.656 249.29 22.02C248.926 22.384 248.744 22.888 248.744 23.532C248.744 24.316 249.01 24.96 249.542 25.464C250.102 25.968 250.9 26.22 251.936 26.22C252.748 26.22 253.462 26.038 254.078 25.674C254.722 25.282 255.226 24.764 255.59 24.12C255.954 23.448 256.136 22.692 256.136 21.852V17.022C256.136 15.79 255.856 14.922 255.296 14.418C254.736 13.886 253.784 13.62 252.44 13.62C251.684 13.62 250.858 13.718 249.962 13.914C249.094 14.082 248.128 14.376 247.064 14.796C246.448 15.076 245.902 15.146 245.426 15.006C244.95 14.838 244.586 14.558 244.334 14.166C244.082 13.746 243.956 13.298 243.956 12.822C243.956 12.318 244.096 11.842 244.376 11.394C244.656 10.918 245.118 10.568 245.762 10.344C247.078 9.812 248.31 9.448 249.458 9.252C250.634 9.056 251.712 8.958 252.692 8.958C254.848 8.958 256.612 9.28 257.984 9.924C259.384 10.54 260.434 11.506 261.134 12.822C261.834 14.11 262.184 15.776 262.184 17.82V27.144C262.184 28.18 261.932 28.978 261.428 29.538C260.924 30.098 260.196 30.378 259.244 30.378C258.292 30.378 257.55 30.098 257.018 29.538C256.514 28.978 256.262 28.18 256.262 27.144V25.59L256.556 25.842C256.388 26.794 256.024 27.62 255.464 28.32C254.932 28.992 254.246 29.524 253.406 29.916C252.566 30.28 251.6 30.462 250.508 30.462Z" fill="#FF0000"/>
</svg>
