<svg width="241" height="62" viewBox="0 0 241 62" fill="none" xmlns="http://www.w3.org/2000/svg">
<path d="M232.855 7.36511H206.109V54.6348H232.855V7.36511Z" fill="#BC8365"/>
<path d="M205.863 7.36511H179.117V54.6348H205.863V7.36511Z" fill="#D49069"/>
<path d="M178.869 7.36511H152.122V54.6348H178.869V7.36511Z" fill="#E0B99A"/>
<path d="M151.877 7.36511H125.13V54.6348H151.877V7.36511Z" fill="#E1C2A3"/>
<path d="M8.1449 18.8578H16.1581C21.1522 18.8578 25.999 21.286 25.999 27.2984C25.999 33.3108 21.1522 36.0006 16.1581 36.0006H12.021V45.0025H8.1449V18.8578ZM16.1581 32.1168C19.5121 32.1168 22.047 30.4734 22.047 27.2984C22.047 24.1234 19.5121 22.7416 16.1581 22.7416H12.021V32.1168H16.1581Z" fill="#613323"/>
<path d="M35.6881 18.8578H40.2738L51.4557 45.0025H46.9079L44.0003 37.8699H31.9615L29.0539 45.0025H24.5061L35.6881 18.8578ZM42.4361 33.9838L37.9999 22.9652L33.528 33.9838H42.4361Z" fill="#613323"/>
<path d="M57.9784 22.7439H50.3378V18.86H69.4973V22.7439H61.8567V45.0025H57.9806V22.7439H57.9784Z" fill="#613323"/>
<path d="M70.9857 31.9313C70.9857 24.5371 76.9861 18.5604 84.3299 18.5604C89.0629 18.5604 93.238 21.0624 95.6234 24.7964L92.3811 26.963C90.703 24.2374 87.7218 22.4442 84.3299 22.4442C79.1105 22.4442 74.8617 26.7014 74.8617 31.9313C74.8617 37.1611 79.1105 41.4183 84.3299 41.4183C87.7218 41.4183 90.703 39.5871 92.3811 36.8615L95.6234 39.0281C93.238 42.7621 89.0629 45.3021 84.3299 45.3021C76.9861 45.3021 70.9857 39.2897 70.9857 31.9313Z" fill="#613323"/>
<path d="M99.3478 18.8578H103.224V29.6886H118.059V18.8578H121.935V45.0025H118.059V33.5747H103.224V45.0025H99.3478V18.8578Z" fill="#613323"/>
<g filter="url(#filter0_d_944_1533)">
<path d="M132.293 20.9126C132.293 20.5191 132.608 20.1256 133.039 20.1256C133.431 20.1256 136.493 20.7941 136.493 28.3046C136.493 30.3102 135.982 36.4836 135.982 36.4836C139.082 27.8328 144.145 16.9796 149.601 16.9796C152.229 16.9796 153.211 18.7885 153.211 21.1094C153.211 23.4303 151.64 29.0536 150.502 33.1811C149.953 35.1085 149.795 35.3433 149.483 36.6804C151.955 31.332 155.84 24.9999 159.687 24.9999C161.963 24.9999 162.905 26.4555 162.905 28.4991C162.905 32.1168 160.903 35.9716 160.903 39.9828C160.903 42.2635 161.807 43.1288 161.807 43.1288C162.044 43.3658 162.16 43.5223 162.16 43.7571C162.16 44.1506 161.729 44.5039 161.336 44.5039C161.14 44.5039 160.905 44.3071 160.787 44.2288C160.591 44.0723 159.216 42.8135 159.216 40.0611C159.216 36.1281 161.258 31.8038 161.258 28.3828C161.258 27.2023 160.631 26.5337 159.609 26.5337C155.958 26.5337 151.877 34.1627 148.463 42.657C147.914 43.9941 147.874 44.2288 147.206 44.2288C146.657 44.2288 146.421 43.7571 146.421 43.2853C146.421 42.183 146.852 39.8241 147.441 37.7022C149.953 28.9329 151.522 23.6628 151.522 21.1071C151.522 19.4168 150.855 18.5895 149.48 18.5895C145.243 18.5895 139.472 31.5668 136.491 39.9828C135.078 43.9538 134.449 46.9835 134.449 46.9835C134.331 47.377 134.056 47.5335 133.704 47.5335C133.273 47.5335 132.802 47.1803 132.762 46.7465C132.762 46.5497 132.802 46.3932 132.84 46.2747C133.193 44.4659 134.802 36.0118 134.802 28.3023C134.802 22.4822 133.074 21.6952 132.682 21.4984C132.329 21.3017 132.289 21.1451 132.289 20.9081L132.293 20.9126Z" fill="white" stroke="white" stroke-width="1.66" stroke-miterlimit="10"/>
<path d="M167.024 45.6464C165.69 45.6464 164.474 44.6626 164.474 42.5005C164.474 37.1924 169.419 31.8441 173.422 31.8441C174.991 31.8441 175.738 32.6691 175.776 33.2996C176.129 33.2996 176.562 33.4964 176.562 34.0867C176.562 34.8335 175.502 36.8794 175.502 38.885C175.502 40.4971 175.894 41.5994 176.798 41.5994C178.329 41.5994 180.252 37.9034 180.252 37.9034C180.449 37.5882 180.645 37.3534 180.92 37.3534C181.234 37.3534 181.469 37.5501 181.469 37.9034C181.469 38.1002 181.272 38.4937 181.272 38.4937C181.272 38.4937 179.074 43.0147 176.564 43.0147C173.62 43.0147 174.051 39.2405 173.661 39.2405C173.19 39.2405 170.128 45.6509 167.029 45.6509L167.024 45.6464ZM172.518 37.8207C173.341 36.3271 174.049 34.2432 174.716 33.966C174.716 33.6127 174.127 33.2974 173.422 33.2974C170.793 33.2974 166.239 38.0957 166.239 42.657C166.239 43.6408 166.591 44.2691 167.377 44.2691C168.789 44.2691 170.557 41.3602 172.518 37.8207Z" fill="white" stroke="white" stroke-width="1.66" stroke-miterlimit="10"/>
<path d="M181.31 40.4546C183.037 36.9151 185.313 33.1006 187.668 33.1006C189.317 33.1006 189.944 34.3594 190.14 36.4031C190.689 42.0264 190.963 43.5603 192.653 43.5603C194.614 43.5603 195.989 39.3925 196.46 38.1337C196.696 37.4651 196.971 37.2304 197.323 37.2304C197.676 37.2304 197.99 37.4674 197.99 37.8989C197.99 38.0554 197.872 38.4109 197.754 38.7642C197.479 39.511 195.516 45.0964 192.023 45.0964C189.473 45.0964 188.962 42.5407 188.451 36.8391C188.333 35.502 188.136 34.3617 187.469 34.3617C185.82 34.3617 183.388 38.885 181.897 42.1092C181.033 43.9963 180.799 44.7431 180.641 45.4921C180.522 46.0422 180.248 46.2792 179.699 46.2792C179.11 46.2792 178.876 45.8856 178.876 45.3759C178.876 44.9041 179.112 44.354 179.306 43.5267C180.288 39.0437 180.17 37.2751 180.17 35.701C180.17 34.5607 179.973 34.0106 179.855 33.6574C179.815 33.5389 179.737 33.3421 179.737 33.1856C179.737 32.7921 180.089 32.4388 180.6 32.4388C180.953 32.4388 181.268 32.7138 181.424 33.1073C181.542 33.3823 181.776 34.3661 181.776 35.7815C181.776 36.6065 181.658 37.7089 181.502 39.0057C181.462 39.4775 181.346 39.9895 181.306 40.4613L181.31 40.4546Z" fill="white" stroke="white" stroke-width="1.66" stroke-miterlimit="10"/>
<path d="M199.245 23.3498C199.675 23.3498 200.148 23.5868 200.068 24.0586C199.872 25.2391 199.597 26.4577 199.401 27.5981C199.126 29.0917 198.812 30.6255 198.577 32.2376C200.342 31.7658 202.188 31.057 203.759 31.057C206.231 31.057 207.017 32.8659 207.095 37.7425C208.311 33.7312 210.705 31.1353 213.1 31.1353C214.396 31.1353 215.298 32.0006 215.298 32.7474C215.298 33.1409 214.827 33.4159 214.552 33.4159C214.122 33.4159 213.845 32.5506 212.903 32.5506C211.451 32.5506 209.527 34.7128 208.233 38.449C207.251 41.2417 206.702 44.7007 206.664 45.0159C206.586 45.4877 206.234 45.7247 205.841 45.7247C205.448 45.7247 205.095 45.4497 205.095 44.8214C205.095 44.6649 205.136 44.1528 205.214 43.6408C205.332 42.4222 205.528 40.3764 205.528 38.8045C205.528 33.6529 204.743 32.4344 203.449 32.4344C201.918 32.4344 200.113 33.1812 198.385 33.6529C198.189 35.3053 198.071 36.9956 198.071 38.7643C198.071 44.8214 200.269 47.2183 200.269 47.2183C200.543 47.5716 200.74 47.8466 200.74 48.1239C200.74 48.4771 200.387 48.7924 200.032 48.7924C199.602 48.7924 199.405 48.5554 199.012 48.0836C198.111 46.9433 196.422 44.0724 196.422 38.8425C196.422 37.2304 196.54 35.6183 196.696 34.0442C196.422 34.0845 196.147 34.0845 195.873 34.0845C194.067 34.0845 193.126 33.2192 193.126 32.7071C193.126 32.2756 193.44 31.9603 193.833 31.9603C194.578 31.9603 194.619 32.6691 195.875 32.6691C196.19 32.6691 196.542 32.6289 196.857 32.5909C197.25 29.4449 197.917 26.4555 198.506 23.8618C198.584 23.5466 198.899 23.3498 199.251 23.3498H199.245Z" fill="white" stroke="white" stroke-width="1.66" stroke-miterlimit="10"/>
<path d="M217.375 45.6464C216.041 45.6464 214.825 44.6626 214.825 42.5005C214.825 37.1924 219.77 31.8441 223.773 31.8441C225.344 31.8441 226.089 32.6691 226.127 33.2996C226.48 33.2996 226.913 33.4964 226.913 34.0867C226.913 34.8335 225.853 36.8794 225.853 38.885C225.853 40.4971 226.245 41.5994 227.147 41.5994C228.678 41.5994 230.601 37.9034 230.601 37.9034C230.798 37.5882 230.994 37.3534 231.268 37.3534C231.583 37.3534 231.817 37.5501 231.817 37.9034C231.817 38.1002 231.621 38.4937 231.621 38.4937C231.621 38.4937 229.423 43.0147 226.91 43.0147C223.967 43.0147 224.398 39.2405 224.007 39.2405C223.536 39.2405 220.475 45.6509 217.375 45.6509V45.6464ZM222.869 37.8207C223.693 36.3271 224.4 34.2432 225.067 33.966C225.067 33.6127 224.478 33.2974 223.773 33.2974C221.144 33.2974 216.592 38.0957 216.592 42.657C216.592 43.6408 216.945 44.2691 217.73 44.2691C219.143 44.2691 220.91 41.3602 222.871 37.8207H222.869Z" fill="white" stroke="white" stroke-width="1.66" stroke-miterlimit="10"/>
</g>
<defs>
<filter id="filter0_d_944_1533" x="131.459" y="16.1496" width="107.839" height="40.1228" filterUnits="userSpaceOnUse" color-interpolation-filters="sRGB">
<feFlood flood-opacity="0" result="BackgroundImageFix"/>
<feColorMatrix in="SourceAlpha" type="matrix" values="0 0 0 0 0 0 0 0 0 0 0 0 0 0 0 0 0 0 127 0" result="hardAlpha"/>
<feOffset dx="3.33" dy="3.33"/>
<feGaussianBlur stdDeviation="1.66"/>
<feColorMatrix type="matrix" values="0 0 0 0 0.176471 0 0 0 0 0.0352941 0 0 0 0 0.0352941 0 0 0 0.3 0"/>
<feBlend mode="normal" in2="BackgroundImageFix" result="effect1_dropShadow_944_1533"/>
<feBlend mode="normal" in="SourceGraphic" in2="effect1_dropShadow_944_1533" result="shape"/>
</filter>
</defs>
</svg>
